<svg width="278" height="251" viewBox="0 0 278 251" fill="none" xmlns="http://www.w3.org/2000/svg">
<rect width="278" height="120" rx="4" fill="#F5F4FA"/>
<path d="M173.943 34.8964C173.806 34.4752 173.442 34.1673 173.002 34.103L168.823 33.4951L166.953 29.7081C166.561 28.9101 165.253 28.9101 164.861 29.7081L162.991 33.4951L158.812 34.1031C158.372 34.1673 158.008 34.4742 157.869 34.8965C157.732 35.3189 157.846 35.7832 158.164 36.0924L161.189 39.0407L160.475 43.2034C160.401 43.6409 160.58 44.0831 160.939 44.3445C161.301 44.6082 161.775 44.6408 162.168 44.4331L165.906 42.4672L169.644 44.4331C169.815 44.5229 170.003 44.5672 170.188 44.5672C170.43 44.5672 170.671 44.4926 170.874 44.3444C171.233 44.0831 171.413 43.6408 171.337 43.2033L170.623 39.0405L173.649 36.0923C173.966 35.7819 174.08 35.3187 173.943 34.8964ZM168.556 37.7991C168.282 38.0663 168.156 38.4536 168.221 38.8316L168.639 41.2688L166.45 40.1185C166.28 40.0286 166.093 39.9843 165.906 39.9843C165.72 39.9843 165.534 40.0286 165.363 40.1185L163.174 41.2688L163.591 38.8316C163.657 38.4536 163.531 38.0675 163.257 37.7991L161.484 36.0725L163.932 35.7166C164.313 35.6618 164.64 35.4226 164.811 35.0784L165.905 32.8617L166.999 35.0784C167.17 35.4225 167.498 35.6618 167.878 35.7166L170.326 36.0725L168.556 37.7991Z" fill="#2196F3"/>
<path d="M161.167 69.8923H158.833V72.2257H161.167V69.8923Z" fill="#2196F3"/>
<path d="M161.167 74.5591H158.833V76.8925H161.167V74.5591Z" fill="#2196F3"/>
<path d="M163.5 72.2257H161.167V74.5591H163.5V72.2257Z" fill="#2196F3"/>
<path d="M158.834 72.2257H156.5V74.5591H158.834V72.2257Z" fill="#2196F3"/>
<path d="M153 82.7259H150.667V85.0593H153V82.7259Z" fill="#2196F3"/>
<path d="M153 87.3926H150.667V89.726H153V87.3926Z" fill="#2196F3"/>
<path d="M155.333 85.0593H153V87.3927H155.333V85.0593Z" fill="#2196F3"/>
<path d="M150.667 85.0593H148.333V87.3927H150.667V85.0593Z" fill="#2196F3"/>
<path d="M139 78.0592H136.667V80.3926H139V78.0592Z" fill="#2196F3"/>
<path d="M139 82.7259H136.667V85.0593H139V82.7259Z" fill="#2196F3"/>
<path d="M141.333 80.3925H139V82.7259H141.333V80.3925Z" fill="#2196F3"/>
<path d="M136.666 80.3925H134.333V82.7259H136.666V80.3925Z" fill="#2196F3"/>
<path d="M116.833 38.3918H114.5V40.7252H116.833V38.3918Z" fill="#2196F3"/>
<path d="M116.833 43.0587H114.5V45.3921H116.833V43.0587Z" fill="#2196F3"/>
<path d="M119.166 40.7253H116.833V43.0587H119.166V40.7253Z" fill="#2196F3"/>
<path d="M114.499 40.7253H112.166V43.0587H114.499V40.7253Z" fill="#2196F3"/>
<path d="M158.064 55.9738C157.435 55.1256 156.512 54.5797 155.464 54.4326C154.412 54.2833 153.373 54.5597 152.533 55.2026L149.795 57.3014L149.794 57.3026L145.643 60.4025L142.672 59.2195C147.969 56.843 151.671 51.545 151.671 45.3942C151.671 37.0314 144.84 30.2274 136.444 30.2274C128.047 30.2274 121.216 37.0314 121.216 45.3942C121.216 48.4253 122.123 51.244 123.666 53.6158L117.62 53.5633C117.617 53.5633 117.613 53.5633 117.61 53.5633C117.591 53.5633 117.576 53.5726 117.559 53.5738C117.443 53.5785 117.33 53.6019 117.219 53.6415C117.191 53.652 117.162 53.6579 117.135 53.6706C117.121 53.6765 117.107 53.6776 117.093 53.6846L110.021 57.1764C110.02 57.1764 110.018 57.1764 110.018 57.1775L105.877 59.1693C105.831 59.1891 105.784 59.2159 105.739 59.2463C104.088 60.3452 103.526 62.5036 104.43 64.2676C104.912 65.2056 105.732 65.8964 106.74 66.2125C107.129 66.3337 107.525 66.3933 107.919 66.3933C108.553 66.3933 109.181 66.2382 109.756 65.9314L112.792 64.3167L117.744 61.7593L120.712 61.7418L108.808 73.5884C108.807 73.5896 108.806 73.5896 108.805 73.5907L105.876 76.5074C105.185 77.1958 104.804 78.1092 104.804 79.0835C104.804 80.0565 105.185 80.9723 105.876 81.6619C106.587 82.3689 107.521 82.7236 108.456 82.7236C109.392 82.7236 110.325 82.3689 111.038 81.6619L113.913 78.7988L117.721 75.9556L119.691 77.9179L115.838 81.7552C115.836 81.7564 115.835 81.7564 115.834 81.7575L112.906 84.6741C112.214 85.3625 111.833 86.276 111.833 87.2502C111.833 88.2233 112.214 89.139 112.906 89.8287C113.616 90.5356 114.552 90.8903 115.486 90.8903C116.421 90.8903 117.357 90.5356 118.068 89.8287L120.998 86.912L125.684 82.2453C125.685 82.2441 125.685 82.243 125.687 82.2417L127.895 80.0542L127.887 80.046C127.901 80.0321 127.921 80.0273 127.935 80.0122L139.235 67.6349L146.828 68.7153C146.883 68.7235 146.938 68.7269 146.993 68.7269C147.134 68.7269 147.27 68.6931 147.402 68.6429C147.441 68.629 147.474 68.6103 147.511 68.5917C147.553 68.5706 147.597 68.559 147.637 68.5322L154.666 63.8655C154.692 63.848 154.706 63.82 154.73 63.8014C154.758 63.7792 154.793 63.7699 154.819 63.7453L157.6 61.1401C159.047 59.7841 159.247 57.5628 158.064 55.9738ZM108.66 63.8722C108.281 64.0752 107.851 64.116 107.439 63.9854C107.03 63.8583 106.699 63.5793 106.505 63.2025C106.153 62.5165 106.357 61.6811 106.974 61.2297L109.848 59.8471L110.54 61.869L110.83 62.7183L108.66 63.8722ZM116.31 59.8741L112.923 61.6241L112.365 59.9907L111.963 58.817L116.397 56.6282L116.31 59.8741ZM149.34 45.3919C149.34 47.4009 148.861 49.2957 148.03 50.9908L138.883 46.8362C138.788 45.5821 138.137 44.4842 137.159 43.8005L140.361 33.1685C145.563 34.823 149.34 39.6752 149.34 45.3919ZM123.552 45.3919C123.552 38.3159 129.336 32.5583 136.446 32.5583C136.999 32.5583 137.54 32.605 138.076 32.6726L134.943 43.0714C134.901 43.0701 134.862 43.0585 134.819 43.0585C132.56 43.0585 130.722 44.8902 130.722 47.1419C130.722 49.3936 132.56 51.2254 134.819 51.2254C136.337 51.2254 137.65 50.3866 138.358 49.1591L146.807 52.9976C144.456 56.1616 140.694 58.2255 136.446 58.2255C129.336 58.2255 123.552 52.4679 123.552 45.3919ZM136.581 47.1419C136.581 48.1068 135.79 48.892 134.819 48.892C133.847 48.892 133.056 48.1068 133.056 47.1419C133.056 46.1771 133.847 45.3919 134.819 45.3919C135.79 45.3919 136.581 46.1771 136.581 47.1419ZM109.392 80.0075C108.875 80.5196 108.038 80.5185 107.523 80.0087C107.274 79.7601 107.138 79.4324 107.138 79.0835C107.138 78.7358 107.274 78.408 107.523 78.1619L109.627 76.0652L111.489 77.9192L109.392 80.0075ZM116.422 88.1743C115.905 88.6865 115.068 88.6877 114.552 88.1756C114.303 87.927 114.167 87.5993 114.167 87.2504C114.167 86.9027 114.303 86.5748 114.552 86.3287L116.658 84.231L117.539 85.1073L118.521 86.085L116.422 88.1743ZM124.038 80.5862C124.037 80.5873 124.036 80.5873 124.035 80.5885L120.174 84.4386L119.293 83.5623L118.311 82.5846L122.168 78.7451C122.168 78.7451 122.168 78.7451 122.168 78.744C122.169 78.7428 122.17 78.7428 122.172 78.7417C122.259 78.6542 122.314 78.5492 122.368 78.4454C122.383 78.4151 122.412 78.3894 122.425 78.3579C122.461 78.2681 122.467 78.1713 122.481 78.0767C122.488 78.0229 122.511 77.9729 122.511 77.9179C122.511 77.8397 122.483 77.764 122.467 77.6869C122.453 77.6169 122.453 77.5457 122.426 77.4781C122.382 77.3685 122.306 77.2717 122.227 77.1771C122.204 77.1514 122.196 77.1187 122.172 77.0942C122.172 77.0942 122.172 77.0942 122.17 77.0942C122.169 77.0931 122.169 77.0906 122.168 77.0896L118.653 73.5895C118.616 73.5522 118.568 73.537 118.526 73.5056C118.464 73.4577 118.404 73.4134 118.336 73.3795C118.269 73.3468 118.201 73.327 118.131 73.3083C118.057 73.2872 117.984 73.2709 117.906 73.2651C117.835 73.2604 117.769 73.2674 117.697 73.2756C117.619 73.2849 117.546 73.2954 117.47 73.3199C117.396 73.3433 117.331 73.3794 117.264 73.4179C117.22 73.4424 117.171 73.4506 117.131 73.4809L113.251 76.3767L111.281 74.4143L116.529 69.1946L126.067 78.576L124.038 80.5862ZM138.954 65.2372C138.921 65.2326 138.889 65.2454 138.855 65.2431C138.77 65.2385 138.689 65.2443 138.603 65.2583C138.537 65.2699 138.474 65.2828 138.411 65.3049C138.336 65.3306 138.269 65.3656 138.2 65.4076C138.134 65.4472 138.075 65.4892 138.018 65.5417C137.99 65.5662 137.956 65.5779 137.93 65.6058L127.653 76.8621L118.185 67.5507L124.382 61.3859C124.839 60.9309 124.841 60.1924 124.386 59.735C124.156 59.5052 123.854 59.392 123.552 59.3932V59.3921L118.698 59.4213L118.759 55.9049L125.549 55.9633C128.317 58.7937 132.176 60.5589 136.446 60.5589C137.403 60.5589 138.336 60.4598 139.245 60.2905C139.332 60.3605 139.419 60.4318 139.528 60.4761L144.8 62.5761L145.133 64.2351L145.523 66.1717L138.954 65.2372ZM147.794 65.6269L147.11 62.219L150.274 59.8564L151.102 60.9554L152.344 62.6051L147.794 65.6269ZM156.005 59.4341L154.173 61.1515L152.136 58.4471L153.954 57.053C154.294 56.7917 154.722 56.6855 155.142 56.7403C155.564 56.7998 155.938 57.0203 156.192 57.3621C156.666 58.0003 156.585 58.8905 156.005 59.4341Z" fill="#212121"/>
<path d="M133.755 65.5651L129.067 60.8984C128.613 60.4446 127.876 60.4446 127.421 60.8984L122.734 65.5651C122.515 65.7856 122.391 66.0819 122.391 66.3922C122.391 66.7026 122.514 67.0001 122.734 67.2194L127.421 71.8861C127.648 72.1124 127.947 72.2256 128.244 72.2256C128.542 72.2256 128.841 72.1124 129.067 71.8861L133.755 67.2194C133.974 67.0001 134.099 66.7026 134.099 66.3922C134.099 66.0819 133.975 65.7844 133.755 65.5651ZM128.244 69.4128L125.211 66.3922L128.244 63.3717L131.279 66.3922L128.244 69.4128Z" fill="#212121"/>
<path d="M141.547 36.0923L140.983 38.3581C141.139 38.3966 144.785 39.3463 144.785 43.0587H147.118C147.118 38.6461 143.474 36.5718 141.547 36.0923Z" fill="#212121"/>
<path d="M147.118 45.3919H144.784V47.7253H147.118V45.3919Z" fill="#212121"/>
<path d="M8.70215 159.685C8.62467 160.756 8.22819 161.599 7.5127 162.214C6.80176 162.829 5.86296 163.137 4.69629 163.137C3.42025 163.137 2.41536 162.708 1.68164 161.852C0.952474 160.99 0.587891 159.81 0.587891 158.311V157.702C0.587891 156.745 0.75651 155.902 1.09375 155.173C1.43099 154.444 1.91178 153.885 2.53613 153.498C3.16504 153.106 3.89421 152.91 4.72363 152.91C5.87207 152.91 6.7972 153.218 7.49902 153.833C8.20085 154.448 8.60645 155.312 8.71582 156.424H6.66504C6.61491 155.781 6.4349 155.316 6.125 155.029C5.81966 154.738 5.35254 154.592 4.72363 154.592C4.04004 154.592 3.52734 154.838 3.18555 155.33C2.84831 155.818 2.67513 156.576 2.66602 157.606V158.358C2.66602 159.434 2.8278 160.22 3.15137 160.717C3.47949 161.214 3.99447 161.462 4.69629 161.462C5.32975 161.462 5.80143 161.318 6.11133 161.031C6.42578 160.74 6.60579 160.291 6.65137 159.685H8.70215ZM18.6446 158.249C18.6446 159.229 18.4714 160.088 18.1251 160.826C17.7787 161.564 17.282 162.134 16.6348 162.535C15.9923 162.936 15.254 163.137 14.42 163.137C13.5951 163.137 12.8591 162.938 12.212 162.542C11.5649 162.146 11.0636 161.58 10.7081 160.847C10.3526 160.108 10.1726 159.261 10.168 158.304V157.812C10.168 156.832 10.3435 155.97 10.6944 155.228C11.0499 154.48 11.5489 153.908 12.1915 153.512C12.8386 153.111 13.5769 152.91 14.4063 152.91C15.2358 152.91 15.9718 153.111 16.6143 153.512C17.2615 153.908 17.7605 154.48 18.1114 155.228C18.4669 155.97 18.6446 156.829 18.6446 157.805V158.249ZM16.5665 157.798C16.5665 156.754 16.3796 155.961 16.0059 155.419C15.6322 154.877 15.099 154.605 14.4063 154.605C13.7182 154.605 13.1873 154.874 12.8136 155.412C12.4399 155.945 12.2507 156.729 12.2462 157.764V158.249C12.2462 159.265 12.433 160.054 12.8067 160.614C13.1804 161.175 13.7182 161.455 14.42 161.455C15.1082 161.455 15.6368 161.186 16.0059 160.648C16.3751 160.106 16.5619 159.318 16.5665 158.283V157.798ZM20.5548 163V153.047H24.0412C25.2489 153.047 26.1649 153.279 26.7892 153.744C27.4136 154.204 27.7257 154.881 27.7257 155.774C27.7257 156.262 27.6004 156.693 27.3498 157.066C27.0991 157.436 26.7505 157.707 26.3039 157.88C26.8143 158.007 27.2153 158.265 27.507 158.652C27.8032 159.04 27.9513 159.514 27.9513 160.074C27.9513 161.031 27.646 161.756 27.0353 162.248C26.4246 162.74 25.5542 162.991 24.424 163H20.5548ZM22.6056 158.666V161.353H24.3625C24.8455 161.353 25.2215 161.239 25.4904 161.011C25.7638 160.778 25.9005 160.459 25.9005 160.054C25.9005 159.142 25.4289 158.68 24.4855 158.666H22.6056ZM22.6056 157.217H24.1232C25.1577 157.199 25.675 156.786 25.675 155.979C25.675 155.528 25.5428 155.205 25.2785 155.009C25.0187 154.808 24.6063 154.708 24.0412 154.708H22.6056V157.217ZM31.967 159.493V163H29.9163V153.047H33.7991C34.5465 153.047 35.2027 153.184 35.7678 153.457C36.3375 153.73 36.775 154.12 37.0803 154.626C37.3857 155.127 37.5383 155.699 37.5383 156.342C37.5383 157.317 37.2034 158.087 36.5334 158.652C35.8681 159.213 34.9452 159.493 33.7649 159.493H31.967ZM31.967 157.832H33.7991C34.3414 157.832 34.7538 157.704 35.0364 157.449C35.3235 157.194 35.467 156.829 35.467 156.355C35.467 155.868 35.3235 155.474 35.0364 155.173C34.7493 154.872 34.3528 154.717 33.8469 154.708H31.967V157.832ZM45.3616 158.687H41.4241V161.353H46.0452V163H39.3734V153.047H46.0316V154.708H41.4241V157.08H45.3616V158.687ZM50.348 153.047L52.9047 160.266L55.4477 153.047H58.141V163H56.0834V160.279L56.2885 155.583L53.602 163H52.1937L49.5141 155.59L49.7191 160.279V163H47.6684V153.047H50.348ZM66.3403 158.687H62.4028V161.353H67.0239V163H60.352V153.047H67.0102V154.708H62.4028V157.08H66.3403V158.687ZM76.7476 163H74.6968V158.734H70.6978V163H68.647V153.047H70.6978V157.08H74.6968V153.047H76.7476V163ZM87.0661 163H85.0153V158.734H81.0163V163H78.9655V153.047H81.0163V157.08H85.0153V153.047H87.0661V163ZM91.3689 156.636H92.9685C94.1397 156.636 95.0671 156.921 95.7507 157.49C96.4389 158.055 96.7829 158.819 96.7829 159.78C96.7829 160.746 96.4411 161.523 95.7575 162.111C95.0785 162.695 94.1739 162.991 93.0437 163H89.3044V153.047H91.3689V156.636ZM99.6882 163H97.6374V153.047H99.6882V163ZM91.3689 158.29V161.353H93.0027C93.5267 161.353 93.9437 161.209 94.2536 160.922C94.5681 160.635 94.7253 160.25 94.7253 159.767C94.7253 159.315 94.5749 158.96 94.2741 158.7C93.9779 158.436 93.57 158.299 93.0505 158.29H91.3689ZM107.901 158.687H103.964V161.353H108.585V163H101.913V153.047H108.571V154.708H103.964V157.08H107.901V158.687ZM121.196 154.708H118.147V163H116.097V154.708H113.089V153.047H121.196V154.708ZM128.78 158.687H124.843V161.353H129.464V163H122.792V153.047H129.45V154.708H124.843V157.08H128.78V158.687ZM134.649 156.479L136.515 153.047H138.873L135.975 157.982L138.948 163H136.563L134.649 159.514L132.734 163H130.349L133.322 157.982L130.424 153.047H132.782L134.649 156.479ZM148.508 163H146.457V158.734H142.458V163H140.407V153.047H142.458V157.08H146.457V153.047H148.508V163ZM158.902 158.249C158.902 159.229 158.728 160.088 158.382 160.826C158.036 161.564 157.539 162.134 156.892 162.535C156.249 162.936 155.511 163.137 154.677 163.137C153.852 163.137 153.116 162.938 152.469 162.542C151.822 162.146 151.321 161.58 150.965 160.847C150.61 160.108 150.43 159.261 150.425 158.304V157.812C150.425 156.832 150.601 155.97 150.951 155.228C151.307 154.48 151.806 153.908 152.449 153.512C153.096 153.111 153.834 152.91 154.663 152.91C155.493 152.91 156.229 153.111 156.871 153.512C157.519 153.908 158.018 154.48 158.368 155.228C158.724 155.97 158.902 156.829 158.902 157.805V158.249ZM156.824 157.798C156.824 156.754 156.637 155.961 156.263 155.419C155.889 154.877 155.356 154.605 154.663 154.605C153.975 154.605 153.444 154.874 153.071 155.412C152.697 155.945 152.508 156.729 152.503 157.764V158.249C152.503 159.265 152.69 160.054 153.064 160.614C153.437 161.175 153.975 161.455 154.677 161.455C155.365 161.455 155.894 161.186 156.263 160.648C156.632 160.106 156.819 159.318 156.824 158.283V157.798ZM168.687 153.047V163H166.629V154.708H163.977L163.813 158.222C163.744 159.407 163.594 160.341 163.362 161.024C163.129 161.703 162.79 162.202 162.343 162.521C161.897 162.836 161.286 162.995 160.511 163H159.978V161.353L160.32 161.318C160.835 161.25 161.202 160.954 161.42 160.43C161.644 159.901 161.785 158.962 161.844 157.613L162.015 153.047H168.687ZM179.074 158.249C179.074 159.229 178.9 160.088 178.554 160.826C178.208 161.564 177.711 162.134 177.064 162.535C176.421 162.936 175.683 163.137 174.849 163.137C174.024 163.137 173.288 162.938 172.641 162.542C171.994 162.146 171.493 161.58 171.137 160.847C170.782 160.108 170.602 159.261 170.597 158.304V157.812C170.597 156.832 170.773 155.97 171.123 155.228C171.479 154.48 171.978 153.908 172.621 153.512C173.268 153.111 174.006 152.91 174.835 152.91C175.665 152.91 176.401 153.111 177.043 153.512C177.691 153.908 178.19 154.48 178.54 155.228C178.896 155.97 179.074 156.829 179.074 157.805V158.249ZM176.996 157.798C176.996 156.754 176.809 155.961 176.435 155.419C176.061 154.877 175.528 154.605 174.835 154.605C174.147 154.605 173.616 154.874 173.243 155.412C172.869 155.945 172.68 156.729 172.675 157.764V158.249C172.675 159.265 172.862 160.054 173.236 160.614C173.609 161.175 174.147 161.455 174.849 161.455C175.537 161.455 176.066 161.186 176.435 160.648C176.804 160.106 176.991 159.318 176.996 158.283V157.798ZM187.512 154.708H183.048V163H180.998V153.047H187.512V154.708ZM195.178 153.047H197.236V163H195.178V156.39L191.193 163H189.142V153.047H191.193V159.671L195.178 153.047ZM205.401 153.047H207.459V163H205.401V156.39L201.416 163H199.365V153.047H201.416V159.671L205.401 153.047Z" fill="#212121"/>
<path d="M6.26172 185.72C6.26172 185.191 6.06803 184.772 5.68066 184.462C5.29785 184.147 4.75781 183.99 4.06055 183.99C3.47721 183.99 2.9873 184.152 2.59082 184.476C2.19889 184.795 2.00293 185.191 2.00293 185.665H0.69043C0.69043 185.136 0.833984 184.662 1.12109 184.243C1.41276 183.824 1.81836 183.498 2.33789 183.266C2.85742 183.029 3.43164 182.91 4.06055 182.91C5.17253 182.91 6.03613 183.161 6.65137 183.662C7.2666 184.159 7.57422 184.852 7.57422 185.74C7.57422 186.201 7.43294 186.62 7.15039 186.998C6.86784 187.376 6.47363 187.675 5.96777 187.894C7.139 188.285 7.72461 189.062 7.72461 190.225C7.72461 191.118 7.39193 191.826 6.72656 192.351C6.0612 192.875 5.17253 193.137 4.06055 193.137C3.39974 193.137 2.79818 193.021 2.25586 192.788C1.7181 192.551 1.29883 192.216 0.998047 191.783C0.697266 191.35 0.546875 190.835 0.546875 190.238H1.85938C1.85938 190.762 2.06673 191.2 2.48145 191.551C2.89616 191.897 3.42253 192.07 4.06055 192.07C4.77604 192.07 5.3457 191.904 5.76953 191.571C6.19792 191.239 6.41211 190.799 6.41211 190.252C6.41211 189.085 5.68978 188.491 4.24512 188.468H3.01465V187.388H4.23828C4.90365 187.374 5.40723 187.224 5.74902 186.937C6.09082 186.649 6.26172 186.244 6.26172 185.72ZM15.7325 193H14.4679V189.842H11.0704V193H9.79891V185.604H11.0704V188.81H14.4679V185.604H15.7325V193ZM22.756 193C22.6831 192.854 22.6239 192.594 22.5783 192.221C21.9904 192.831 21.2886 193.137 20.4728 193.137C19.7436 193.137 19.1444 192.932 18.675 192.521C18.2101 192.107 17.9777 191.583 17.9777 190.949C17.9777 190.179 18.2694 189.582 18.8527 189.158C19.4406 188.73 20.2655 188.516 21.3273 188.516H22.5578V187.935C22.5578 187.493 22.4256 187.142 22.1613 186.882C21.897 186.618 21.5073 186.485 20.9923 186.485C20.5412 186.485 20.1629 186.599 19.8576 186.827C19.5522 187.055 19.3996 187.331 19.3996 187.654H18.1281C18.1281 187.285 18.258 186.93 18.5177 186.588C18.7821 186.242 19.1375 185.968 19.5841 185.768C20.0353 185.567 20.5298 185.467 21.0675 185.467C21.9198 185.467 22.5874 185.681 23.0705 186.109C23.5535 186.533 23.8042 187.119 23.8224 187.866V191.271C23.8224 191.95 23.909 192.49 24.0822 192.891V193H22.756ZM20.6574 192.036C21.0539 192.036 21.4298 191.934 21.7853 191.729C22.1408 191.523 22.3983 191.257 22.5578 190.929V189.411H21.5666C20.0171 189.411 19.2423 189.865 19.2423 190.771C19.2423 191.168 19.3745 191.478 19.6388 191.701C19.9032 191.924 20.2427 192.036 20.6574 192.036ZM31.8098 193H30.5383V190.32C29.9823 190.466 29.4127 190.539 28.8293 190.539C27.9042 190.539 27.1978 190.302 26.7102 189.828C26.2271 189.354 25.981 188.68 25.9719 187.805V185.597H27.2366V187.846C27.2593 188.949 27.7903 189.5 28.8293 189.5C29.4127 189.5 29.9823 189.427 30.5383 189.281V185.604H31.8098V193ZM39.0452 185.604H40.3099V193H39.0452V187.606L35.6341 193H34.3695V185.604H35.6341V191.004L39.0452 185.604ZM47.0189 191.325L49.5346 185.604H51.1137V193H49.849V187.62L47.4564 193H46.5814L44.141 187.504V193H42.8764V185.604H44.517L47.0189 191.325ZM53.2358 189.233C53.2358 188.509 53.3771 187.857 53.6596 187.278C53.9468 186.7 54.3432 186.253 54.8491 185.938C55.3595 185.624 55.9406 185.467 56.5923 185.467C57.5994 185.467 58.4129 185.815 59.0327 186.513C59.657 187.21 59.9692 188.137 59.9692 189.295V189.384C59.9692 190.104 59.8302 190.751 59.5522 191.325C59.2788 191.895 58.8846 192.339 58.3696 192.658C57.8592 192.977 57.2713 193.137 56.6059 193.137C55.6033 193.137 54.7899 192.788 54.1655 192.091C53.5457 191.394 53.2358 190.471 53.2358 189.322V189.233ZM54.5073 189.384C54.5073 190.204 54.6964 190.863 55.0747 191.359C55.4575 191.856 55.9679 192.104 56.6059 192.104C57.2485 192.104 57.7589 191.854 58.1372 191.353C58.5154 190.847 58.7046 190.14 58.7046 189.233C58.7046 188.422 58.5109 187.766 58.1235 187.265C57.7407 186.759 57.2303 186.506 56.5923 186.506C55.9679 186.506 55.4643 186.754 55.0815 187.251C54.6987 187.748 54.5073 188.459 54.5073 189.384ZM64.942 192.104C65.3931 192.104 65.7873 191.968 66.1246 191.694C66.4618 191.421 66.6487 191.079 66.6851 190.669H67.8814C67.8586 191.093 67.7128 191.496 67.4439 191.879C67.175 192.262 66.815 192.567 66.3638 192.795C65.9172 193.023 65.4433 193.137 64.942 193.137C63.9348 193.137 63.1327 192.802 62.5357 192.132C61.9433 191.457 61.647 190.537 61.647 189.37V189.158C61.647 188.438 61.7792 187.798 62.0435 187.237C62.3078 186.677 62.6861 186.242 63.1783 185.932C63.675 185.622 64.2606 185.467 64.9351 185.467C65.7645 185.467 66.4527 185.715 66.9996 186.212C67.551 186.709 67.8449 187.354 67.8814 188.146H66.6851C66.6487 187.668 66.4664 187.276 66.1382 186.971C65.8147 186.661 65.4136 186.506 64.9351 186.506C64.2925 186.506 63.7935 186.738 63.438 187.203C63.0871 187.663 62.9117 188.331 62.9117 189.206V189.445C62.9117 190.298 63.0871 190.954 63.438 191.414C63.789 191.874 64.2903 192.104 64.942 192.104ZM75.2194 186.629H72.7379V193H71.4733V186.629H69.0397V185.604H75.2194V186.629ZM78.2507 188.153H80.1716C81.0101 188.162 81.6732 188.381 82.1609 188.81C82.6485 189.238 82.8923 189.819 82.8923 190.553C82.8923 191.291 82.6417 191.883 82.1404 192.33C81.639 192.777 80.9646 193 80.1169 193H76.9861V185.604H78.2507V188.153ZM78.2507 189.186V191.968H80.1306C80.6045 191.968 80.9714 191.847 81.2312 191.605C81.4909 191.359 81.6208 191.024 81.6208 190.601C81.6208 190.19 81.4932 189.855 81.238 189.596C80.9874 189.331 80.6342 189.195 80.1784 189.186H78.2507ZM91.3817 186.506C90.9305 186.506 90.5386 186.649 90.2059 186.937C89.8778 187.224 89.7138 187.563 89.7138 187.955H88.5106C88.5106 187.531 88.6451 187.126 88.9139 186.738C89.1828 186.351 89.5406 186.043 89.9872 185.815C90.4338 185.583 90.8986 185.467 91.3817 185.467C92.3433 185.467 93.1203 185.815 93.7128 186.513C94.3098 187.205 94.6083 188.112 94.6083 189.233V189.445C94.6083 190.138 94.4716 190.771 94.1981 191.346C93.9292 191.915 93.5487 192.357 93.0565 192.672C92.5689 192.982 92.0106 193.137 91.3817 193.137C90.5614 193.137 89.8778 192.882 89.3309 192.371C88.7841 191.861 88.5106 191.225 88.5106 190.464H89.7138C89.7138 190.929 89.8755 191.321 90.1991 191.64C90.5227 191.954 90.9169 192.111 91.3817 192.111C91.924 192.111 92.3707 191.902 92.7216 191.482C93.0725 191.063 93.2753 190.487 93.33 189.753H90.5546V188.714H93.3163C93.2525 188.049 93.0497 187.515 92.7079 187.114C92.3661 186.709 91.924 186.506 91.3817 186.506ZM101.686 186.629H99.205V193H97.9404V186.629H95.5068V185.604H101.686V186.629ZM108.122 185.604H109.387V193H108.122V187.606L104.711 193H103.446V185.604H104.711V191.004L108.122 185.604ZM114.318 188.304L115.959 185.604H117.436L115.016 189.261L117.511 193H116.048L114.339 190.231L112.63 193H111.16L113.655 189.261L111.235 185.604H112.698L114.318 188.304ZM129.145 193H127.88V186.649H124.476V193H123.204V185.604H129.145V193ZM137.843 189.384C137.843 190.509 137.586 191.416 137.071 192.104C136.556 192.793 135.858 193.137 134.979 193.137C134.081 193.137 133.375 192.852 132.86 192.282V195.844H131.595V185.604H132.75L132.812 186.424C133.327 185.786 134.042 185.467 134.958 185.467C135.847 185.467 136.549 185.802 137.064 186.472C137.583 187.142 137.843 188.074 137.843 189.268V189.384ZM136.578 189.24C136.578 188.406 136.401 187.748 136.045 187.265C135.69 186.782 135.202 186.54 134.582 186.54C133.817 186.54 133.243 186.88 132.86 187.559V191.093C133.238 191.767 133.817 192.104 134.596 192.104C135.202 192.104 135.683 191.865 136.038 191.387C136.398 190.904 136.578 190.188 136.578 189.24ZM139.541 189.233C139.541 188.509 139.683 187.857 139.965 187.278C140.252 186.7 140.649 186.253 141.155 185.938C141.665 185.624 142.246 185.467 142.898 185.467C143.905 185.467 144.719 185.815 145.338 186.513C145.963 187.21 146.275 188.137 146.275 189.295V189.384C146.275 190.104 146.136 190.751 145.858 191.325C145.584 191.895 145.19 192.339 144.675 192.658C144.165 192.977 143.577 193.137 142.912 193.137C141.909 193.137 141.095 192.788 140.471 192.091C139.851 191.394 139.541 190.471 139.541 189.322V189.233ZM140.813 189.384C140.813 190.204 141.002 190.863 141.38 191.359C141.763 191.856 142.274 192.104 142.912 192.104C143.554 192.104 144.065 191.854 144.443 191.353C144.821 190.847 145.01 190.14 145.01 189.233C145.01 188.422 144.817 187.766 144.429 187.265C144.046 186.759 143.536 186.506 142.898 186.506C142.274 186.506 141.77 186.754 141.387 187.251C141.004 187.748 140.813 188.459 140.813 189.384ZM151.528 186.027C152.458 186.027 153.2 186.34 153.756 186.964C154.317 187.584 154.597 188.402 154.597 189.418V189.534C154.597 190.231 154.463 190.856 154.194 191.407C153.925 191.954 153.538 192.38 153.032 192.686C152.53 192.986 151.952 193.137 151.295 193.137C150.302 193.137 149.502 192.806 148.896 192.146C148.29 191.48 147.987 190.589 147.987 189.473V188.857C147.987 187.303 148.274 186.068 148.848 185.152C149.427 184.236 150.279 183.678 151.405 183.478C152.043 183.364 152.473 183.225 152.697 183.061C152.92 182.896 153.032 182.671 153.032 182.384H154.071C154.071 182.953 153.941 183.398 153.681 183.717C153.426 184.036 153.016 184.261 152.451 184.394L151.507 184.605C150.755 184.783 150.19 185.084 149.812 185.508C149.438 185.927 149.195 186.488 149.081 187.189C149.751 186.415 150.566 186.027 151.528 186.027ZM151.282 187.066C150.662 187.066 150.17 187.276 149.805 187.695C149.441 188.11 149.258 188.687 149.258 189.425V189.534C149.258 190.327 149.441 190.956 149.805 191.421C150.174 191.881 150.671 192.111 151.295 192.111C151.924 192.111 152.421 191.879 152.786 191.414C153.15 190.949 153.333 190.27 153.333 189.377C153.333 188.68 153.148 188.121 152.779 187.702C152.414 187.278 151.915 187.066 151.282 187.066ZM162.503 185.604V193H161.231V186.649H158.715L158.565 189.418C158.483 190.689 158.269 191.599 157.922 192.146C157.581 192.692 157.036 192.977 156.289 193H155.783V191.886L156.145 191.858C156.555 191.813 156.849 191.576 157.027 191.147C157.205 190.719 157.319 189.926 157.369 188.769L157.505 185.604H162.503ZM168.022 193.137C167.02 193.137 166.204 192.809 165.575 192.152C164.946 191.492 164.632 190.61 164.632 189.507V189.274C164.632 188.541 164.771 187.887 165.049 187.312C165.331 186.734 165.723 186.283 166.224 185.959C166.73 185.631 167.277 185.467 167.865 185.467C168.827 185.467 169.574 185.784 170.107 186.417C170.64 187.05 170.907 187.957 170.907 189.138V189.664H165.896C165.914 190.393 166.126 190.983 166.532 191.435C166.942 191.881 167.462 192.104 168.091 192.104C168.537 192.104 168.915 192.013 169.225 191.831C169.535 191.649 169.806 191.407 170.039 191.106L170.811 191.708C170.191 192.66 169.262 193.137 168.022 193.137ZM167.865 186.506C167.355 186.506 166.926 186.693 166.58 187.066C166.233 187.436 166.019 187.955 165.937 188.625H169.642V188.529C169.606 187.887 169.433 187.39 169.123 187.039C168.813 186.684 168.394 186.506 167.865 186.506ZM177.055 191.325L179.571 185.604H181.15V193H179.886V187.62L177.493 193H176.618L174.178 187.504V193H172.913V185.604H174.553L177.055 191.325ZM193.543 193H192.278V189.842H188.881V193H187.609V185.604H188.881V188.81H192.278V185.604H193.543V193ZM200.566 193C200.493 192.854 200.434 192.594 200.389 192.221C199.801 192.831 199.099 193.137 198.283 193.137C197.554 193.137 196.955 192.932 196.485 192.521C196.021 192.107 195.788 191.583 195.788 190.949C195.788 190.179 196.08 189.582 196.663 189.158C197.251 188.73 198.076 188.516 199.138 188.516H200.368V187.935C200.368 187.493 200.236 187.142 199.972 186.882C199.707 186.618 199.318 186.485 198.803 186.485C198.352 186.485 197.973 186.599 197.668 186.827C197.363 187.055 197.21 187.331 197.21 187.654H195.938C195.938 187.285 196.068 186.93 196.328 186.588C196.592 186.242 196.948 185.968 197.395 185.768C197.846 185.567 198.34 185.467 198.878 185.467C199.73 185.467 200.398 185.681 200.881 186.109C201.364 186.533 201.615 187.119 201.633 187.866V191.271C201.633 191.95 201.719 192.49 201.893 192.891V193H200.566ZM198.468 192.036C198.864 192.036 199.24 191.934 199.596 191.729C199.951 191.523 200.209 191.257 200.368 190.929V189.411H199.377C197.827 189.411 197.053 189.865 197.053 190.771C197.053 191.168 197.185 191.478 197.449 191.701C197.714 191.924 198.053 192.036 198.468 192.036ZM207.002 192.104C207.453 192.104 207.847 191.968 208.185 191.694C208.522 191.421 208.709 191.079 208.745 190.669H209.941C209.919 191.093 209.773 191.496 209.504 191.879C209.235 192.262 208.875 192.567 208.424 192.795C207.977 193.023 207.503 193.137 207.002 193.137C205.995 193.137 205.193 192.802 204.596 192.132C204.003 191.457 203.707 190.537 203.707 189.37V189.158C203.707 188.438 203.839 187.798 204.104 187.237C204.368 186.677 204.746 186.242 205.238 185.932C205.735 185.622 206.321 185.467 206.995 185.467C207.825 185.467 208.513 185.715 209.06 186.212C209.611 186.709 209.905 187.354 209.941 188.146H208.745C208.709 187.668 208.526 187.276 208.198 186.971C207.875 186.661 207.474 186.506 206.995 186.506C206.353 186.506 205.854 186.738 205.498 187.203C205.147 187.663 204.972 188.331 204.972 189.206V189.445C204.972 190.298 205.147 190.954 205.498 191.414C205.849 191.874 206.35 192.104 207.002 192.104ZM217.279 186.629H214.798V193H213.533V186.629H211.1V185.604H217.279V186.629ZM218.308 189.233C218.308 188.509 218.449 187.857 218.732 187.278C219.019 186.7 219.415 186.253 219.921 185.938C220.432 185.624 221.013 185.467 221.664 185.467C222.671 185.467 223.485 185.815 224.105 186.513C224.729 187.21 225.041 188.137 225.041 189.295V189.384C225.041 190.104 224.902 190.751 224.624 191.325C224.351 191.895 223.957 192.339 223.442 192.658C222.931 192.977 222.343 193.137 221.678 193.137C220.675 193.137 219.862 192.788 219.238 192.091C218.618 191.394 218.308 190.471 218.308 189.322V189.233ZM219.579 189.384C219.579 190.204 219.768 190.863 220.147 191.359C220.53 191.856 221.04 192.104 221.678 192.104C222.321 192.104 222.831 191.854 223.209 191.353C223.587 190.847 223.777 190.14 223.777 189.233C223.777 188.422 223.583 187.766 223.196 187.265C222.813 186.759 222.302 186.506 221.664 186.506C221.04 186.506 220.536 186.754 220.154 187.251C219.771 187.748 219.579 188.459 219.579 189.384ZM233.001 185.604V193H231.73V186.649H229.214L229.064 189.418C228.982 190.689 228.768 191.599 228.421 192.146C228.079 192.692 227.535 192.977 226.787 193H226.282V191.886L226.644 191.858C227.054 191.813 227.348 191.576 227.526 191.147C227.703 190.719 227.817 189.926 227.867 188.769L228.004 185.604H233.001ZM236.832 188.153H238.753C239.592 188.162 240.255 188.381 240.743 188.81C241.23 189.238 241.474 189.819 241.474 190.553C241.474 191.291 241.223 191.883 240.722 192.33C240.221 192.777 239.546 193 238.699 193H235.568V185.604H236.832V188.153ZM236.832 189.186V191.968H238.712C239.186 191.968 239.553 191.847 239.813 191.605C240.073 191.359 240.203 191.024 240.203 190.601C240.203 190.19 240.075 189.855 239.82 189.596C239.569 189.331 239.216 189.195 238.76 189.186H236.832ZM245.777 189.849H244.854V193H243.583V185.604H244.854V188.734H245.681L248.169 185.604H249.701L246.775 189.158L249.947 193H248.34L245.777 189.849ZM250.968 189.233C250.968 188.509 251.11 187.857 251.392 187.278C251.679 186.7 252.076 186.253 252.582 185.938C253.092 185.624 253.673 185.467 254.325 185.467C255.332 185.467 256.145 185.815 256.765 186.513C257.39 187.21 257.702 188.137 257.702 189.295V189.384C257.702 190.104 257.563 190.751 257.285 191.325C257.011 191.895 256.617 192.339 256.102 192.658C255.592 192.977 255.004 193.137 254.338 193.137C253.336 193.137 252.522 192.788 251.898 192.091C251.278 191.394 250.968 190.471 250.968 189.322V189.233ZM252.24 189.384C252.24 190.204 252.429 190.863 252.807 191.359C253.19 191.856 253.7 192.104 254.338 192.104C254.981 192.104 255.491 191.854 255.87 191.353C256.248 190.847 256.437 190.14 256.437 189.233C256.437 188.422 256.243 187.766 255.856 187.265C255.473 186.759 254.963 186.506 254.325 186.506C253.7 186.506 253.197 186.754 252.814 187.251C252.431 187.748 252.24 188.459 252.24 189.384ZM0.62207 213.233C0.62207 212.509 0.763346 211.857 1.0459 211.278C1.33301 210.7 1.72949 210.253 2.23535 209.938C2.74577 209.624 3.32682 209.467 3.97852 209.467C4.98568 209.467 5.79915 209.815 6.41895 210.513C7.04329 211.21 7.35547 212.137 7.35547 213.295V213.384C7.35547 214.104 7.21647 214.751 6.93848 215.325C6.66504 215.895 6.27083 216.339 5.75586 216.658C5.24544 216.977 4.65755 217.137 3.99219 217.137C2.98958 217.137 2.17611 216.788 1.55176 216.091C0.931966 215.394 0.62207 214.471 0.62207 213.322V213.233ZM1.89355 213.384C1.89355 214.204 2.08268 214.863 2.46094 215.359C2.84375 215.856 3.35417 216.104 3.99219 216.104C4.63477 216.104 5.14518 215.854 5.52344 215.353C5.90169 214.847 6.09082 214.14 6.09082 213.233C6.09082 212.422 5.89714 211.766 5.50977 211.265C5.12695 210.759 4.61654 210.506 3.97852 210.506C3.35417 210.506 2.85059 210.754 2.46777 211.251C2.08496 211.748 1.89355 212.459 1.89355 213.384ZM14.9464 217H13.6749V214.32C13.1189 214.466 12.5492 214.539 11.9659 214.539C11.0408 214.539 10.3344 214.302 9.84676 213.828C9.36368 213.354 9.11759 212.68 9.10848 211.805V209.597H10.3731V211.846C10.3959 212.949 10.9268 213.5 11.9659 213.5C12.5492 213.5 13.1189 213.427 13.6749 213.281V209.604H14.9464V217ZM20.466 217.137C19.4634 217.137 18.6476 216.809 18.0187 216.152C17.3898 215.492 17.0754 214.61 17.0754 213.507V213.274C17.0754 212.541 17.2143 211.887 17.4923 211.312C17.7749 210.734 18.1668 210.283 18.6681 209.959C19.174 209.631 19.7209 209.467 20.3088 209.467C21.2703 209.467 22.0177 209.784 22.5509 210.417C23.0841 211.05 23.3507 211.957 23.3507 213.138V213.664H18.34C18.3582 214.393 18.5701 214.983 18.9757 215.435C19.3859 215.881 19.9054 216.104 20.5343 216.104C20.981 216.104 21.3592 216.013 21.6691 215.831C21.979 215.649 22.2502 215.407 22.4826 215.106L23.255 215.708C22.6352 216.66 21.7056 217.137 20.466 217.137ZM20.3088 210.506C19.7983 210.506 19.3699 210.693 19.0236 211.066C18.6772 211.436 18.463 211.955 18.381 212.625H22.0861V212.529C22.0496 211.887 21.8765 211.39 21.5666 211.039C21.2567 210.684 20.8374 210.506 20.3088 210.506ZM25.3567 217V209.604H28.2414C29.2258 209.604 29.9801 209.777 30.5041 210.123C31.0328 210.465 31.2971 210.968 31.2971 211.634C31.2971 211.976 31.1946 212.285 30.9895 212.563C30.7844 212.837 30.4814 213.047 30.0803 213.192C30.5269 213.297 30.8847 213.502 31.1536 213.808C31.427 214.113 31.5637 214.478 31.5637 214.901C31.5637 215.58 31.3131 216.1 30.8118 216.46C30.315 216.82 29.6109 217 28.6995 217H25.3567ZM26.6213 213.753V215.981H28.7131C29.2418 215.981 29.636 215.883 29.8957 215.688C30.1601 215.492 30.2922 215.216 30.2922 214.86C30.2922 214.122 29.7499 213.753 28.6653 213.753H26.6213ZM26.6213 212.741H28.2551C29.44 212.741 30.0325 212.395 30.0325 211.702C30.0325 211.009 29.4719 210.652 28.3508 210.629H26.6213V212.741ZM38.4437 209.604H39.7083V217H38.4437V211.606L35.0325 217H33.7679V209.604H35.0325V215.004L38.4437 209.604ZM42.0971 215.968L42.5346 215.428C43.0268 214.79 43.307 213.833 43.3754 212.557L43.4916 209.604H48.2562V215.968H49.2064V219.174H47.9418V217H42.7807V219.174H41.516L41.5229 215.968H42.0971ZM43.5941 215.968H46.9916V210.772H44.7152L44.64 212.536C44.5626 214.008 44.2139 215.152 43.5941 215.968ZM57.0708 217H55.8061V213.842H52.4087V217H51.1372V209.604H52.4087V212.81H55.8061V209.604H57.0708V217ZM64.0943 217C64.0214 216.854 63.9621 216.594 63.9166 216.221C63.3287 216.831 62.6268 217.137 61.8111 217.137C61.0819 217.137 60.4826 216.932 60.0132 216.521C59.5484 216.107 59.316 215.583 59.316 214.949C59.316 214.179 59.6076 213.582 60.191 213.158C60.7789 212.73 61.6037 212.516 62.6656 212.516H63.8961V211.935C63.8961 211.493 63.7639 211.142 63.4996 210.882C63.2352 210.618 62.8456 210.485 62.3306 210.485C61.8795 210.485 61.5012 210.599 61.1959 210.827C60.8905 211.055 60.7379 211.331 60.7379 211.654H59.4664C59.4664 211.285 59.5962 210.93 59.856 210.588C60.1203 210.242 60.4758 209.968 60.9224 209.768C61.3736 209.567 61.8681 209.467 62.4058 209.467C63.258 209.467 63.9257 209.681 64.4087 210.109C64.8918 210.533 65.1425 211.119 65.1607 211.866V215.271C65.1607 215.95 65.2473 216.49 65.4205 216.891V217H64.0943ZM61.9957 216.036C62.3921 216.036 62.7681 215.934 63.1236 215.729C63.4791 215.523 63.7365 215.257 63.8961 214.929V213.411H62.9048C61.3554 213.411 60.5806 213.865 60.5806 214.771C60.5806 215.168 60.7128 215.478 60.9771 215.701C61.2414 215.924 61.5809 216.036 61.9957 216.036ZM67.5221 218.982L66.8043 218.49C67.2327 217.893 67.456 217.278 67.4743 216.645V215.503H68.7116V216.494C68.7116 216.954 68.5976 217.415 68.3698 217.875C68.1465 218.335 67.8639 218.704 67.5221 218.982ZM80.2088 217H78.9373V214.32C78.3813 214.466 77.8117 214.539 77.2283 214.539C76.3032 214.539 75.5968 214.302 75.1092 213.828C74.6261 213.354 74.38 212.68 74.3709 211.805V209.597H75.6355V211.846C75.6583 212.949 76.1893 213.5 77.2283 213.5C77.8117 213.5 78.3813 213.427 78.9373 213.281V209.604H80.2088V217ZM88.1552 210.629H85.6737V217H84.4091V210.629H81.9755V209.604H88.1552V210.629ZM89.1836 213.233C89.1836 212.509 89.3248 211.857 89.6074 211.278C89.8945 210.7 90.291 210.253 90.7968 209.938C91.3073 209.624 91.8883 209.467 92.54 209.467C93.5472 209.467 94.3606 209.815 94.9804 210.513C95.6048 211.21 95.917 212.137 95.917 213.295V213.384C95.917 214.104 95.778 214.751 95.5 215.325C95.2265 215.895 94.8323 216.339 94.3173 216.658C93.8069 216.977 93.219 217.137 92.5537 217.137C91.5511 217.137 90.7376 216.788 90.1132 216.091C89.4935 215.394 89.1836 214.471 89.1836 213.322V213.233ZM90.455 213.384C90.455 214.204 90.6442 214.863 91.0224 215.359C91.4052 215.856 91.9157 216.104 92.5537 216.104C93.1963 216.104 93.7067 215.854 94.0849 215.353C94.4632 214.847 94.6523 214.14 94.6523 213.233C94.6523 212.422 94.4586 211.766 94.0713 211.265C93.6884 210.759 93.178 210.506 92.54 210.506C91.9157 210.506 91.4121 210.754 91.0293 211.251C90.6464 211.748 90.455 212.459 90.455 213.384ZM108.064 213.384C108.064 214.509 107.806 215.416 107.291 216.104C106.776 216.793 106.079 217.137 105.199 217.137C104.302 217.137 103.595 216.852 103.08 216.282V219.844H101.816V209.604H102.971L103.032 210.424C103.547 209.786 104.263 209.467 105.179 209.467C106.067 209.467 106.769 209.802 107.284 210.472C107.804 211.142 108.064 212.074 108.064 213.268V213.384ZM106.799 213.24C106.799 212.406 106.621 211.748 106.266 211.265C105.91 210.782 105.423 210.54 104.803 210.54C104.037 210.54 103.463 210.88 103.08 211.559V215.093C103.458 215.767 104.037 216.104 104.817 216.104C105.423 216.104 105.903 215.865 106.259 215.387C106.619 214.904 106.799 214.188 106.799 213.24ZM113.166 217.137C112.164 217.137 111.348 216.809 110.719 216.152C110.09 215.492 109.776 214.61 109.776 213.507V213.274C109.776 212.541 109.915 211.887 110.193 211.312C110.475 210.734 110.867 210.283 111.368 209.959C111.874 209.631 112.421 209.467 113.009 209.467C113.971 209.467 114.718 209.784 115.251 210.417C115.784 211.05 116.051 211.957 116.051 213.138V213.664H111.04C111.058 214.393 111.27 214.983 111.676 215.435C112.086 215.881 112.606 216.104 113.235 216.104C113.681 216.104 114.059 216.013 114.369 215.831C114.679 215.649 114.95 215.407 115.183 215.106L115.955 215.708C115.335 216.66 114.406 217.137 113.166 217.137ZM113.009 210.506C112.499 210.506 112.07 210.693 111.724 211.066C111.377 211.436 111.163 211.955 111.081 212.625H114.786V212.529C114.75 211.887 114.577 211.39 114.267 211.039C113.957 210.684 113.538 210.506 113.009 210.506ZM122.507 217C122.434 216.854 122.375 216.594 122.329 216.221C121.741 216.831 121.04 217.137 120.224 217.137C119.495 217.137 118.895 216.932 118.426 216.521C117.961 216.107 117.729 215.583 117.729 214.949C117.729 214.179 118.02 213.582 118.604 213.158C119.192 212.73 120.017 212.516 121.078 212.516H122.309V211.935C122.309 211.493 122.177 211.142 121.912 210.882C121.648 210.618 121.258 210.485 120.743 210.485C120.292 210.485 119.914 210.599 119.609 210.827C119.303 211.055 119.151 211.331 119.151 211.654H117.879C117.879 211.285 118.009 210.93 118.269 210.588C118.533 210.242 118.889 209.968 119.335 209.768C119.786 209.567 120.281 209.467 120.819 209.467C121.671 209.467 122.338 209.681 122.822 210.109C123.305 210.533 123.555 211.119 123.574 211.866V215.271C123.574 215.95 123.66 216.49 123.833 216.891V217H122.507ZM120.408 216.036C120.805 216.036 121.181 215.934 121.536 215.729C121.892 215.523 122.149 215.257 122.309 214.929V213.411H121.318C119.768 213.411 118.993 213.865 118.993 214.771C118.993 215.168 119.126 215.478 119.39 215.701C119.654 215.924 119.994 216.036 120.408 216.036ZM132.039 209.604V217H130.768V210.649H128.252L128.102 213.418C128.02 214.689 127.806 215.599 127.459 216.146C127.118 216.692 126.573 216.977 125.826 217H125.32V215.886L125.682 215.858C126.092 215.813 126.386 215.576 126.564 215.147C126.742 214.719 126.855 213.926 126.906 212.769L127.042 209.604H132.039ZM139.275 209.604H140.539V217H139.275V211.606L135.864 217H134.599V209.604H135.864V215.004L139.275 209.604ZM147.057 211.627C147.057 211.281 146.925 211.007 146.661 210.807C146.396 210.602 146.034 210.499 145.574 210.499C145.127 210.499 144.753 210.615 144.453 210.848C144.156 211.08 144.008 211.354 144.008 211.668H142.751C142.751 211.025 143.019 210.499 143.557 210.089C144.095 209.679 144.767 209.474 145.574 209.474C146.44 209.474 147.114 209.66 147.597 210.034C148.08 210.403 148.322 210.932 148.322 211.62C148.322 211.953 148.222 212.258 148.021 212.536C147.82 212.814 147.536 213.035 147.167 213.199C148.028 213.491 148.459 214.065 148.459 214.922C148.459 215.601 148.196 216.139 147.672 216.535C147.148 216.932 146.449 217.13 145.574 217.13C144.722 217.13 144.017 216.923 143.461 216.508C142.91 216.089 142.634 215.523 142.634 214.812H143.892C143.892 215.173 144.052 215.482 144.371 215.742C144.694 215.997 145.095 216.125 145.574 216.125C146.057 216.125 146.446 216.013 146.743 215.79C147.039 215.567 147.187 215.277 147.187 214.922C147.187 214.507 147.062 214.211 146.811 214.033C146.565 213.851 146.18 213.76 145.656 213.76H144.391V212.693H145.765C146.626 212.671 147.057 212.315 147.057 211.627ZM155.086 217C155.013 216.854 154.953 216.594 154.908 216.221C154.32 216.831 153.618 217.137 152.802 217.137C152.073 217.137 151.474 216.932 151.004 216.521C150.54 216.107 150.307 215.583 150.307 214.949C150.307 214.179 150.599 213.582 151.182 213.158C151.77 212.73 152.595 212.516 153.657 212.516H154.887V211.935C154.887 211.493 154.755 211.142 154.491 210.882C154.226 210.618 153.837 210.485 153.322 210.485C152.871 210.485 152.492 210.599 152.187 210.827C151.882 211.055 151.729 211.331 151.729 211.654H150.458C150.458 211.285 150.587 210.93 150.847 210.588C151.112 210.242 151.467 209.968 151.914 209.768C152.365 209.567 152.859 209.467 153.397 209.467C154.249 209.467 154.917 209.681 155.4 210.109C155.883 210.533 156.134 211.119 156.152 211.866V215.271C156.152 215.95 156.239 216.49 156.412 216.891V217H155.086ZM152.987 216.036C153.383 216.036 153.759 215.934 154.115 215.729C154.47 215.523 154.728 215.257 154.887 214.929V213.411H153.896C152.347 213.411 151.572 213.865 151.572 214.771C151.572 215.168 151.704 215.478 151.968 215.701C152.233 215.924 152.572 216.036 152.987 216.036ZM158.664 209.604H159.935V215.968H163.34V209.604H164.604V215.968H165.486L165.363 219.194H164.228V217H158.664V209.604ZM172.058 209.604H173.323V217H172.058V211.606L168.647 217H167.383V209.604H168.647V215.004L172.058 209.604ZM181.427 209.604V217H180.155V214.122H178.248L176.505 217H175.138L176.997 213.931C176.523 213.757 176.158 213.491 175.903 213.131C175.653 212.766 175.527 212.342 175.527 211.859C175.527 211.185 175.78 210.643 176.286 210.232C176.792 209.818 177.469 209.608 178.316 209.604H181.427ZM176.799 211.873C176.799 212.233 176.922 212.525 177.168 212.748C177.414 212.967 177.74 213.078 178.145 213.083H180.155V210.629H178.337C177.867 210.629 177.494 210.745 177.216 210.978C176.938 211.205 176.799 211.504 176.799 211.873ZM193.819 217H192.555V210.649H189.15V217H187.879V209.604H193.819V217ZM202.333 209.604V217H201.062V210.649H198.546L198.396 213.418C198.314 214.689 198.099 215.599 197.753 216.146C197.411 216.692 196.867 216.977 196.119 217H195.613V215.886L195.976 215.858C196.386 215.813 196.68 215.576 196.857 215.147C197.035 214.719 197.149 213.926 197.199 212.769L197.336 209.604H202.333ZM209.35 217C209.277 216.854 209.218 216.594 209.172 216.221C208.584 216.831 207.882 217.137 207.067 217.137C206.337 217.137 205.738 216.932 205.269 216.521C204.804 216.107 204.571 215.583 204.571 214.949C204.571 214.179 204.863 213.582 205.446 213.158C206.034 212.73 206.859 212.516 207.921 212.516H209.152V211.935C209.152 211.493 209.019 211.142 208.755 210.882C208.491 210.618 208.101 210.485 207.586 210.485C207.135 210.485 206.757 210.599 206.451 210.827C206.146 211.055 205.993 211.331 205.993 211.654H204.722C204.722 211.285 204.852 210.93 205.111 210.588C205.376 210.242 205.731 209.968 206.178 209.768C206.629 209.567 207.124 209.467 207.661 209.467C208.513 209.467 209.181 209.681 209.664 210.109C210.147 210.533 210.398 211.119 210.416 211.866V215.271C210.416 215.95 210.503 216.49 210.676 216.891V217H209.35ZM207.251 216.036C207.648 216.036 208.024 215.934 208.379 215.729C208.735 215.523 208.992 215.257 209.152 214.929V213.411H208.16C206.611 213.411 205.836 213.865 205.836 214.771C205.836 215.168 205.968 215.478 206.233 215.701C206.497 215.924 206.836 216.036 207.251 216.036ZM218.862 217H217.597V213.842H214.199V217H212.928V209.604H214.199V212.81H217.597V209.604H218.862V217ZM220.984 213.233C220.984 212.509 221.125 211.857 221.408 211.278C221.695 210.7 222.091 210.253 222.597 209.938C223.107 209.624 223.688 209.467 224.34 209.467C225.347 209.467 226.161 209.815 226.781 210.513C227.405 211.21 227.717 212.137 227.717 213.295V213.384C227.717 214.104 227.578 214.751 227.3 215.325C227.027 215.895 226.632 216.339 226.117 216.658C225.607 216.977 225.019 217.137 224.354 217.137C223.351 217.137 222.538 216.788 221.913 216.091C221.294 215.394 220.984 214.471 220.984 213.322V213.233ZM222.255 213.384C222.255 214.204 222.444 214.863 222.823 215.359C223.205 215.856 223.716 216.104 224.354 216.104C224.996 216.104 225.507 215.854 225.885 215.353C226.263 214.847 226.452 214.14 226.452 213.233C226.452 212.422 226.259 211.766 225.871 211.265C225.489 210.759 224.978 210.506 224.34 210.506C223.716 210.506 223.212 210.754 222.829 211.251C222.447 211.748 222.255 212.459 222.255 213.384ZM229.839 217V209.604H232.724C233.708 209.604 234.463 209.777 234.987 210.123C235.515 210.465 235.78 210.968 235.78 211.634C235.78 211.976 235.677 212.285 235.472 212.563C235.267 212.837 234.964 213.047 234.563 213.192C235.01 213.297 235.367 213.502 235.636 213.808C235.91 214.113 236.046 214.478 236.046 214.901C236.046 215.58 235.796 216.1 235.294 216.46C234.798 216.82 234.093 217 233.182 217H229.839ZM231.104 213.753V215.981H233.196C233.724 215.981 234.119 215.883 234.378 215.688C234.643 215.492 234.775 215.216 234.775 214.86C234.775 214.122 234.232 213.753 233.148 213.753H231.104ZM231.104 212.741H232.738C233.923 212.741 234.515 212.395 234.515 211.702C234.515 211.009 233.954 210.652 232.833 210.629H231.104V212.741ZM239.522 212.153H241.443C242.281 212.162 242.944 212.381 243.432 212.81C243.92 213.238 244.164 213.819 244.164 214.553C244.164 215.291 243.913 215.883 243.412 216.33C242.91 216.777 242.236 217 241.388 217H238.257V209.604H239.522V212.153ZM246.802 217H245.531V209.604H246.802V217ZM239.522 213.186V215.968H241.402C241.876 215.968 242.243 215.847 242.502 215.605C242.762 215.359 242.892 215.024 242.892 214.601C242.892 214.19 242.764 213.855 242.509 213.596C242.259 213.331 241.905 213.195 241.45 213.186H239.522ZM251.912 212.304L253.552 209.604H255.029L252.609 213.261L255.104 217H253.641L251.932 214.231L250.223 217H248.753L251.249 213.261L248.829 209.604H250.292L251.912 212.304ZM5.02441 235.627C5.02441 235.281 4.89225 235.007 4.62793 234.807C4.36361 234.602 4.0013 234.499 3.54102 234.499C3.0944 234.499 2.7207 234.615 2.41992 234.848C2.1237 235.08 1.97559 235.354 1.97559 235.668H0.717773C0.717773 235.025 0.986654 234.499 1.52441 234.089C2.06217 233.679 2.73438 233.474 3.54102 233.474C4.4069 233.474 5.08138 233.66 5.56445 234.034C6.04753 234.403 6.28906 234.932 6.28906 235.62C6.28906 235.953 6.1888 236.258 5.98828 236.536C5.78776 236.814 5.50293 237.035 5.13379 237.199C5.99512 237.491 6.42578 238.065 6.42578 238.922C6.42578 239.601 6.16374 240.139 5.63965 240.535C5.11556 240.932 4.41602 241.13 3.54102 241.13C2.6888 241.13 1.9847 240.923 1.42871 240.508C0.877279 240.089 0.601562 239.523 0.601562 238.812H1.85938C1.85938 239.173 2.01888 239.482 2.33789 239.742C2.66146 239.997 3.0625 240.125 3.54102 240.125C4.02409 240.125 4.41374 240.013 4.70996 239.79C5.00618 239.567 5.1543 239.277 5.1543 238.922C5.1543 238.507 5.02897 238.211 4.77832 238.033C4.53223 237.851 4.14714 237.76 3.62305 237.76H2.3584V236.693H3.73242C4.59375 236.671 5.02441 236.315 5.02441 235.627ZM13.0528 241C12.9799 240.854 12.9207 240.594 12.8751 240.221C12.2872 240.831 11.5854 241.137 10.7696 241.137C10.0404 241.137 9.44116 240.932 8.97176 240.521C8.50691 240.107 8.27449 239.583 8.27449 238.949C8.27449 238.179 8.56616 237.582 9.14949 237.158C9.73738 236.73 10.5623 236.516 11.6241 236.516H12.8546V235.935C12.8546 235.493 12.7224 235.142 12.4581 234.882C12.1938 234.618 11.8041 234.485 11.2891 234.485C10.838 234.485 10.4597 234.599 10.1544 234.827C9.84904 235.055 9.69637 235.331 9.69637 235.654H8.42488C8.42488 235.285 8.55477 234.93 8.81453 234.588C9.07885 234.242 9.43432 233.968 9.88094 233.768C10.3321 233.567 10.8266 233.467 11.3643 233.467C12.2165 233.467 12.8842 233.681 13.3673 234.109C13.8503 234.533 14.101 235.119 14.1192 235.866V239.271C14.1192 239.95 14.2058 240.49 14.379 240.891V241H13.0528ZM10.9542 240.036C11.3507 240.036 11.7266 239.934 12.0821 239.729C12.4376 239.523 12.6951 239.257 12.8546 238.929V237.411H11.8634C10.3139 237.411 9.53914 237.865 9.53914 238.771C9.53914 239.168 9.6713 239.478 9.93563 239.701C10.1999 239.924 10.5395 240.036 10.9542 240.036ZM16.4601 239.968L16.8976 239.428C17.3898 238.79 17.6701 237.833 17.7384 236.557L17.8546 233.604H22.6193V239.968H23.5695V243.174H22.3048V241H17.1437V243.174H15.8791L15.8859 239.968H16.4601ZM17.9572 239.968H21.3546V234.772H19.0783L19.0031 236.536C18.9256 238.008 18.577 239.152 17.9572 239.968ZM29.9573 241C29.8843 240.854 29.8251 240.594 29.7795 240.221C29.1916 240.831 28.4898 241.137 27.6741 241.137C26.9449 241.137 26.3456 240.932 25.8762 240.521C25.4114 240.107 25.1789 239.583 25.1789 238.949C25.1789 238.179 25.4706 237.582 26.0539 237.158C26.6418 236.73 27.4667 236.516 28.5286 236.516H29.759V235.935C29.759 235.493 29.6269 235.142 29.3625 234.882C29.0982 234.618 28.7086 234.485 28.1936 234.485C27.7424 234.485 27.3642 234.599 27.0588 234.827C26.7535 235.055 26.6008 235.331 26.6008 235.654H25.3293C25.3293 235.285 25.4592 234.93 25.719 234.588C25.9833 234.242 26.3388 233.968 26.7854 233.768C27.2366 233.567 27.731 233.467 28.2688 233.467C29.121 233.467 29.7886 233.681 30.2717 234.109C30.7548 234.533 31.0054 235.119 31.0237 235.866V239.271C31.0237 239.95 31.1103 240.49 31.2834 240.891V241H29.9573ZM27.8586 240.036C28.2551 240.036 28.6311 239.934 28.9866 239.729C29.342 239.523 29.5995 239.257 29.759 238.929V237.411H28.7678C27.2183 237.411 26.4436 237.865 26.4436 238.771C26.4436 239.168 26.5758 239.478 26.8401 239.701C27.1044 239.924 27.4439 240.036 27.8586 240.036ZM39.4691 241H38.2044V237.842H34.807V241H33.5355V233.604H34.807V236.81H38.2044V233.604H39.4691V241ZM46.7113 233.604H47.976V241H46.7113V235.606L43.3002 241H42.0355V233.604H43.3002V239.004L46.7113 233.604ZM55.2114 233.604H56.4761V241H55.2114V235.606L51.8003 241H50.5356V233.604H51.8003V239.004L55.2114 233.604ZM55.5532 230.91C55.5532 231.462 55.3641 231.906 54.9858 232.243C54.6121 232.576 54.1199 232.742 53.5093 232.742C52.8986 232.742 52.4041 232.574 52.0259 232.236C51.6476 231.899 51.4585 231.457 51.4585 230.91H52.4907C52.4907 231.229 52.5773 231.48 52.7505 231.662C52.9236 231.84 53.1766 231.929 53.5093 231.929C53.8283 231.929 54.0766 231.84 54.2544 231.662C54.4367 231.484 54.5278 231.234 54.5278 230.91H55.5532ZM58.9537 240.337C58.9537 240.118 59.0175 239.936 59.1451 239.79C59.2772 239.644 59.4732 239.571 59.733 239.571C59.9927 239.571 60.1887 239.644 60.3209 239.79C60.4576 239.936 60.5259 240.118 60.5259 240.337C60.5259 240.547 60.4576 240.722 60.3209 240.863C60.1887 241.005 59.9927 241.075 59.733 241.075C59.4732 241.075 59.2772 241.005 59.1451 240.863C59.0175 240.722 58.9537 240.547 58.9537 240.337Z" fill="#757575"/>
</svg>
