<svg width="278" height="251" viewBox="0 0 278 251" fill="none" xmlns="http://www.w3.org/2000/svg">
<rect width="278" height="120" rx="4" fill="#F5F4FA"/>
<g clip-path="url(#clip0)">
<path d="M136.65 57.7351H138.982V68.2296H136.65V57.7351Z" fill="#2196F3"/>
<path d="M145.978 62.3993H148.31V68.2296H145.978V62.3993Z" fill="#2196F3"/>
<path d="M127.321 65.8975H129.653V68.2296H127.321V65.8975Z" fill="#2196F3"/>
<path d="M120.325 64.7314H122.657V68.2295H120.325V64.7314Z" fill="#2196F3"/>
<path d="M107.498 86.8865H163.469C165.401 86.8865 166.967 85.3202 166.967 83.3883V78.7241C166.967 76.7922 165.401 75.2259 163.469 75.2259H162.303V46.1468L168.926 39.8724C170.463 40.6303 172.324 40.1702 173.33 38.7815C174.337 37.3934 174.196 35.4821 172.997 34.2568C171.798 33.0315 169.89 32.8488 168.48 33.8241C167.07 34.8 166.569 36.6498 167.293 38.2036L162.303 42.9345V40.2442C162.303 38.3124 160.736 36.7461 158.805 36.7461H112.162C110.231 36.7461 108.664 38.3124 108.664 40.2442V75.2259H107.498C105.566 75.2259 104 76.7922 104 78.7241V83.3883C104 85.3202 105.566 86.8865 107.498 86.8865ZM170.465 35.58C171.109 35.58 171.631 36.1021 171.631 36.7461C171.631 37.39 171.109 37.9121 170.465 37.9121C169.821 37.9121 169.299 37.39 169.299 36.7461C169.299 36.1021 169.821 35.58 170.465 35.58ZM110.996 40.2442C110.996 39.6003 111.518 39.0782 112.162 39.0782H158.805C159.449 39.0782 159.971 39.6003 159.971 40.2442V45.1413L157.639 47.3573V42.5763C157.639 41.9324 157.116 41.4103 156.473 41.4103H114.495C113.851 41.4103 113.328 41.9324 113.328 42.5763V71.7277C113.328 72.3717 113.851 72.8938 114.495 72.8938H156.473C157.116 72.8938 157.639 72.3717 157.639 71.7277V50.5651L159.971 48.3554V75.2259H110.996V40.2442ZM121.491 55.403C119.913 55.3984 118.528 56.4495 118.108 57.9702C117.689 59.491 118.338 61.104 119.695 61.9091C121.051 62.7142 122.779 62.512 123.913 61.4149L127.966 63.4486C128.437 63.6844 129.008 63.5739 129.358 63.1805L137.974 53.4871L146.444 59.8337C146.899 60.1742 147.533 60.1378 147.945 59.7478L155.306 52.7748V70.5617H115.661V43.7424H155.306V49.5619L147.056 57.3747L138.515 50.9716C138.03 50.6084 137.348 50.6767 136.944 51.1293L128.21 60.9571L124.945 59.3242C124.969 59.1841 124.983 59.0429 124.989 58.9011C124.989 56.9693 123.423 55.403 121.491 55.403ZM122.657 58.9011C122.657 59.5451 122.135 60.0672 121.491 60.0672C120.847 60.0672 120.325 59.5451 120.325 58.9011C120.325 58.2572 120.847 57.7351 121.491 57.7351C122.135 57.7351 122.657 58.2572 122.657 58.9011ZM129.653 77.558H141.314V78.7241C141.314 79.368 140.792 79.8901 140.148 79.8901H130.819C130.175 79.8901 129.653 79.368 129.653 78.7241V77.558ZM106.332 78.7241C106.332 78.0801 106.854 77.558 107.498 77.558H127.321V78.7241C127.321 80.6559 128.887 82.2223 130.819 82.2223H140.148C142.08 82.2223 143.646 80.6559 143.646 78.7241V77.558H163.469C164.113 77.558 164.635 78.0801 164.635 78.7241V83.3883C164.635 84.0323 164.113 84.5544 163.469 84.5544H107.498C106.854 84.5544 106.332 84.0323 106.332 83.3883V78.7241Z" fill="#212121"/>
</g>
<path d="M8.99609 163H6.93848V154.708H2.95312V163H0.902344V153.047H8.99609V163ZM19.3145 153.047V163H17.2569V154.708H14.6046L14.4405 158.222C14.3721 159.407 14.2218 160.341 13.9893 161.024C13.7569 161.703 13.4174 162.202 12.9708 162.521C12.5242 162.836 11.9135 162.995 11.1388 163H10.6055V161.353L10.9473 161.318C11.4623 161.25 11.8292 160.954 12.0479 160.43C12.2712 159.901 12.4125 158.962 12.4718 157.613L12.6427 153.047H19.3145ZM27.2677 160.949H23.672L22.9884 163H20.8078L24.5129 153.047H26.4132L30.1388 163H27.9582L27.2677 160.949ZM24.2257 159.288H26.714L25.463 155.562L24.2257 159.288ZM39.5891 163H37.5383V158.734H33.5393V163H31.4885V153.047H33.5393V157.08H37.5383V153.047H39.5891V163ZM47.7747 153.047H49.8323V163H47.7747V156.39L43.7894 163H41.7386V153.047H43.7894V159.671L47.7747 153.047ZM54.0805 159.493V163H52.0297V153.047H55.9125C56.6599 153.047 57.3161 153.184 57.8812 153.457C58.4509 153.73 58.8884 154.12 59.1937 154.626C59.4991 155.127 59.6518 155.699 59.6518 156.342C59.6518 157.317 59.3168 158.087 58.6469 158.652C57.9815 159.213 57.0587 159.493 55.8783 159.493H54.0805ZM54.0805 157.832H55.9125C56.4548 157.832 56.8673 157.704 57.1498 157.449C57.4369 157.194 57.5805 156.829 57.5805 156.355C57.5805 155.868 57.4369 155.474 57.1498 155.173C56.8627 154.872 56.4662 154.717 55.9604 154.708H54.0805V157.832ZM69.6626 158.249C69.6626 159.229 69.4894 160.088 69.143 160.826C68.7967 161.564 68.2999 162.134 67.6528 162.535C67.0102 162.936 66.272 163.137 65.438 163.137C64.6131 163.137 63.8771 162.938 63.23 162.542C62.5828 162.146 62.0815 161.58 61.7261 160.847C61.3706 160.108 61.1906 159.261 61.186 158.304V157.812C61.186 156.832 61.3615 155.97 61.7124 155.228C62.0679 154.48 62.5669 153.908 63.2095 153.512C63.8566 153.111 64.5949 152.91 65.4243 152.91C66.2537 152.91 66.9897 153.111 67.6323 153.512C68.2794 153.908 68.7785 154.48 69.1294 155.228C69.4848 155.97 69.6626 156.829 69.6626 157.805V158.249ZM67.5845 157.798C67.5845 156.754 67.3976 155.961 67.0239 155.419C66.6502 154.877 66.117 154.605 65.4243 154.605C64.7361 154.605 64.2052 154.874 63.8315 155.412C63.4578 155.945 63.2687 156.729 63.2641 157.764V158.249C63.2641 159.265 63.451 160.054 63.8247 160.614C64.1984 161.175 64.7361 161.455 65.438 161.455C66.1261 161.455 66.6548 161.186 67.0239 160.648C67.393 160.106 67.5799 159.318 67.5845 158.283V157.798ZM71.5728 163V153.047H75.0591C76.2668 153.047 77.1828 153.279 77.8072 153.744C78.4315 154.204 78.7437 154.881 78.7437 155.774C78.7437 156.262 78.6184 156.693 78.3677 157.066C78.1171 157.436 77.7685 157.707 77.3218 157.88C77.8323 158.007 78.2333 158.265 78.525 158.652C78.8212 159.04 78.9693 159.514 78.9693 160.074C78.9693 161.031 78.664 161.756 78.0533 162.248C77.4426 162.74 76.5722 162.991 75.442 163H71.5728ZM73.6236 158.666V161.353H75.3804C75.8635 161.353 76.2395 161.239 76.5084 161.011C76.7818 160.778 76.9185 160.459 76.9185 160.054C76.9185 159.142 76.4468 158.68 75.5035 158.666H73.6236ZM73.6236 157.217H75.1412C76.1757 157.199 76.6929 156.786 76.6929 155.979C76.6929 155.528 76.5608 155.205 76.2964 155.009C76.0367 154.808 75.6242 154.708 75.0591 154.708H73.6236V157.217ZM86.5534 160.949H82.9577L82.2741 163H80.0934L83.7985 153.047H85.6989L89.4245 163H87.2438L86.5534 160.949ZM83.5114 159.288H85.9996L84.7487 155.562L83.5114 159.288ZM98.8747 163H96.8239V158.734H92.8249V163H90.7741V153.047H92.8249V157.08H96.8239V153.047H98.8747V163ZM107.06 153.047H109.118V163H107.06V156.39L103.075 163H101.024V153.047H103.075V159.671L107.06 153.047ZM117.304 158.687H113.366V161.353H117.987V163H111.315V153.047H117.974V154.708H113.366V157.08H117.304V158.687Z" fill="#212121"/>
<path d="M2.46777 189.104V193H1.15527V183.047H4.82617C5.91536 183.047 6.76758 183.325 7.38281 183.881C8.0026 184.437 8.3125 185.173 8.3125 186.089C8.3125 187.055 8.00944 187.8 7.40332 188.324C6.80176 188.844 5.93815 189.104 4.8125 189.104H2.46777ZM2.46777 188.03H4.82617C5.52799 188.03 6.06576 187.866 6.43945 187.538C6.81315 187.205 7 186.727 7 186.103C7 185.51 6.81315 185.036 6.43945 184.681C6.06576 184.325 5.55306 184.141 4.90137 184.127H2.46777V188.03ZM14.6934 193C14.6205 192.854 14.5613 192.594 14.5157 192.221C13.9278 192.831 13.226 193.137 12.4102 193.137C11.6811 193.137 11.0818 192.932 10.6124 192.521C10.1475 192.107 9.91512 191.583 9.91512 190.949C9.91512 190.179 10.2068 189.582 10.7901 189.158C11.378 188.73 12.2029 188.516 13.2647 188.516H14.4952V187.935C14.4952 187.493 14.363 187.142 14.0987 186.882C13.8344 186.618 13.4447 186.485 12.9298 186.485C12.4786 186.485 12.1003 186.599 11.795 186.827C11.4897 187.055 11.337 187.331 11.337 187.654H10.0655C10.0655 187.285 10.1954 186.93 10.4552 186.588C10.7195 186.242 11.0749 185.968 11.5216 185.768C11.9727 185.567 12.4672 185.467 13.005 185.467C13.8572 185.467 14.5248 185.681 15.0079 186.109C15.491 186.533 15.7416 187.119 15.7598 187.866V191.271C15.7598 191.95 15.8464 192.49 16.0196 192.891V193H14.6934ZM12.5948 192.036C12.9913 192.036 13.3673 191.934 13.7227 191.729C14.0782 191.523 14.3357 191.257 14.4952 190.929V189.411H13.504C11.9545 189.411 11.1798 189.865 11.1798 190.771C11.1798 191.168 11.3119 191.478 11.5763 191.701C11.8406 191.924 12.1801 192.036 12.5948 192.036ZM18.2785 193V185.604H21.1632C22.1476 185.604 22.9018 185.777 23.4259 186.123C23.9546 186.465 24.2189 186.968 24.2189 187.634C24.2189 187.976 24.1164 188.285 23.9113 188.563C23.7062 188.837 23.4032 189.047 23.0021 189.192C23.4487 189.297 23.8065 189.502 24.0754 189.808C24.3488 190.113 24.4855 190.478 24.4855 190.901C24.4855 191.58 24.2349 192.1 23.7336 192.46C23.2368 192.82 22.5327 193 21.6213 193H18.2785ZM19.5431 189.753V191.981H21.6349C22.1636 191.981 22.5578 191.883 22.8175 191.688C23.0819 191.492 23.214 191.216 23.214 190.86C23.214 190.122 22.6717 189.753 21.5871 189.753H19.5431ZM19.5431 188.741H21.1769C22.3618 188.741 22.9543 188.395 22.9543 187.702C22.9543 187.009 22.3937 186.652 21.2726 186.629H19.5431V188.741ZM32.6233 193H31.3586V189.842H27.9612V193H26.6897V185.604H27.9612V188.81H31.3586V185.604H32.6233V193ZM36.4613 188.153H38.3821C39.2207 188.162 39.8838 188.381 40.3714 188.81C40.859 189.238 41.1029 189.819 41.1029 190.553C41.1029 191.291 40.8522 191.883 40.3509 192.33C39.8496 192.777 39.1751 193 38.3275 193H35.1966V185.604H36.4613V188.153ZM43.7415 193H42.47V185.604H43.7415V193ZM36.4613 189.186V191.968H38.3411C38.8151 191.968 39.182 191.847 39.4417 191.605C39.7015 191.359 39.8314 191.024 39.8314 190.601C39.8314 190.19 39.7038 189.855 39.4486 189.596C39.1979 189.331 38.8447 189.195 38.389 189.186H36.4613ZM50.6283 191.325L53.1439 185.604H54.723V193H53.4584V187.62L51.0658 193H50.1908L47.7504 187.504V193H46.4857V185.604H48.1264L50.6283 191.325ZM60.7379 189.233C60.7379 188.509 60.8791 187.857 61.1617 187.278C61.4488 186.7 61.8453 186.253 62.3511 185.938C62.8615 185.624 63.4426 185.467 64.0943 185.467C65.1015 185.467 65.9149 185.815 66.5347 186.513C67.1591 187.21 67.4712 188.137 67.4712 189.295V189.384C67.4712 190.104 67.3323 190.751 67.0543 191.325C66.7808 191.895 66.3866 192.339 65.8716 192.658C65.3612 192.977 64.7733 193.137 64.108 193.137C63.1054 193.137 62.2919 192.788 61.6675 192.091C61.0477 191.394 60.7379 190.471 60.7379 189.322V189.233ZM62.0093 189.384C62.0093 190.204 62.1985 190.863 62.5767 191.359C62.9595 191.856 63.4699 192.104 64.108 192.104C64.7505 192.104 65.261 191.854 65.6392 191.353C66.0175 190.847 66.2066 190.14 66.2066 189.233C66.2066 188.422 66.0129 187.766 65.6255 187.265C65.2427 186.759 64.7323 186.506 64.0943 186.506C63.4699 186.506 62.9664 186.754 62.5836 187.251C62.2007 187.748 62.0093 188.459 62.0093 189.384ZM72.7243 186.027C73.6539 186.027 74.3968 186.34 74.9528 186.964C75.5133 187.584 75.7936 188.402 75.7936 189.418V189.534C75.7936 190.231 75.6592 190.856 75.3903 191.407C75.1214 191.954 74.734 192.38 74.2282 192.686C73.7269 192.986 73.1481 193.137 72.4918 193.137C71.4983 193.137 70.6985 192.806 70.0924 192.146C69.4863 191.48 69.1832 190.589 69.1832 189.473V188.857C69.1832 187.303 69.4704 186.068 70.0446 185.152C70.6233 184.236 71.4756 183.678 72.6012 183.478C73.2392 183.364 73.6699 183.225 73.8932 183.061C74.1165 182.896 74.2282 182.671 74.2282 182.384H75.2672C75.2672 182.953 75.1373 183.398 74.8776 183.717C74.6224 184.036 74.2122 184.261 73.6471 184.394L72.7038 184.605C71.9518 184.783 71.3867 185.084 71.0084 185.508C70.6347 185.927 70.3909 186.488 70.277 187.189C70.9469 186.415 71.7627 186.027 72.7243 186.027ZM72.4782 187.066C71.8584 187.066 71.3662 187.276 71.0016 187.695C70.637 188.11 70.4547 188.687 70.4547 189.425V189.534C70.4547 190.327 70.637 190.956 71.0016 191.421C71.3707 191.881 71.8675 192.111 72.4918 192.111C73.1207 192.111 73.6175 191.879 73.9821 191.414C74.3467 190.949 74.5289 190.27 74.5289 189.377C74.5289 188.68 74.3444 188.121 73.9752 187.702C73.6107 187.278 73.1116 187.066 72.4782 187.066ZM83.7605 189.384C83.7605 190.509 83.503 191.416 82.988 192.104C82.473 192.793 81.7758 193.137 80.8962 193.137C79.9984 193.137 79.292 192.852 78.7771 192.282V195.844H77.5124V185.604H78.6677L78.7292 186.424C79.2442 185.786 79.9597 185.467 80.8757 185.467C81.7644 185.467 82.4662 185.802 82.9812 186.472C83.5007 187.142 83.7605 188.074 83.7605 189.268V189.384ZM82.4958 189.24C82.4958 188.406 82.3181 187.748 81.9626 187.265C81.6071 186.782 81.1195 186.54 80.4997 186.54C79.7341 186.54 79.1599 186.88 78.7771 187.559V191.093C79.1553 191.767 79.7341 192.104 80.5134 192.104C81.1195 192.104 81.6003 191.865 81.9558 191.387C82.3158 190.904 82.4958 190.188 82.4958 189.24ZM90.3602 193C90.2872 192.854 90.228 192.594 90.1824 192.221C89.5945 192.831 88.8927 193.137 88.077 193.137C87.3478 193.137 86.7485 192.932 86.2791 192.521C85.8143 192.107 85.5818 191.583 85.5818 190.949C85.5818 190.179 85.8735 189.582 86.4568 189.158C87.0447 188.73 87.8696 188.516 88.9314 188.516H90.1619V187.935C90.1619 187.493 90.0297 187.142 89.7654 186.882C89.5011 186.618 89.1115 186.485 88.5965 186.485C88.1453 186.485 87.7671 186.599 87.4617 186.827C87.1564 187.055 87.0037 187.331 87.0037 187.654H85.7322C85.7322 187.285 85.8621 186.93 86.1219 186.588C86.3862 186.242 86.7417 185.968 87.1883 185.768C87.6395 185.567 88.1339 185.467 88.6717 185.467C89.5239 185.467 90.1915 185.681 90.6746 186.109C91.1577 186.533 91.4083 187.119 91.4266 187.866V191.271C91.4266 191.95 91.5131 192.49 91.6863 192.891V193H90.3602ZM88.2615 192.036C88.658 192.036 89.034 191.934 89.3895 191.729C89.7449 191.523 90.0024 191.257 90.1619 190.929V189.411H89.1707C87.6212 189.411 86.8465 189.865 86.8465 190.771C86.8465 191.168 86.9786 191.478 87.243 191.701C87.5073 191.924 87.8468 192.036 88.2615 192.036ZM97.8964 187.627C97.8964 187.281 97.7642 187.007 97.4999 186.807C97.2356 186.602 96.8733 186.499 96.413 186.499C95.9664 186.499 95.5927 186.615 95.2919 186.848C94.9957 187.08 94.8475 187.354 94.8475 187.668H93.5897C93.5897 187.025 93.8586 186.499 94.3964 186.089C94.9341 185.679 95.6063 185.474 96.413 185.474C97.2789 185.474 97.9533 185.66 98.4364 186.034C98.9195 186.403 99.161 186.932 99.161 187.62C99.161 187.953 99.0608 188.258 98.8602 188.536C98.6597 188.814 98.3749 189.035 98.0057 189.199C98.8671 189.491 99.2977 190.065 99.2977 190.922C99.2977 191.601 99.0357 192.139 98.5116 192.535C97.9875 192.932 97.288 193.13 96.413 193.13C95.5608 193.13 94.8567 192.923 94.3007 192.508C93.7492 192.089 93.4735 191.523 93.4735 190.812H94.7313C94.7313 191.173 94.8908 191.482 95.2098 191.742C95.5334 191.997 95.9345 192.125 96.413 192.125C96.896 192.125 97.2857 192.013 97.5819 191.79C97.8781 191.567 98.0263 191.277 98.0263 190.922C98.0263 190.507 97.9009 190.211 97.6503 190.033C97.4042 189.851 97.0191 189.76 96.495 189.76H95.2304V188.693H96.6044C97.4657 188.671 97.8964 188.315 97.8964 187.627ZM101.023 189.233C101.023 188.509 101.165 187.857 101.447 187.278C101.734 186.7 102.131 186.253 102.637 185.938C103.147 185.624 103.728 185.467 104.38 185.467C105.387 185.467 106.2 185.815 106.82 186.513C107.445 187.21 107.757 188.137 107.757 189.295V189.384C107.757 190.104 107.618 190.751 107.34 191.325C107.066 191.895 106.672 192.339 106.157 192.658C105.647 192.977 105.059 193.137 104.394 193.137C103.391 193.137 102.577 192.788 101.953 192.091C101.333 191.394 101.023 190.471 101.023 189.322V189.233ZM102.295 189.384C102.295 190.204 102.484 190.863 102.862 191.359C103.245 191.856 103.755 192.104 104.394 192.104C105.036 192.104 105.547 191.854 105.925 191.353C106.303 190.847 106.492 190.14 106.492 189.233C106.492 188.422 106.298 187.766 105.911 187.265C105.528 186.759 105.018 186.506 104.38 186.506C103.755 186.506 103.252 186.754 102.869 187.251C102.486 187.748 102.295 188.459 102.295 189.384ZM114.022 191.325L116.537 185.604H118.116V193H116.852V187.62L114.459 193H113.584L111.144 187.504V193H109.879V185.604H111.52L114.022 191.325ZM126.77 189.849H125.847V193H124.575V185.604H125.847V188.734H126.674L129.162 185.604H130.694L127.768 189.158L130.94 193H129.333L126.77 189.849ZM131.961 189.233C131.961 188.509 132.102 187.857 132.385 187.278C132.672 186.7 133.069 186.253 133.574 185.938C134.085 185.624 134.666 185.467 135.318 185.467C136.325 185.467 137.138 185.815 137.758 186.513C138.382 187.21 138.695 188.137 138.695 189.295V189.384C138.695 190.104 138.556 190.751 138.278 191.325C138.004 191.895 137.61 192.339 137.095 192.658C136.585 192.977 135.997 193.137 135.331 193.137C134.329 193.137 133.515 192.788 132.891 192.091C132.271 191.394 131.961 190.471 131.961 189.322V189.233ZM133.233 189.384C133.233 190.204 133.422 190.863 133.8 191.359C134.183 191.856 134.693 192.104 135.331 192.104C135.974 192.104 136.484 191.854 136.863 191.353C137.241 190.847 137.43 190.14 137.43 189.233C137.43 188.422 137.236 187.766 136.849 187.265C136.466 186.759 135.956 186.506 135.318 186.506C134.693 186.506 134.19 186.754 133.807 187.251C133.424 187.748 133.233 188.459 133.233 189.384ZM146.744 193H145.479V189.842H142.081V193H140.81V185.604H142.081V188.81H145.479V185.604H146.744V193ZM152.167 192.104C152.619 192.104 153.013 191.968 153.35 191.694C153.687 191.421 153.874 191.079 153.911 190.669H155.107C155.084 191.093 154.938 191.496 154.669 191.879C154.4 192.262 154.04 192.567 153.589 192.795C153.143 193.023 152.669 193.137 152.167 193.137C151.16 193.137 150.358 192.802 149.761 192.132C149.169 191.457 148.872 190.537 148.872 189.37V189.158C148.872 188.438 149.005 187.798 149.269 187.237C149.533 186.677 149.912 186.242 150.404 185.932C150.9 185.622 151.486 185.467 152.161 185.467C152.99 185.467 153.678 185.715 154.225 186.212C154.776 186.709 155.07 187.354 155.107 188.146H153.911C153.874 187.668 153.692 187.276 153.364 186.971C153.04 186.661 152.639 186.506 152.161 186.506C151.518 186.506 151.019 186.738 150.664 187.203C150.313 187.663 150.137 188.331 150.137 189.206V189.445C150.137 190.298 150.313 190.954 150.664 191.414C151.014 191.874 151.516 192.104 152.167 192.104ZM159.369 191.147L161.091 185.604H162.445L159.471 194.142C159.011 195.372 158.279 195.987 157.277 195.987L157.038 195.967L156.566 195.878V194.853L156.908 194.88C157.336 194.88 157.669 194.793 157.906 194.62C158.147 194.447 158.346 194.13 158.501 193.67L158.781 192.918L156.142 185.604H157.523L159.369 191.147ZM169.776 185.604V193H168.504V186.649H165.989L165.838 189.418C165.756 190.689 165.542 191.599 165.196 192.146C164.854 192.692 164.309 192.977 163.562 193H163.056V191.886L163.419 191.858C163.829 191.813 164.123 191.576 164.3 191.147C164.478 190.719 164.592 189.926 164.642 188.769L164.779 185.604H169.776ZM173.607 188.153H175.528C176.367 188.162 177.03 188.381 177.517 188.81C178.005 189.238 178.249 189.819 178.249 190.553C178.249 191.291 177.998 191.883 177.497 192.33C176.995 192.777 176.321 193 175.473 193H172.342V185.604H173.607V188.153ZM173.607 189.186V191.968H175.487C175.961 191.968 176.328 191.847 176.588 191.605C176.847 191.359 176.977 191.024 176.977 190.601C176.977 190.19 176.85 189.855 176.594 189.596C176.344 189.331 175.991 189.195 175.535 189.186H173.607ZM185.265 186.629H182.784V193H181.519V186.629H179.086V185.604H185.265V186.629ZM191.373 193C191.3 192.854 191.241 192.594 191.195 192.221C190.607 192.831 189.905 193.137 189.09 193.137C188.361 193.137 187.761 192.932 187.292 192.521C186.827 192.107 186.595 191.583 186.595 190.949C186.595 190.179 186.886 189.582 187.47 189.158C188.057 188.73 188.882 188.516 189.944 188.516H191.175V187.935C191.175 187.493 191.042 187.142 190.778 186.882C190.514 186.618 190.124 186.485 189.609 186.485C189.158 186.485 188.78 186.599 188.474 186.827C188.169 187.055 188.016 187.331 188.016 187.654H186.745C186.745 187.285 186.875 186.93 187.135 186.588C187.399 186.242 187.754 185.968 188.201 185.768C188.652 185.567 189.147 185.467 189.684 185.467C190.537 185.467 191.204 185.681 191.687 186.109C192.17 186.533 192.421 187.119 192.439 187.866V191.271C192.439 191.95 192.526 192.49 192.699 192.891V193H191.373ZM189.274 192.036C189.671 192.036 190.047 191.934 190.402 191.729C190.758 191.523 191.015 191.257 191.175 190.929V189.411H190.183C188.634 189.411 187.859 189.865 187.859 190.771C187.859 191.168 187.991 191.478 188.256 191.701C188.52 191.924 188.86 192.036 189.274 192.036ZM194.951 185.604H196.223V191.968H199.627V185.604H200.892V191.968H201.773L201.65 195.194H200.516V193H194.951V185.604ZM208.346 185.604H209.61V193H208.346V187.606L204.935 193H203.67V185.604H204.935V191.004L208.346 185.604ZM217.714 185.604V193H216.442V190.122H214.535L212.792 193H211.425L213.284 189.931C212.81 189.757 212.446 189.491 212.191 189.131C211.94 188.766 211.815 188.342 211.815 187.859C211.815 187.185 212.067 186.643 212.573 186.232C213.079 185.818 213.756 185.608 214.604 185.604H217.714ZM213.086 187.873C213.086 188.233 213.209 188.525 213.455 188.748C213.701 188.967 214.027 189.078 214.433 189.083H216.442V186.629H214.624C214.155 186.629 213.781 186.745 213.503 186.978C213.225 187.205 213.086 187.504 213.086 187.873ZM227.024 192.104C227.475 192.104 227.869 191.968 228.206 191.694C228.544 191.421 228.73 191.079 228.767 190.669H229.963C229.94 191.093 229.794 191.496 229.526 191.879C229.257 192.262 228.897 192.567 228.446 192.795C227.999 193.023 227.525 193.137 227.024 193.137C226.017 193.137 225.214 192.802 224.617 192.132C224.025 191.457 223.729 190.537 223.729 189.37V189.158C223.729 188.438 223.861 187.798 224.125 187.237C224.39 186.677 224.768 186.242 225.26 185.932C225.757 185.622 226.342 185.467 227.017 185.467C227.846 185.467 228.534 185.715 229.081 186.212C229.633 186.709 229.927 187.354 229.963 188.146H228.767C228.73 187.668 228.548 187.276 228.22 186.971C227.896 186.661 227.495 186.506 227.017 186.506C226.374 186.506 225.875 186.738 225.52 187.203C225.169 187.663 224.993 188.331 224.993 189.206V189.445C224.993 190.298 225.169 190.954 225.52 191.414C225.871 191.874 226.372 192.104 227.024 192.104ZM2.33789 209.604V215.968H5.04492V209.604H6.30957V215.968H9.00977V209.604H10.2812V217H1.06641V209.604H2.33789ZM17.4825 209.604H18.7471V217H17.4825V211.606L14.0714 217H12.8067V209.604H14.0714V215.004L17.4825 209.604ZM27.4455 213.384C27.4455 214.509 27.188 215.416 26.673 216.104C26.158 216.793 25.4608 217.137 24.5812 217.137C23.6834 217.137 22.977 216.852 22.4621 216.282V219.844H21.1974V209.604H22.3527L22.4142 210.424C22.9292 209.786 23.6447 209.467 24.5607 209.467C25.4494 209.467 26.1512 209.802 26.6662 210.472C27.1857 211.142 27.4455 212.074 27.4455 213.268V213.384ZM26.1808 213.24C26.1808 212.406 26.0031 211.748 25.6476 211.265C25.2921 210.782 24.8045 210.54 24.1847 210.54C23.4191 210.54 22.8449 210.88 22.4621 211.559V215.093C22.8403 215.767 23.4191 216.104 24.1984 216.104C24.8045 216.104 25.2853 215.865 25.6408 215.387C26.0008 214.904 26.1808 214.188 26.1808 213.24ZM29.1438 213.233C29.1438 212.509 29.2851 211.857 29.5676 211.278C29.8547 210.7 30.2512 210.253 30.7571 209.938C31.2675 209.624 31.8485 209.467 32.5002 209.467C33.5074 209.467 34.3209 209.815 34.9407 210.513C35.565 211.21 35.8772 212.137 35.8772 213.295V213.384C35.8772 214.104 35.7382 214.751 35.4602 215.325C35.1868 215.895 34.7926 216.339 34.2776 216.658C33.7672 216.977 33.1793 217.137 32.5139 217.137C31.5113 217.137 30.6978 216.788 30.0735 216.091C29.4537 215.394 29.1438 214.471 29.1438 213.322V213.233ZM30.4153 213.384C30.4153 214.204 30.6044 214.863 30.9827 215.359C31.3655 215.856 31.8759 216.104 32.5139 216.104C33.1565 216.104 33.6669 215.854 34.0452 215.353C34.4234 214.847 34.6125 214.14 34.6125 213.233C34.6125 212.422 34.4189 211.766 34.0315 211.265C33.6487 210.759 33.1383 210.506 32.5002 210.506C31.8759 210.506 31.3723 210.754 30.9895 211.251C30.6067 211.748 30.4153 212.459 30.4153 213.384ZM40.1868 213.849H39.264V217H37.9925V209.604H39.264V212.734H40.0911L42.5794 209.604H44.1107L41.1849 213.158L44.3568 217H42.7503L40.1868 213.849ZM50.6488 209.604H51.9135V217H50.6488V211.606L47.2377 217H45.973V209.604H47.2377V215.004L50.6488 209.604ZM58.6225 215.325L61.1382 209.604H62.7173V217H61.4526V211.62L59.06 217H58.185L55.7446 211.504V217H54.48V209.604H56.1206L58.6225 215.325ZM73.6334 217C73.5605 216.854 73.5013 216.594 73.4557 216.221C72.8678 216.831 72.166 217.137 71.3502 217.137C70.6211 217.137 70.0218 216.932 69.5524 216.521C69.0875 216.107 68.8551 215.583 68.8551 214.949C68.8551 214.179 69.1468 213.582 69.7301 213.158C70.318 212.73 71.1429 212.516 72.2047 212.516H73.4352V211.935C73.4352 211.493 73.303 211.142 73.0387 210.882C72.7744 210.618 72.3847 210.485 71.8698 210.485C71.4186 210.485 71.0403 210.599 70.735 210.827C70.4297 211.055 70.277 211.331 70.277 211.654H69.0055C69.0055 211.285 69.1354 210.93 69.3952 210.588C69.6595 210.242 70.0149 209.968 70.4616 209.768C70.9127 209.567 71.4072 209.467 71.945 209.467C72.7972 209.467 73.4648 209.681 73.9479 210.109C74.431 210.533 74.6816 211.119 74.6998 211.866V215.271C74.6998 215.95 74.7864 216.49 74.9596 216.891V217H73.6334ZM71.5348 216.036C71.9313 216.036 72.3073 215.934 72.6627 215.729C73.0182 215.523 73.2757 215.257 73.4352 214.929V213.411H72.444C70.8945 213.411 70.1198 213.865 70.1198 214.771C70.1198 215.168 70.2519 215.478 70.5163 215.701C70.7806 215.924 71.1201 216.036 71.5348 216.036ZM79.406 213.849H78.4831V217H77.2116V209.604H78.4831V212.734H79.3103L81.7986 209.604H83.3298L80.404 213.158L83.5759 217H81.9695L79.406 213.849ZM90.5789 210.629H88.0975V217H86.8328V210.629H84.3992V209.604H90.5789V210.629ZM97.0145 209.604H98.2792V217H97.0145V211.606L93.6034 217H92.3388V209.604H93.6034V215.004L97.0145 209.604ZM100.846 217V209.604H103.73C104.715 209.604 105.469 209.777 105.993 210.123C106.522 210.465 106.786 210.968 106.786 211.634C106.786 211.976 106.684 212.285 106.478 212.563C106.273 212.837 105.97 213.047 105.569 213.192C106.016 213.297 106.374 213.502 106.643 213.808C106.916 214.113 107.053 214.478 107.053 214.901C107.053 215.58 106.802 216.1 106.301 216.46C105.804 216.82 105.1 217 104.188 217H100.846ZM102.11 213.753V215.981H104.202C104.731 215.981 105.125 215.883 105.385 215.688C105.649 215.492 105.781 215.216 105.781 214.86C105.781 214.122 105.239 213.753 104.154 213.753H102.11ZM102.11 212.741H103.744C104.929 212.741 105.521 212.395 105.521 211.702C105.521 211.009 104.961 210.652 103.84 210.629H102.11V212.741ZM108.813 213.233C108.813 212.509 108.954 211.857 109.236 211.278C109.523 210.7 109.92 210.253 110.426 209.938C110.936 209.624 111.517 209.467 112.169 209.467C113.176 209.467 113.99 209.815 114.609 210.513C115.234 211.21 115.546 212.137 115.546 213.295V213.384C115.546 214.104 115.407 214.751 115.129 215.325C114.856 215.895 114.461 216.339 113.946 216.658C113.436 216.977 112.848 217.137 112.183 217.137C111.18 217.137 110.367 216.788 109.742 216.091C109.122 215.394 108.813 214.471 108.813 213.322V213.233ZM110.084 213.384C110.084 214.204 110.273 214.863 110.651 215.359C111.034 215.856 111.545 216.104 112.183 216.104C112.825 216.104 113.336 215.854 113.714 215.353C114.092 214.847 114.281 214.14 114.281 213.233C114.281 212.422 114.088 211.766 113.7 211.265C113.317 210.759 112.807 210.506 112.169 210.506C111.545 210.506 111.041 210.754 110.658 211.251C110.275 211.748 110.084 212.459 110.084 213.384ZM121.811 215.325L124.326 209.604H125.905V217H124.641V211.62L122.248 217H121.373L118.933 211.504V217H117.668V209.604H119.309L121.811 215.325ZM132.371 217V209.604H135.256C136.241 209.604 136.995 209.777 137.519 210.123C138.047 210.465 138.312 210.968 138.312 211.634C138.312 211.976 138.209 212.285 138.004 212.563C137.799 212.837 137.496 213.047 137.095 213.192C137.542 213.297 137.899 213.502 138.168 213.808C138.442 214.113 138.578 214.478 138.578 214.901C138.578 215.58 138.328 216.1 137.826 216.46C137.33 216.82 136.626 217 135.714 217H132.371ZM133.636 213.753V215.981H135.728C136.256 215.981 136.651 215.883 136.91 215.688C137.175 215.492 137.307 215.216 137.307 214.86C137.307 214.122 136.765 213.753 135.68 213.753H133.636ZM133.636 212.741H135.27C136.455 212.741 137.047 212.395 137.047 211.702C137.047 211.009 136.487 210.652 135.366 210.629H133.636V212.741ZM148.633 211.627C148.633 211.281 148.501 211.007 148.237 210.807C147.972 210.602 147.61 210.499 147.15 210.499C146.703 210.499 146.33 210.615 146.029 210.848C145.733 211.08 145.584 211.354 145.584 211.668H144.327C144.327 211.025 144.595 210.499 145.133 210.089C145.671 209.679 146.343 209.474 147.15 209.474C148.016 209.474 148.69 209.66 149.173 210.034C149.656 210.403 149.898 210.932 149.898 211.62C149.898 211.953 149.798 212.258 149.597 212.536C149.397 212.814 149.112 213.035 148.743 213.199C149.604 213.491 150.035 214.065 150.035 214.922C150.035 215.601 149.773 216.139 149.248 216.535C148.724 216.932 148.025 217.13 147.15 217.13C146.298 217.13 145.594 216.923 145.038 216.508C144.486 216.089 144.21 215.523 144.21 214.812H145.468C145.468 215.173 145.628 215.482 145.947 215.742C146.27 215.997 146.671 216.125 147.15 216.125C147.633 216.125 148.023 216.013 148.319 215.79C148.615 215.567 148.763 215.277 148.763 214.922C148.763 214.507 148.638 214.211 148.387 214.033C148.141 213.851 147.756 213.76 147.232 213.76H145.967V212.693H147.341C148.203 212.671 148.633 212.315 148.633 211.627ZM158.138 217H156.874V213.842H153.476V217H152.205V209.604H153.476V212.81H156.874V209.604H158.138V217ZM165.162 217C165.089 216.854 165.03 216.594 164.984 216.221C164.396 216.831 163.694 217.137 162.879 217.137C162.149 217.137 161.55 216.932 161.081 216.521C160.616 216.107 160.383 215.583 160.383 214.949C160.383 214.179 160.675 213.582 161.258 213.158C161.846 212.73 162.671 212.516 163.733 212.516H164.963V211.935C164.963 211.493 164.831 211.142 164.567 210.882C164.303 210.618 163.913 210.485 163.398 210.485C162.947 210.485 162.569 210.599 162.263 210.827C161.958 211.055 161.805 211.331 161.805 211.654H160.534C160.534 211.285 160.664 210.93 160.923 210.588C161.188 210.242 161.543 209.968 161.99 209.768C162.441 209.567 162.935 209.467 163.473 209.467C164.325 209.467 164.993 209.681 165.476 210.109C165.959 210.533 166.21 211.119 166.228 211.866V215.271C166.228 215.95 166.315 216.49 166.488 216.891V217H165.162ZM163.063 216.036C163.46 216.036 163.836 215.934 164.191 215.729C164.546 215.523 164.804 215.257 164.963 214.929V213.411H163.972C162.423 213.411 161.648 213.865 161.648 214.771C161.648 215.168 161.78 215.478 162.045 215.701C162.309 215.924 162.648 216.036 163.063 216.036ZM174.216 217H172.944V214.32C172.388 214.466 171.818 214.539 171.235 214.539C170.31 214.539 169.604 214.302 169.116 213.828C168.633 213.354 168.387 212.68 168.378 211.805V209.597H169.642V211.846C169.665 212.949 170.196 213.5 171.235 213.5C171.818 213.5 172.388 213.427 172.944 213.281V209.604H174.216V217ZM181.451 209.604H182.716V217H181.451V211.606L178.04 217H176.775V209.604H178.04V215.004L181.451 209.604ZM190.662 210.629H188.181V217H186.916V210.629H184.482V209.604H190.662V210.629ZM194.835 217.137C193.832 217.137 193.017 216.809 192.388 216.152C191.759 215.492 191.444 214.61 191.444 213.507V213.274C191.444 212.541 191.583 211.887 191.861 211.312C192.144 210.734 192.536 210.283 193.037 209.959C193.543 209.631 194.09 209.467 194.678 209.467C195.639 209.467 196.387 209.784 196.92 210.417C197.453 211.05 197.72 211.957 197.72 213.138V213.664H192.709C192.727 214.393 192.939 214.983 193.345 215.435C193.755 215.881 194.274 216.104 194.903 216.104C195.35 216.104 195.728 216.013 196.038 215.831C196.348 215.649 196.619 215.407 196.851 215.106L197.624 215.708C197.004 216.66 196.074 217.137 194.835 217.137ZM194.678 210.506C194.167 210.506 193.739 210.693 193.393 211.066C193.046 211.436 192.832 211.955 192.75 212.625H196.455V212.529C196.419 211.887 196.245 211.39 195.935 211.039C195.626 210.684 195.206 210.506 194.678 210.506ZM205.673 209.604V217H204.401V210.649H201.886L201.735 213.418C201.653 214.689 201.439 215.599 201.093 216.146C200.751 216.692 200.206 216.977 199.459 217H198.953V215.886L199.315 215.858C199.726 215.813 200.02 215.576 200.197 215.147C200.375 214.719 200.489 213.926 200.539 212.769L200.676 209.604H205.673ZM209.504 212.153H211.425C212.263 212.162 212.927 212.381 213.414 212.81C213.902 213.238 214.146 213.819 214.146 214.553C214.146 215.291 213.895 215.883 213.394 216.33C212.892 216.777 212.218 217 211.37 217H208.239V209.604H209.504V212.153ZM209.504 213.186V215.968H211.384C211.858 215.968 212.225 215.847 212.484 215.605C212.744 215.359 212.874 215.024 212.874 214.601C212.874 214.19 212.746 213.855 212.491 213.596C212.241 213.331 211.887 213.195 211.432 213.186H209.504ZM222.188 217H220.923V213.842H217.526V217H216.254V209.604H217.526V212.81H220.923V209.604H222.188V217ZM224.31 213.233C224.31 212.509 224.451 211.857 224.734 211.278C225.021 210.7 225.417 210.253 225.923 209.938C226.433 209.624 227.015 209.467 227.666 209.467C228.673 209.467 229.487 209.815 230.107 210.513C230.731 211.21 231.043 212.137 231.043 213.295V213.384C231.043 214.104 230.904 214.751 230.626 215.325C230.353 215.895 229.959 216.339 229.444 216.658C228.933 216.977 228.345 217.137 227.68 217.137C226.677 217.137 225.864 216.788 225.239 216.091C224.62 215.394 224.31 214.471 224.31 213.322V213.233ZM225.581 213.384C225.581 214.204 225.77 214.863 226.149 215.359C226.531 215.856 227.042 216.104 227.68 216.104C228.322 216.104 228.833 215.854 229.211 215.353C229.589 214.847 229.779 214.14 229.779 213.233C229.779 212.422 229.585 211.766 229.197 211.265C228.815 210.759 228.304 210.506 227.666 210.506C227.042 210.506 226.538 210.754 226.156 211.251C225.773 211.748 225.581 212.459 225.581 213.384ZM237.834 209.604H239.099V217H237.834V211.606L234.423 217H233.159V209.604H234.423V215.004L237.834 209.604ZM238.176 206.91C238.176 207.462 237.987 207.906 237.609 208.243C237.235 208.576 236.743 208.742 236.132 208.742C235.521 208.742 235.027 208.574 234.649 208.236C234.27 207.899 234.081 207.457 234.081 206.91H235.114C235.114 207.229 235.2 207.48 235.373 207.662C235.547 207.84 235.799 207.929 236.132 207.929C236.451 207.929 236.7 207.84 236.877 207.662C237.06 207.484 237.151 207.234 237.151 206.91H238.176ZM3.92383 240.104C4.375 240.104 4.76921 239.968 5.10645 239.694C5.44368 239.421 5.63053 239.079 5.66699 238.669H6.86328C6.84049 239.093 6.69466 239.496 6.42578 239.879C6.1569 240.262 5.79688 240.567 5.3457 240.795C4.89909 241.023 4.42513 241.137 3.92383 241.137C2.91667 241.137 2.11458 240.802 1.51758 240.132C0.92513 239.457 0.628906 238.537 0.628906 237.37V237.158C0.628906 236.438 0.761068 235.798 1.02539 235.237C1.28971 234.677 1.66797 234.242 2.16016 233.932C2.6569 233.622 3.24251 233.467 3.91699 233.467C4.74642 233.467 5.43457 233.715 5.98145 234.212C6.53288 234.709 6.82682 235.354 6.86328 236.146H5.66699C5.63053 235.668 5.44824 235.276 5.12012 234.971C4.79655 234.661 4.39551 234.506 3.91699 234.506C3.27441 234.506 2.77539 234.738 2.41992 235.203C2.06901 235.663 1.89355 236.331 1.89355 237.206V237.445C1.89355 238.298 2.06901 238.954 2.41992 239.414C2.77083 239.874 3.27214 240.104 3.92383 240.104ZM14.2013 234.629H11.7198V241H10.4552V234.629H8.02156V233.604H14.2013V234.629ZM18.3742 241.137C17.3716 241.137 16.5558 240.809 15.9269 240.152C15.298 239.492 14.9836 238.61 14.9836 237.507V237.274C14.9836 236.541 15.1226 235.887 15.4005 235.312C15.6831 234.734 16.075 234.283 16.5763 233.959C17.0822 233.631 17.6291 233.467 18.217 233.467C19.1785 233.467 19.9259 233.784 20.4591 234.417C20.9923 235.05 21.2589 235.957 21.2589 237.138V237.664H16.2482C16.2664 238.393 16.4783 238.983 16.8839 239.435C17.2941 239.881 17.8136 240.104 18.4425 240.104C18.8892 240.104 19.2674 240.013 19.5773 239.831C19.8872 239.649 20.1584 239.407 20.3908 239.106L21.1632 239.708C20.5435 240.66 19.6138 241.137 18.3742 241.137ZM18.217 234.506C17.7065 234.506 17.2782 234.693 16.9318 235.066C16.5854 235.436 16.3713 235.955 16.2892 236.625H19.9943V236.529C19.9578 235.887 19.7847 235.39 19.4748 235.039C19.1649 234.684 18.7456 234.506 18.217 234.506ZM29.1985 241H27.9338V234.649H24.5295V241H23.258V233.604H29.1985V241ZM34.7181 241.137C33.7155 241.137 32.8997 240.809 32.2708 240.152C31.6419 239.492 31.3275 238.61 31.3275 237.507V237.274C31.3275 236.541 31.4665 235.887 31.7445 235.312C32.027 234.734 32.4189 234.283 32.9202 233.959C33.4261 233.631 33.973 233.467 34.5609 233.467C35.5224 233.467 36.2698 233.784 36.803 234.417C37.3363 235.05 37.6029 235.957 37.6029 237.138V237.664H32.5921C32.6103 238.393 32.8223 238.983 33.2279 239.435C33.638 239.881 34.1575 240.104 34.7864 240.104C35.2331 240.104 35.6113 240.013 35.9212 239.831C36.2311 239.649 36.5023 239.407 36.7347 239.106L37.5071 239.708C36.8874 240.66 35.9577 241.137 34.7181 241.137ZM34.5609 234.506C34.0504 234.506 33.6221 234.693 33.2757 235.066C32.9293 235.436 32.7152 235.955 32.6331 236.625H36.3382V236.529C36.3017 235.887 36.1286 235.39 35.8187 235.039C35.5088 234.684 35.0895 234.506 34.5609 234.506ZM45.5355 241H44.2709V237.842H40.8734V241H39.602V233.604H40.8734V236.81H44.2709V233.604H45.5355V241ZM52.7778 233.604H54.0425V241H52.7778V235.606L49.3667 241H48.102V233.604H49.3667V239.004L52.7778 233.604ZM60.0504 237.233C60.0504 236.509 60.1917 235.857 60.4743 235.278C60.7614 234.7 61.1579 234.253 61.6637 233.938C62.1741 233.624 62.7552 233.467 63.4069 233.467C64.414 233.467 65.2275 233.815 65.8473 234.513C66.4717 235.21 66.7838 236.137 66.7838 237.295V237.384C66.7838 238.104 66.6448 238.751 66.3668 239.325C66.0934 239.895 65.6992 240.339 65.1842 240.658C64.6738 240.977 64.0859 241.137 63.4205 241.137C62.4179 241.137 61.6045 240.788 60.9801 240.091C60.3603 239.394 60.0504 238.471 60.0504 237.322V237.233ZM61.3219 237.384C61.3219 238.204 61.511 238.863 61.8893 239.359C62.2721 239.856 62.7825 240.104 63.4205 240.104C64.0631 240.104 64.5735 239.854 64.9518 239.353C65.3301 238.847 65.5192 238.14 65.5192 237.233C65.5192 236.422 65.3255 235.766 64.9381 235.265C64.5553 234.759 64.0449 234.506 63.4069 234.506C62.7825 234.506 62.2789 234.754 61.8961 235.251C61.5133 235.748 61.3219 236.459 61.3219 237.384ZM72.0368 234.027C72.9665 234.027 73.7094 234.34 74.2654 234.964C74.8259 235.584 75.1062 236.402 75.1062 237.418V237.534C75.1062 238.231 74.9717 238.856 74.7029 239.407C74.434 239.954 74.0466 240.38 73.5407 240.686C73.0394 240.986 72.4607 241.137 71.8044 241.137C70.8109 241.137 70.0111 240.806 69.405 240.146C68.7989 239.48 68.4958 238.589 68.4958 237.473V236.857C68.4958 235.303 68.7829 234.068 69.3571 233.152C69.9359 232.236 70.7881 231.678 71.9138 231.478C72.5518 231.364 72.9825 231.225 73.2058 231.061C73.4291 230.896 73.5407 230.671 73.5407 230.384H74.5798C74.5798 230.953 74.4499 231.398 74.1902 231.717C73.9349 232.036 73.5248 232.261 72.9597 232.394L72.0163 232.605C71.2644 232.783 70.6993 233.084 70.321 233.508C69.9473 233.927 69.7035 234.488 69.5896 235.189C70.2595 234.415 71.0752 234.027 72.0368 234.027ZM71.7907 235.066C71.1709 235.066 70.6788 235.276 70.3142 235.695C69.9496 236.11 69.7673 236.687 69.7673 237.425V237.534C69.7673 238.327 69.9496 238.956 70.3142 239.421C70.6833 239.881 71.1801 240.111 71.8044 240.111C72.4333 240.111 72.9301 239.879 73.2946 239.414C73.6592 238.949 73.8415 238.27 73.8415 237.377C73.8415 236.68 73.657 236.121 73.2878 235.702C72.9232 235.278 72.4242 235.066 71.7907 235.066ZM79.368 239.147L81.0906 233.604H82.4441L79.4705 242.142C79.0102 243.372 78.2788 243.987 77.2762 243.987L77.0369 243.967L76.5652 243.878V242.853L76.907 242.88C77.3354 242.88 77.6681 242.793 77.9051 242.62C78.1466 242.447 78.3449 242.13 78.4998 241.67L78.7801 240.918L76.1414 233.604H77.5223L79.368 239.147ZM86.87 240.104C87.3212 240.104 87.7154 239.968 88.0526 239.694C88.3899 239.421 88.5767 239.079 88.6132 238.669H89.8095C89.7867 239.093 89.6408 239.496 89.372 239.879C89.1031 240.262 88.743 240.567 88.2919 240.795C87.8453 241.023 87.3713 241.137 86.87 241.137C85.8628 241.137 85.0608 240.802 84.4638 240.132C83.8713 239.457 83.5751 238.537 83.5751 237.37V237.158C83.5751 236.438 83.7072 235.798 83.9716 235.237C84.2359 234.677 84.6141 234.242 85.1063 233.932C85.6031 233.622 86.1887 233.467 86.8632 233.467C87.6926 233.467 88.3807 233.715 88.9276 234.212C89.4791 234.709 89.773 235.354 89.8095 236.146H88.6132C88.5767 235.668 88.3944 235.276 88.0663 234.971C87.7427 234.661 87.3417 234.506 86.8632 234.506C86.2206 234.506 85.7216 234.738 85.3661 235.203C85.0152 235.663 84.8397 236.331 84.8397 237.206V237.445C84.8397 238.298 85.0152 238.954 85.3661 239.414C85.717 239.874 86.2183 240.104 86.87 240.104ZM97.7148 233.604V241H96.4433V234.649H93.9277L93.7773 237.418C93.6953 238.689 93.4811 239.599 93.1347 240.146C92.7929 240.692 92.2483 240.977 91.5009 241H90.9951V239.886L91.3574 239.858C91.7675 239.813 92.0615 239.576 92.2392 239.147C92.417 238.719 92.5309 237.926 92.581 236.769L92.7177 233.604H97.7148ZM104.731 241C104.659 240.854 104.599 240.594 104.554 240.221C103.966 240.831 103.264 241.137 102.448 241.137C101.719 241.137 101.12 240.932 100.65 240.521C100.186 240.107 99.9532 239.583 99.9532 238.949C99.9532 238.179 100.245 237.582 100.828 237.158C101.416 236.73 102.241 236.516 103.303 236.516H104.533V235.935C104.533 235.493 104.401 235.142 104.137 234.882C103.872 234.618 103.483 234.485 102.968 234.485C102.517 234.485 102.138 234.599 101.833 234.827C101.528 235.055 101.375 235.331 101.375 235.654H100.104C100.104 235.285 100.233 234.93 100.493 234.588C100.758 234.242 101.113 233.968 101.56 233.768C102.011 233.567 102.505 233.467 103.043 233.467C103.895 233.467 104.563 233.681 105.046 234.109C105.529 234.533 105.78 235.119 105.798 235.866V239.271C105.798 239.95 105.884 240.49 106.058 240.891V241H104.731ZM102.633 240.036C103.029 240.036 103.405 239.934 103.761 239.729C104.116 239.523 104.374 239.257 104.533 238.929V237.411H103.542C101.993 237.411 101.218 237.865 101.218 238.771C101.218 239.168 101.35 239.478 101.614 239.701C101.879 239.924 102.218 240.036 102.633 240.036ZM108.317 241V233.604H111.201C112.186 233.604 112.94 233.777 113.464 234.123C113.993 234.465 114.257 234.968 114.257 235.634C114.257 235.976 114.154 236.285 113.949 236.563C113.744 236.837 113.441 237.047 113.04 237.192C113.487 237.297 113.845 237.502 114.113 237.808C114.387 238.113 114.524 238.478 114.524 238.901C114.524 239.58 114.273 240.1 113.772 240.46C113.275 240.82 112.571 241 111.659 241H108.317ZM109.581 237.753V239.981H111.673C112.202 239.981 112.596 239.883 112.856 239.688C113.12 239.492 113.252 239.216 113.252 238.86C113.252 238.122 112.71 237.753 111.625 237.753H109.581ZM109.581 236.741H111.215C112.4 236.741 112.992 236.395 112.992 235.702C112.992 235.009 112.432 234.652 111.311 234.629H109.581V236.741ZM122.682 233.604V241H121.41V234.649H118.895L118.744 237.418C118.662 238.689 118.448 239.599 118.102 240.146C117.76 240.692 117.215 240.977 116.468 241H115.962V239.886L116.324 239.858C116.735 239.813 117.029 239.576 117.206 239.147C117.384 238.719 117.498 237.926 117.548 236.769L117.685 233.604H122.682ZM129.917 233.604H131.182V241H129.917V235.606L126.506 241H125.241V233.604H126.506V239.004L129.917 233.604ZM133.748 241V233.604H136.633C137.618 233.604 138.372 233.777 138.896 234.123C139.425 234.465 139.689 234.968 139.689 235.634C139.689 235.976 139.586 236.285 139.381 236.563C139.176 236.837 138.873 237.047 138.472 237.192C138.919 237.297 139.276 237.502 139.545 237.808C139.819 238.113 139.955 238.478 139.955 238.901C139.955 239.58 139.705 240.1 139.203 240.46C138.707 240.82 138.003 241 137.091 241H133.748ZM135.013 237.753V239.981H137.105C137.633 239.981 138.028 239.883 138.287 239.688C138.552 239.492 138.684 239.216 138.684 238.86C138.684 238.122 138.142 237.753 137.057 237.753H135.013ZM135.013 236.741H136.647C137.832 236.741 138.424 236.395 138.424 235.702C138.424 235.009 137.864 234.652 136.743 234.629H135.013V236.741ZM146.617 241C146.544 240.854 146.484 240.594 146.439 240.221C145.851 240.831 145.149 241.137 144.333 241.137C143.604 241.137 143.005 240.932 142.536 240.521C142.071 240.107 141.838 239.583 141.838 238.949C141.838 238.179 142.13 237.582 142.713 237.158C143.301 236.73 144.126 236.516 145.188 236.516H146.418V235.935C146.418 235.493 146.286 235.142 146.022 234.882C145.758 234.618 145.368 234.485 144.853 234.485C144.402 234.485 144.024 234.599 143.718 234.827C143.413 235.055 143.26 235.331 143.26 235.654H141.989C141.989 235.285 142.119 234.93 142.378 234.588C142.643 234.242 142.998 233.968 143.445 233.768C143.896 233.567 144.39 233.467 144.928 233.467C145.78 233.467 146.448 233.681 146.931 234.109C147.414 234.533 147.665 235.119 147.683 235.866V239.271C147.683 239.95 147.77 240.49 147.943 240.891V241H146.617ZM144.518 240.036C144.914 240.036 145.29 239.934 145.646 239.729C146.001 239.523 146.259 239.257 146.418 238.929V237.411H145.427C143.878 237.411 143.103 237.865 143.103 238.771C143.103 239.168 143.235 239.478 143.499 239.701C143.764 239.924 144.103 240.036 144.518 240.036ZM153.155 241.137C152.152 241.137 151.336 240.809 150.708 240.152C150.079 239.492 149.764 238.61 149.764 237.507V237.274C149.764 236.541 149.903 235.887 150.181 235.312C150.464 234.734 150.856 234.283 151.357 233.959C151.863 233.631 152.41 233.467 152.998 233.467C153.959 233.467 154.707 233.784 155.24 234.417C155.773 235.05 156.04 235.957 156.04 237.138V237.664H151.029C151.047 238.393 151.259 238.983 151.665 239.435C152.075 239.881 152.594 240.104 153.223 240.104C153.67 240.104 154.048 240.013 154.358 239.831C154.668 239.649 154.939 239.407 155.171 239.106L155.944 239.708C155.324 240.66 154.394 241.137 153.155 241.137ZM152.998 234.506C152.487 234.506 152.059 234.693 151.712 235.066C151.366 235.436 151.152 235.955 151.07 236.625H154.775V236.529C154.738 235.887 154.565 235.39 154.255 235.039C153.945 234.684 153.526 234.506 152.998 234.506ZM163.343 234.629H160.862V241H159.597V234.629H157.164V233.604H163.343V234.629ZM165.021 240.337C165.021 240.118 165.085 239.936 165.213 239.79C165.345 239.644 165.541 239.571 165.8 239.571C166.06 239.571 166.256 239.644 166.388 239.79C166.525 239.936 166.593 240.118 166.593 240.337C166.593 240.547 166.525 240.722 166.388 240.863C166.256 241.005 166.06 241.075 165.8 241.075C165.541 241.075 165.345 241.005 165.213 240.863C165.085 240.722 165.021 240.547 165.021 240.337Z" fill="#757575"/>
<defs>
<clipPath id="clip0">
<rect x="104" y="25" width="70" height="70" fill="white"/>
</clipPath>
</defs>
</svg>
