<svg width="278" height="251" viewBox="0 0 278 251" fill="none" xmlns="http://www.w3.org/2000/svg">
<rect width="278" height="120" rx="4" fill="#F5F4FA"/>
<path d="M171.316 73.3385L152.847 54.7337L154.897 44.6373C155.426 44.8438 155.988 44.9517 156.556 44.9558H156.57C159.178 44.9866 161.317 42.8974 161.348 40.2893C161.379 37.6812 159.289 35.542 156.681 35.5111C154.073 35.4803 151.934 37.5695 151.903 40.1776C151.897 40.7357 151.989 41.2905 152.176 41.8163L141.326 43.1405L123.628 25.35C123.41 25.1285 123.114 25.0025 122.804 25C122.498 25.0016 122.204 25.1235 121.987 25.3395L118.679 28.6295C118.223 29.0851 118.223 29.8236 118.679 30.2792L120.459 32.0852C113.562 44.7681 115.802 60.4741 125.97 70.7228C126.064 70.8121 126.172 70.8843 126.29 70.9363C126.216 71.3311 126.178 71.7317 126.176 72.1333V85.6667H112.176C108.956 85.6705 106.346 88.28 106.342 91.5V93.8333C106.342 94.4776 106.865 95 107.509 95H161.176C161.82 95 162.342 94.4776 162.342 93.8333V91.5C162.338 88.28 159.729 85.6705 156.509 85.6667H142.509V79.6688C144.702 80.1288 146.937 80.3633 149.178 80.3688C154.555 80.363 159.846 79.0225 164.578 76.4675L166.367 78.2677C166.584 78.4892 166.881 78.6152 167.191 78.6177C167.497 78.6161 167.79 78.4941 168.008 78.2782L171.316 74.9882C171.772 74.5326 171.772 73.7941 171.316 73.3385ZM154.925 38.6348C155.838 37.726 157.316 37.7301 158.224 38.6437C159.133 39.5574 159.129 41.0348 158.215 41.9435C157.778 42.3785 157.186 42.6226 156.569 42.6225H156.562C155.274 42.6158 154.235 41.5658 154.241 40.2771C154.244 39.6602 154.492 39.0699 154.929 38.6348H154.925ZM152.178 46.301L150.869 52.7445L148.298 50.158L152.178 46.301ZM150.853 44.3282L146.653 48.5037L143.404 45.237L150.853 44.3282ZM156.509 88C158.442 88 160.009 89.567 160.009 91.5V92.6667H108.676V91.5C108.676 89.567 110.243 88 112.176 88H156.509ZM140.176 83.3333V85.6667H128.509V83.3333H140.176ZM128.509 81V72.1333C128.509 69.303 131.126 67 134.342 67C137.559 67 140.176 69.303 140.176 72.1333V81H128.509ZM142.509 77.29V72.1333C142.509 68.0162 138.846 64.6667 134.342 64.6667C131.431 64.622 128.708 66.1041 127.165 68.5738C118.289 59.2249 116.29 45.2875 122.181 33.8207L162.872 74.7455C156.589 77.9419 149.386 78.8418 142.509 77.29ZM167.204 75.7943L165.56 74.1412L122.792 31.1157L121.141 29.4613L122.792 27.8163L140.15 45.272C140.158 45.272 140.163 45.2872 140.171 45.293L168.859 74.1493L167.204 75.7943Z" fill="#212121"/>
<path d="M134.353 69.3333H134.342C132.409 69.3304 130.84 70.895 130.837 72.8281C130.834 74.7611 132.399 76.3304 134.332 76.3333H134.342C136.275 76.3362 137.844 74.7716 137.847 72.8386C137.85 70.9055 136.286 69.3362 134.353 69.3333ZM135.169 73.6605C134.95 73.8789 134.652 74.0012 134.342 74C133.698 73.9966 133.178 73.4716 133.182 72.8273C133.183 72.5189 133.307 72.2237 133.526 72.0062C133.743 71.7902 134.036 71.6683 134.342 71.6667C134.986 71.67 135.506 72.195 135.503 72.8393C135.501 73.1477 135.377 73.4429 135.159 73.6605H135.169Z" fill="#2196F3"/>
<path d="M0.888672 163V153.047H4.375C5.58268 153.047 6.4987 153.279 7.12305 153.744C7.7474 154.204 8.05957 154.881 8.05957 155.774C8.05957 156.262 7.93424 156.693 7.68359 157.066C7.43294 157.436 7.08431 157.707 6.6377 157.88C7.14811 158.007 7.54915 158.265 7.84082 158.652C8.13704 159.04 8.28516 159.514 8.28516 160.074C8.28516 161.031 7.97982 161.756 7.36914 162.248C6.75846 162.74 5.88802 162.991 4.75781 163H0.888672ZM2.93945 158.666V161.353H4.69629C5.17936 161.353 5.55534 161.239 5.82422 161.011C6.09766 160.778 6.23438 160.459 6.23438 160.054C6.23438 159.142 5.7627 158.68 4.81934 158.666H2.93945ZM2.93945 157.217H4.45703C5.49154 157.199 6.00879 156.786 6.00879 155.979C6.00879 155.528 5.87663 155.205 5.6123 155.009C5.35254 154.808 4.9401 154.708 4.375 154.708H2.93945V157.217ZM18.3507 163H16.2999V158.734H12.3009V163H10.2501V153.047H12.3009V157.08H16.2999V153.047H18.3507V163ZM26.5363 153.047H28.5939V163H26.5363V156.39L22.5509 163H20.5002V153.047H22.5509V159.671L26.5363 153.047ZM33.4709 153.047L36.0276 160.266L38.5705 153.047H41.2639V163H39.2063V160.279L39.4114 155.583L36.7248 163H35.3166L32.637 155.59L32.842 160.279V163H30.7913V153.047H33.4709ZM49.2171 160.949H45.6214L44.9378 163H42.7571L46.4622 153.047H48.3626L52.0882 163H49.9075L49.2171 160.949ZM46.1751 159.288H48.6634L47.4124 155.562L46.1751 159.288ZM61.5385 163H59.4877V158.734H55.4887V163H53.4379V153.047H55.4887V157.08H59.4877V153.047H61.5385V163ZM69.7241 153.047H71.7817V163H69.7241V156.39L65.7388 163H63.688V153.047H65.7388V159.671L69.7241 153.047ZM79.9673 158.687H76.0298V161.353H80.6509V163H73.9791V153.047H80.6373V154.708H76.0298V157.08H79.9673V158.687ZM89.4275 158.933H88.2448V163H86.1941V153.047H88.2448V157.032H89.1814L91.615 153.047H94.1169L91.0476 157.757L94.4382 163H91.9909L89.4275 158.933ZM108.786 165.447H106.892V163H100.891V165.44H98.9491L98.8397 161.353H99.5917C99.9973 161.015 100.309 160.521 100.528 159.869C100.752 159.213 100.902 158.402 100.979 157.436L101.266 153.047H107.788V161.353H108.95L108.786 165.447ZM101.943 161.353H105.737V154.708H103.215L103.044 157.326C102.907 159.081 102.54 160.423 101.943 161.353ZM116.438 158.687H112.501V161.353H117.122V163H110.45V153.047H117.108V154.708H112.501V157.08H116.438V158.687ZM126.374 154.708H123.325V163H121.274V154.708H118.267V153.047H126.374V154.708ZM132.769 160.949H129.173L128.489 163H126.309L130.014 153.047H131.914L135.64 163H133.459L132.769 160.949ZM129.727 159.288H132.215L130.964 155.562L129.727 159.288ZM145.206 153.047V163H143.149V154.708H140.496L140.332 158.222C140.264 159.407 140.113 160.341 139.881 161.024C139.649 161.703 139.309 162.202 138.863 162.521C138.416 162.836 137.805 162.995 137.03 163H136.497V161.353L136.839 161.318C137.354 161.25 137.721 160.954 137.94 160.43C138.163 159.901 138.304 158.962 138.363 157.613L138.534 153.047H145.206ZM152.018 163V159.411H150.35L148.552 163H146.337L148.463 158.755C147.438 158.19 146.925 157.312 146.925 156.123C146.925 155.148 147.244 154.394 147.882 153.86C148.52 153.327 149.411 153.056 150.555 153.047H154.075V163H152.018ZM148.976 156.273C148.976 156.829 149.11 157.233 149.379 157.483C149.653 157.734 150.06 157.859 150.603 157.859H152.018V154.708H150.603C149.518 154.708 148.976 155.23 148.976 156.273ZM158.87 153.047L161.427 160.266L163.97 153.047H166.663V163H164.606V160.279L164.811 155.583L162.124 163H160.716L158.036 155.59L158.242 160.279V163H156.191V153.047H158.87Z" fill="#212121"/>
<path d="M7.43066 183.047H8.74316V193H7.43066V185.33L2.5293 193H1.20996V183.047H2.5293V190.717L7.43066 183.047ZM11.4464 191.968L11.8839 191.428C12.3761 190.79 12.6563 189.833 12.7247 188.557L12.8409 185.604H17.6055V191.968H18.5557V195.174H17.2911V193H12.13V195.174H10.8653L10.8721 191.968H11.4464ZM12.9434 191.968H16.3409V186.772H14.0645L13.9893 188.536C13.9119 190.008 13.5632 191.152 12.9434 191.968ZM23.4464 193.137C22.4438 193.137 21.6281 192.809 20.9992 192.152C20.3703 191.492 20.0558 190.61 20.0558 189.507V189.274C20.0558 188.541 20.1948 187.887 20.4728 187.312C20.7554 186.734 21.1473 186.283 21.6486 185.959C22.1545 185.631 22.7013 185.467 23.2892 185.467C24.2508 185.467 24.9982 185.784 25.5314 186.417C26.0646 187.05 26.3312 187.957 26.3312 189.138V189.664H21.3205C21.3387 190.393 21.5506 190.983 21.9562 191.435C22.3664 191.881 22.8859 192.104 23.5148 192.104C23.9614 192.104 24.3397 192.013 24.6496 191.831C24.9595 191.649 25.2306 191.407 25.463 191.106L26.2355 191.708C25.6157 192.66 24.686 193.137 23.4464 193.137ZM23.2892 186.506C22.7788 186.506 22.3504 186.693 22.0041 187.066C21.6577 187.436 21.4435 187.955 21.3615 188.625H25.0666V188.529C25.0301 187.887 24.8569 187.39 24.547 187.039C24.2371 186.684 23.8179 186.506 23.2892 186.506ZM33.0061 185.604H34.2707V193H33.0061V187.606L29.595 193H28.3303V185.604H29.595V191.004L33.0061 185.604ZM33.3479 182.91C33.3479 183.462 33.1588 183.906 32.7805 184.243C32.4068 184.576 31.9146 184.742 31.3039 184.742C30.6933 184.742 30.1988 184.574 29.8205 184.236C29.4423 183.899 29.2532 183.457 29.2532 182.91H30.2854C30.2854 183.229 30.372 183.48 30.5452 183.662C30.7183 183.84 30.9713 183.929 31.3039 183.929C31.623 183.929 31.8713 183.84 32.0491 183.662C32.2314 183.484 32.3225 183.234 32.3225 182.91H33.3479ZM42.764 193H41.4993V189.842H38.1019V193H36.8304V185.604H38.1019V188.81H41.4993V185.604H42.764V193ZM46.602 188.153H48.5229C49.3614 188.162 50.0245 188.381 50.5121 188.81C50.9997 189.238 51.2436 189.819 51.2436 190.553C51.2436 191.291 50.9929 191.883 50.4916 192.33C49.9903 192.777 49.3158 193 48.4682 193H45.3373V185.604H46.602V188.153ZM53.8822 193H52.6107V185.604H53.8822V193ZM46.602 189.186V191.968H48.4818C48.9558 191.968 49.3227 191.847 49.5824 191.605C49.8422 191.359 49.9721 191.024 49.9721 190.601C49.9721 190.19 49.8445 189.855 49.5893 189.596C49.3386 189.331 48.9854 189.195 48.5297 189.186H46.602ZM59.5796 193.137C58.577 193.137 57.7612 192.809 57.1323 192.152C56.5034 191.492 56.1889 190.61 56.1889 189.507V189.274C56.1889 188.541 56.3279 187.887 56.6059 187.312C56.8885 186.734 57.2804 186.283 57.7817 185.959C58.2876 185.631 58.8345 185.467 59.4223 185.467C60.3839 185.467 61.1313 185.784 61.6645 186.417C62.1977 187.05 62.4643 187.957 62.4643 189.138V189.664H57.4536C57.4718 190.393 57.6837 190.983 58.0893 191.435C58.4995 191.881 59.019 192.104 59.6479 192.104C60.0945 192.104 60.4728 192.013 60.7827 191.831C61.0926 191.649 61.3638 191.407 61.5962 191.106L62.3686 191.708C61.7488 192.66 60.8192 193.137 59.5796 193.137ZM59.4223 186.506C58.9119 186.506 58.4835 186.693 58.1372 187.066C57.7908 187.436 57.5766 187.955 57.4946 188.625H61.1997V188.529C61.1632 187.887 60.9901 187.39 60.6802 187.039C60.3703 186.684 59.951 186.506 59.4223 186.506ZM71.2135 192.104C71.6647 192.104 72.0589 191.968 72.3961 191.694C72.7334 191.421 72.9202 191.079 72.9567 190.669H74.153C74.1302 191.093 73.9843 191.496 73.7155 191.879C73.4466 192.262 73.0866 192.567 72.6354 192.795C72.1888 193.023 71.7148 193.137 71.2135 193.137C70.2064 193.137 69.4043 192.802 68.8073 192.132C68.2148 191.457 67.9186 190.537 67.9186 189.37V189.158C67.9186 188.438 68.0508 187.798 68.3151 187.237C68.5794 186.677 68.9577 186.242 69.4498 185.932C69.9466 185.622 70.5322 185.467 71.2067 185.467C72.0361 185.467 72.7243 185.715 73.2711 186.212C73.8226 186.709 74.1165 187.354 74.153 188.146H72.9567C72.9202 187.668 72.7379 187.276 72.4098 186.971C72.0862 186.661 71.6852 186.506 71.2067 186.506C70.5641 186.506 70.0651 186.738 69.7096 187.203C69.3587 187.663 69.1832 188.331 69.1832 189.206V189.445C69.1832 190.298 69.3587 190.954 69.7096 191.414C70.0605 191.874 70.5618 192.104 71.2135 192.104ZM75.6599 189.233C75.6599 188.509 75.8012 187.857 76.0837 187.278C76.3708 186.7 76.7673 186.253 77.2732 185.938C77.7836 185.624 78.3646 185.467 79.0163 185.467C80.0235 185.467 80.837 185.815 81.4568 186.513C82.0811 187.21 82.3933 188.137 82.3933 189.295V189.384C82.3933 190.104 82.2543 190.751 81.9763 191.325C81.7029 191.895 81.3086 192.339 80.7937 192.658C80.2833 192.977 79.6954 193.137 79.03 193.137C78.0274 193.137 77.2139 192.788 76.5896 192.091C75.9698 191.394 75.6599 190.471 75.6599 189.322V189.233ZM76.9314 189.384C76.9314 190.204 77.1205 190.863 77.4987 191.359C77.8816 191.856 78.392 192.104 79.03 192.104C79.6726 192.104 80.183 191.854 80.5612 191.353C80.9395 190.847 81.1286 190.14 81.1286 189.233C81.1286 188.422 80.9349 187.766 80.5476 187.265C80.1648 186.759 79.6543 186.506 79.0163 186.506C78.392 186.506 77.8884 186.754 77.5056 187.251C77.1228 187.748 76.9314 188.459 76.9314 189.384ZM84.0643 189.233C84.0643 188.509 84.2055 187.857 84.4881 187.278C84.7752 186.7 85.1717 186.253 85.6775 185.938C86.188 185.624 86.769 185.467 87.4207 185.467C88.4279 185.467 89.2413 185.815 89.8611 186.513C90.4855 187.21 90.7977 188.137 90.7977 189.295V189.384C90.7977 190.104 90.6587 190.751 90.3807 191.325C90.1072 191.895 89.713 192.339 89.198 192.658C88.6876 192.977 88.0997 193.137 87.4344 193.137C86.4318 193.137 85.6183 192.788 84.9939 192.091C84.3742 191.394 84.0643 190.471 84.0643 189.322V189.233ZM85.3357 189.384C85.3357 190.204 85.5249 190.863 85.9031 191.359C86.2859 191.856 86.7964 192.104 87.4344 192.104C88.077 192.104 88.5874 191.854 88.9656 191.353C89.3439 190.847 89.533 190.14 89.533 189.233C89.533 188.422 89.3393 187.766 88.952 187.265C88.5691 186.759 88.0587 186.506 87.4207 186.506C86.7964 186.506 86.2928 186.754 85.91 187.251C85.5271 187.748 85.3357 188.459 85.3357 189.384ZM96.0507 186.027C96.9804 186.027 97.7232 186.34 98.2792 186.964C98.8397 187.584 99.12 188.402 99.12 189.418V189.534C99.12 190.231 98.9856 190.856 98.7167 191.407C98.4478 191.954 98.0604 192.38 97.5546 192.686C97.0533 192.986 96.4745 193.137 95.8182 193.137C94.8248 193.137 94.025 192.806 93.4188 192.146C92.8127 191.48 92.5097 190.589 92.5097 189.473V188.857C92.5097 187.303 92.7968 186.068 93.371 185.152C93.9498 184.236 94.802 183.678 95.9276 183.478C96.5656 183.364 96.9963 183.225 97.2196 183.061C97.4429 182.896 97.5546 182.671 97.5546 182.384H98.5936C98.5936 182.953 98.4638 183.398 98.204 183.717C97.9488 184.036 97.5386 184.261 96.9735 184.394L96.0302 184.605C95.2782 184.783 94.7131 185.084 94.3348 185.508C93.9611 185.927 93.7173 186.488 93.6034 187.189C94.2733 186.415 95.0891 186.027 96.0507 186.027ZM95.8046 187.066C95.1848 187.066 94.6926 187.276 94.328 187.695C93.9634 188.11 93.7811 188.687 93.7811 189.425V189.534C93.7811 190.327 93.9634 190.956 94.328 191.421C94.6972 191.881 95.1939 192.111 95.8182 192.111C96.4472 192.111 96.9439 191.879 97.3085 191.414C97.6731 190.949 97.8554 190.27 97.8554 189.377C97.8554 188.68 97.6708 188.121 97.3016 187.702C96.9371 187.278 96.438 187.066 95.8046 187.066ZM107.087 189.384C107.087 190.509 106.829 191.416 106.314 192.104C105.799 192.793 105.102 193.137 104.223 193.137C103.325 193.137 102.618 192.852 102.103 192.282V195.844H100.839V185.604H101.994L102.056 186.424C102.571 185.786 103.286 185.467 104.202 185.467C105.091 185.467 105.793 185.802 106.308 186.472C106.827 187.142 107.087 188.074 107.087 189.268V189.384ZM105.822 189.24C105.822 188.406 105.644 187.748 105.289 187.265C104.934 186.782 104.446 186.54 103.826 186.54C103.061 186.54 102.486 186.88 102.103 187.559V191.093C102.482 191.767 103.061 192.104 103.84 192.104C104.446 192.104 104.927 191.865 105.282 191.387C105.642 190.904 105.822 190.188 105.822 189.24ZM113.687 193C113.614 192.854 113.554 192.594 113.509 192.221C112.921 192.831 112.219 193.137 111.403 193.137C110.674 193.137 110.075 192.932 109.606 192.521C109.141 192.107 108.908 191.583 108.908 190.949C108.908 190.179 109.2 189.582 109.783 189.158C110.371 188.73 111.196 188.516 112.258 188.516H113.488V187.935C113.488 187.493 113.356 187.142 113.092 186.882C112.828 186.618 112.438 186.485 111.923 186.485C111.472 186.485 111.093 186.599 110.788 186.827C110.483 187.055 110.33 187.331 110.33 187.654H109.059C109.059 187.285 109.189 186.93 109.448 186.588C109.713 186.242 110.068 185.968 110.515 185.768C110.966 185.567 111.46 185.467 111.998 185.467C112.85 185.467 113.518 185.681 114.001 186.109C114.484 186.533 114.735 187.119 114.753 187.866V191.271C114.753 191.95 114.84 192.49 115.013 192.891V193H113.687ZM111.588 192.036C111.984 192.036 112.36 191.934 112.716 191.729C113.071 191.523 113.329 191.257 113.488 190.929V189.411H112.497C110.948 189.411 110.173 189.865 110.173 190.771C110.173 191.168 110.305 191.478 110.569 191.701C110.834 191.924 111.173 192.036 111.588 192.036ZM123.055 189.787H122.166V193H120.901V189.787H120.013L117.942 193H116.342L118.987 189.172L116.595 185.604H118.126L120.033 188.666H120.901V185.604H122.166V188.666H123.027L124.948 185.604H126.48L124.08 189.179L126.726 193H125.126L123.055 189.787ZM131.227 193.137C130.224 193.137 129.408 192.809 128.779 192.152C128.151 191.492 127.836 190.61 127.836 189.507V189.274C127.836 188.541 127.975 187.887 128.253 187.312C128.536 186.734 128.928 186.283 129.429 185.959C129.935 185.631 130.482 185.467 131.07 185.467C132.031 185.467 132.779 185.784 133.312 186.417C133.845 187.05 134.112 187.957 134.112 189.138V189.664H129.101C129.119 190.393 129.331 190.983 129.737 191.435C130.147 191.881 130.666 192.104 131.295 192.104C131.742 192.104 132.12 192.013 132.43 191.831C132.74 191.649 133.011 191.407 133.243 191.106L134.016 191.708C133.396 192.66 132.466 193.137 131.227 193.137ZM131.07 186.506C130.559 186.506 130.131 186.693 129.784 187.066C129.438 187.436 129.224 187.955 129.142 188.625H132.847V188.529C132.81 187.887 132.637 187.39 132.327 187.039C132.017 186.684 131.598 186.506 131.07 186.506ZM142.044 193H140.78V189.842H137.382V193H136.111V185.604H137.382V188.81H140.78V185.604H142.044V193ZM149.286 185.604H150.551V193H149.286V187.606L145.875 193H144.611V185.604H145.875V191.004L149.286 185.604ZM158.655 185.604V193H157.383V190.122H155.476L153.733 193H152.366L154.225 189.931C153.751 189.757 153.386 189.491 153.131 189.131C152.881 188.766 152.755 188.342 152.755 187.859C152.755 187.185 153.008 186.643 153.514 186.232C154.02 185.818 154.697 185.608 155.544 185.604H158.655ZM154.027 187.873C154.027 188.233 154.15 188.525 154.396 188.748C154.642 188.967 154.968 189.078 155.373 189.083H157.383V186.629H155.565C155.095 186.629 154.722 186.745 154.444 186.978C154.166 187.205 154.027 187.504 154.027 187.873ZM161.064 194.982L160.346 194.49C160.775 193.893 160.998 193.278 161.016 192.645V191.503H162.253V192.494C162.253 192.954 162.14 193.415 161.912 193.875C161.688 194.335 161.406 194.704 161.064 194.982ZM172.732 193C172.659 192.854 172.6 192.594 172.554 192.221C171.966 192.831 171.265 193.137 170.449 193.137C169.72 193.137 169.12 192.932 168.651 192.521C168.186 192.107 167.954 191.583 167.954 190.949C167.954 190.179 168.245 189.582 168.829 189.158C169.417 188.73 170.242 188.516 171.303 188.516H172.534V187.935C172.534 187.493 172.402 187.142 172.137 186.882C171.873 186.618 171.483 186.485 170.968 186.485C170.517 186.485 170.139 186.599 169.834 186.827C169.528 187.055 169.376 187.331 169.376 187.654H168.104C168.104 187.285 168.234 186.93 168.494 186.588C168.758 186.242 169.114 185.968 169.56 185.768C170.011 185.567 170.506 185.467 171.044 185.467C171.896 185.467 172.563 185.681 173.047 186.109C173.53 186.533 173.78 187.119 173.799 187.866V191.271C173.799 191.95 173.885 192.49 174.058 192.891V193H172.732ZM170.633 192.036C171.03 192.036 171.406 191.934 171.761 191.729C172.117 191.523 172.374 191.257 172.534 190.929V189.411H171.543C169.993 189.411 169.218 189.865 169.218 190.771C169.218 191.168 169.351 191.478 169.615 191.701C169.879 191.924 170.219 192.036 170.633 192.036ZM185.59 186.629H183.108V193H181.844V186.629H179.41V185.604H185.59V186.629ZM191.697 193C191.624 192.854 191.565 192.594 191.519 192.221C190.932 192.831 190.23 193.137 189.414 193.137C188.685 193.137 188.086 192.932 187.616 192.521C187.151 192.107 186.919 191.583 186.919 190.949C186.919 190.179 187.211 189.582 187.794 189.158C188.382 188.73 189.207 188.516 190.268 188.516H191.499V187.935C191.499 187.493 191.367 187.142 191.102 186.882C190.838 186.618 190.448 186.485 189.934 186.485C189.482 186.485 189.104 186.599 188.799 186.827C188.493 187.055 188.341 187.331 188.341 187.654H187.069C187.069 187.285 187.199 186.93 187.459 186.588C187.723 186.242 188.079 185.968 188.525 185.768C188.976 185.567 189.471 185.467 190.009 185.467C190.861 185.467 191.529 185.681 192.012 186.109C192.495 186.533 192.745 187.119 192.764 187.866V191.271C192.764 191.95 192.85 192.49 193.023 192.891V193H191.697ZM189.599 192.036C189.995 192.036 190.371 191.934 190.726 191.729C191.082 191.523 191.339 191.257 191.499 190.929V189.411H190.508C188.958 189.411 188.184 189.865 188.184 190.771C188.184 191.168 188.316 191.478 188.58 191.701C188.844 191.924 189.184 192.036 189.599 192.036ZM197.47 189.849H196.547V193H195.275V185.604H196.547V188.734H197.374L199.862 185.604H201.394L198.468 189.158L201.64 193H200.033L197.47 189.849ZM209.046 189.787H208.157V193H206.893V189.787H206.004L203.933 193H202.333L204.979 189.172L202.586 185.604H204.117L206.024 188.666H206.893V185.604H208.157V188.666H209.019L210.94 185.604H212.471L210.071 189.179L212.717 193H211.117L209.046 189.787ZM217.218 193.137C216.215 193.137 215.4 192.809 214.771 192.152C214.142 191.492 213.827 190.61 213.827 189.507V189.274C213.827 188.541 213.966 187.887 214.244 187.312C214.527 186.734 214.919 186.283 215.42 185.959C215.926 185.631 216.473 185.467 217.061 185.467C218.022 185.467 218.77 185.784 219.303 186.417C219.836 187.05 220.103 187.957 220.103 189.138V189.664H215.092C215.11 190.393 215.322 190.983 215.728 191.435C216.138 191.881 216.657 192.104 217.286 192.104C217.733 192.104 218.111 192.013 218.421 191.831C218.731 191.649 219.002 191.407 219.235 191.106L220.007 191.708C219.387 192.66 218.458 193.137 217.218 193.137ZM217.061 186.506C216.55 186.506 216.122 186.693 215.776 187.066C215.429 187.436 215.215 187.955 215.133 188.625H218.838V188.529C218.802 187.887 218.628 187.39 218.319 187.039C218.009 186.684 217.589 186.506 217.061 186.506ZM231.928 193H230.663V189.842H227.266V193H225.994V185.604H227.266V188.81H230.663V185.604H231.928V193ZM238.952 193C238.879 192.854 238.819 192.594 238.774 192.221C238.186 192.831 237.484 193.137 236.668 193.137C235.939 193.137 235.34 192.932 234.871 192.521C234.406 192.107 234.173 191.583 234.173 190.949C234.173 190.179 234.465 189.582 235.048 189.158C235.636 188.73 236.461 188.516 237.523 188.516H238.753V187.935C238.753 187.493 238.621 187.142 238.357 186.882C238.093 186.618 237.703 186.485 237.188 186.485C236.737 186.485 236.358 186.599 236.053 186.827C235.748 187.055 235.595 187.331 235.595 187.654H234.324C234.324 187.285 234.454 186.93 234.713 186.588C234.978 186.242 235.333 185.968 235.78 185.768C236.231 185.567 236.725 185.467 237.263 185.467C238.115 185.467 238.783 185.681 239.266 186.109C239.749 186.533 240 187.119 240.018 187.866V191.271C240.018 191.95 240.105 192.49 240.278 192.891V193H238.952ZM236.853 192.036C237.249 192.036 237.625 191.934 237.981 191.729C238.336 191.523 238.594 191.257 238.753 190.929V189.411H237.762C236.213 189.411 235.438 189.865 235.438 190.771C235.438 191.168 235.57 191.478 235.834 191.701C236.099 191.924 236.438 192.036 236.853 192.036ZM248.005 193H246.734V190.32C246.178 190.466 245.608 190.539 245.025 190.539C244.1 190.539 243.393 190.302 242.906 189.828C242.423 189.354 242.177 188.68 242.167 187.805V185.597H243.432V187.846C243.455 188.949 243.986 189.5 245.025 189.5C245.608 189.5 246.178 189.427 246.734 189.281V185.604H248.005V193ZM255.022 193C254.949 192.854 254.89 192.594 254.844 192.221C254.256 192.831 253.555 193.137 252.739 193.137C252.01 193.137 251.41 192.932 250.941 192.521C250.476 192.107 250.244 191.583 250.244 190.949C250.244 190.179 250.535 189.582 251.119 189.158C251.707 188.73 252.531 188.516 253.593 188.516H254.824V187.935C254.824 187.493 254.692 187.142 254.427 186.882C254.163 186.618 253.773 186.485 253.258 186.485C252.807 186.485 252.429 186.599 252.124 186.827C251.818 187.055 251.666 187.331 251.666 187.654H250.394C250.394 187.285 250.524 186.93 250.784 186.588C251.048 186.242 251.404 185.968 251.85 185.768C252.301 185.567 252.796 185.467 253.334 185.467C254.186 185.467 254.853 185.681 255.336 186.109C255.82 186.533 256.07 187.119 256.088 187.866V191.271C256.088 191.95 256.175 192.49 256.348 192.891V193H255.022ZM252.923 192.036C253.32 192.036 253.696 191.934 254.051 191.729C254.407 191.523 254.664 191.257 254.824 190.929V189.411H253.833C252.283 189.411 251.508 189.865 251.508 190.771C251.508 191.168 251.641 191.478 251.905 191.701C252.169 191.924 252.509 192.036 252.923 192.036ZM264.554 185.604V193H263.283V186.649H260.767L260.617 189.418C260.535 190.689 260.321 191.599 259.974 192.146C259.632 192.692 259.088 192.977 258.34 193H257.835V191.886L258.197 191.858C258.607 191.813 258.901 191.576 259.079 191.147C259.256 190.719 259.37 189.926 259.421 188.769L259.557 185.604H264.554ZM266.67 189.233C266.67 188.509 266.811 187.857 267.093 187.278C267.381 186.7 267.777 186.253 268.283 185.938C268.793 185.624 269.374 185.467 270.026 185.467C271.033 185.467 271.847 185.815 272.467 186.513C273.091 187.21 273.403 188.137 273.403 189.295V189.384C273.403 190.104 273.264 190.751 272.986 191.325C272.713 191.895 272.318 192.339 271.803 192.658C271.293 192.977 270.705 193.137 270.04 193.137C269.037 193.137 268.224 192.788 267.599 192.091C266.98 191.394 266.67 190.471 266.67 189.322V189.233ZM267.941 189.384C267.941 190.204 268.13 190.863 268.509 191.359C268.891 191.856 269.402 192.104 270.04 192.104C270.682 192.104 271.193 191.854 271.571 191.353C271.949 190.847 272.138 190.14 272.138 189.233C272.138 188.422 271.945 187.766 271.557 187.265C271.175 186.759 270.664 186.506 270.026 186.506C269.402 186.506 268.898 186.754 268.515 187.251C268.133 187.748 267.941 188.459 267.941 189.384ZM7.00684 217H5.74219V210.649H2.33789V217H1.06641V209.604H7.00684V217ZM9.12215 213.233C9.12215 212.509 9.26342 211.857 9.54598 211.278C9.83309 210.7 10.2296 210.253 10.7354 209.938C11.2458 209.624 11.8269 209.467 12.4786 209.467C13.4858 209.467 14.2992 209.815 14.919 210.513C15.5434 211.21 15.8555 212.137 15.8555 213.295V213.384C15.8555 214.104 15.7165 214.751 15.4386 215.325C15.1651 215.895 14.7709 216.339 14.2559 216.658C13.7455 216.977 13.1576 217.137 12.4923 217.137C11.4897 217.137 10.6762 216.788 10.0518 216.091C9.43204 215.394 9.12215 214.471 9.12215 213.322V213.233ZM10.3936 213.384C10.3936 214.204 10.5828 214.863 10.961 215.359C11.3438 215.856 11.8542 216.104 12.4923 216.104C13.1348 216.104 13.6453 215.854 14.0235 215.353C14.4018 214.847 14.5909 214.14 14.5909 213.233C14.5909 212.422 14.3972 211.766 14.0098 211.265C13.627 210.759 13.1166 210.506 12.4786 210.506C11.8542 210.506 11.3507 210.754 10.9679 211.251C10.585 211.748 10.3936 212.459 10.3936 213.384ZM17.9777 217V209.604H20.8625C21.8468 209.604 22.6011 209.777 23.1252 210.123C23.6538 210.465 23.9181 210.968 23.9181 211.634C23.9181 211.976 23.8156 212.285 23.6105 212.563C23.4054 212.837 23.1024 213.047 22.7013 213.192C23.1479 213.297 23.5057 213.502 23.7746 213.808C24.048 214.113 24.1847 214.478 24.1847 214.901C24.1847 215.58 23.9341 216.1 23.4328 216.46C22.936 216.82 22.2319 217 21.3205 217H17.9777ZM19.2423 213.753V215.981H21.3341C21.8628 215.981 22.257 215.883 22.5168 215.688C22.7811 215.492 22.9132 215.216 22.9132 214.86C22.9132 214.122 22.3709 213.753 21.2863 213.753H19.2423ZM19.2423 212.741H20.8761C22.061 212.741 22.6535 212.395 22.6535 211.702C22.6535 211.009 22.0929 210.652 20.9718 210.629H19.2423V212.741ZM29.2463 216.104C29.6975 216.104 30.0917 215.968 30.4289 215.694C30.7662 215.421 30.953 215.079 30.9895 214.669H32.1858C32.163 215.093 32.0172 215.496 31.7483 215.879C31.4794 216.262 31.1194 216.567 30.6682 216.795C30.2216 217.023 29.7476 217.137 29.2463 217.137C28.2392 217.137 27.4371 216.802 26.8401 216.132C26.2476 215.457 25.9514 214.537 25.9514 213.37V213.158C25.9514 212.438 26.0836 211.798 26.3479 211.237C26.6122 210.677 26.9905 210.242 27.4827 209.932C27.9794 209.622 28.565 209.467 29.2395 209.467C30.0689 209.467 30.7571 209.715 31.3039 210.212C31.8554 210.709 32.1493 211.354 32.1858 212.146H30.9895C30.953 211.668 30.7707 211.276 30.4426 210.971C30.119 210.661 29.718 210.506 29.2395 210.506C28.5969 210.506 28.0979 210.738 27.7424 211.203C27.3915 211.663 27.2161 212.331 27.2161 213.206V213.445C27.2161 214.298 27.3915 214.954 27.7424 215.414C28.0933 215.874 28.5946 216.104 29.2463 216.104ZM37.097 217.137C36.0944 217.137 35.2786 216.809 34.6497 216.152C34.0208 215.492 33.7064 214.61 33.7064 213.507V213.274C33.7064 212.541 33.8454 211.887 34.1234 211.312C34.4059 210.734 34.7978 210.283 35.2991 209.959C35.805 209.631 36.3519 209.467 36.9398 209.467C37.9014 209.467 38.6488 209.784 39.182 210.417C39.7152 211.05 39.9818 211.957 39.9818 213.138V213.664H34.971C34.9892 214.393 35.2012 214.983 35.6068 215.435C36.0169 215.881 36.5364 216.104 37.1654 216.104C37.612 216.104 37.9902 216.013 38.3001 215.831C38.61 215.649 38.8812 215.407 39.1136 215.106L39.8861 215.708C39.2663 216.66 38.3366 217.137 37.097 217.137ZM36.9398 210.506C36.4293 210.506 36.001 210.693 35.6546 211.066C35.3083 211.436 35.0941 211.955 35.012 212.625H38.7171V212.529C38.6807 211.887 38.5075 211.39 38.1976 211.039C37.8877 210.684 37.4684 210.506 36.9398 210.506ZM41.81 215.968L42.2475 215.428C42.7396 214.79 43.0199 213.833 43.0883 212.557L43.2045 209.604H47.9691V215.968H48.9193V219.174H47.6547V217H42.4936V219.174H41.2289L41.2357 215.968H41.81ZM43.307 215.968H46.7045V210.772H44.4281L44.3529 212.536C44.2755 214.008 43.9268 215.152 43.307 215.968ZM56.7837 217H55.519V213.842H52.1216V217H50.8501V209.604H52.1216V212.81H55.519V209.604H56.7837V217ZM62.3101 217.137C61.3075 217.137 60.4918 216.809 59.8629 216.152C59.2339 215.492 58.9195 214.61 58.9195 213.507V213.274C58.9195 212.541 59.0585 211.887 59.3365 211.312C59.619 210.734 60.011 210.283 60.5123 209.959C61.0181 209.631 61.565 209.467 62.1529 209.467C63.1145 209.467 63.8619 209.784 64.3951 210.417C64.9283 211.05 65.1949 211.957 65.1949 213.138V213.664H60.1841C60.2024 214.393 60.4143 214.983 60.8199 215.435C61.23 215.881 61.7496 216.104 62.3785 216.104C62.8251 216.104 63.2033 216.013 63.5132 215.831C63.8231 215.649 64.0943 215.407 64.3267 215.106L65.0992 215.708C64.4794 216.66 63.5497 217.137 62.3101 217.137ZM62.1529 210.506C61.6425 210.506 61.2141 210.693 60.8677 211.066C60.5214 211.436 60.3072 211.955 60.2252 212.625H63.9302V212.529C63.8938 211.887 63.7206 211.39 63.4107 211.039C63.1008 210.684 62.6815 210.506 62.1529 210.506ZM67.2008 217V209.604H70.0856C71.07 209.604 71.8242 209.777 72.3483 210.123C72.8769 210.465 73.1413 210.968 73.1413 211.634C73.1413 211.976 73.0387 212.285 72.8336 212.563C72.6286 212.837 72.3255 213.047 71.9245 213.192C72.3711 213.297 72.7288 213.502 72.9977 213.808C73.2711 214.113 73.4079 214.478 73.4079 214.901C73.4079 215.58 73.1572 216.1 72.6559 216.46C72.1592 216.82 71.4551 217 70.5436 217H67.2008ZM68.4655 213.753V215.981H70.5573C71.0859 215.981 71.4801 215.883 71.7399 215.688C72.0042 215.492 72.1364 215.216 72.1364 214.86C72.1364 214.122 71.5941 213.753 70.5094 213.753H68.4655ZM68.4655 212.741H70.0993C71.2842 212.741 71.8766 212.395 71.8766 211.702C71.8766 211.009 71.3161 210.652 70.195 210.629H68.4655V212.741ZM81.5456 217H80.281V213.842H76.8835V217H75.612V209.604H76.8835V212.81H80.281V209.604H81.5456V217ZM83.6678 213.233C83.6678 212.509 83.809 211.857 84.0916 211.278C84.3787 210.7 84.7752 210.253 85.2811 209.938C85.7915 209.624 86.3725 209.467 87.0242 209.467C88.0314 209.467 88.8449 209.815 89.4646 210.513C90.089 211.21 90.4012 212.137 90.4012 213.295V213.384C90.4012 214.104 90.2622 214.751 89.9842 215.325C89.7107 215.895 89.3165 216.339 88.8016 216.658C88.2911 216.977 87.7033 217.137 87.0379 217.137C86.0353 217.137 85.2218 216.788 84.5975 216.091C83.9777 215.394 83.6678 214.471 83.6678 213.322V213.233ZM84.9393 213.384C84.9393 214.204 85.1284 214.863 85.5066 215.359C85.8895 215.856 86.3999 216.104 87.0379 216.104C87.6805 216.104 88.1909 215.854 88.5691 215.353C88.9474 214.847 89.1365 214.14 89.1365 213.233C89.1365 212.422 88.9428 211.766 88.5555 211.265C88.1727 210.759 87.6622 210.506 87.0242 210.506C86.3999 210.506 85.8963 210.754 85.5135 211.251C85.1307 211.748 84.9393 212.459 84.9393 213.384ZM97.1923 209.604H98.4569V217H97.1923V211.606L93.7811 217H92.5165V209.604H93.7811V215.004L97.1923 209.604ZM97.5341 206.91C97.5341 207.462 97.3449 207.906 96.9667 208.243C96.593 208.576 96.1008 208.742 95.4901 208.742C94.8794 208.742 94.385 208.574 94.0067 208.236C93.6285 207.899 93.4393 207.457 93.4393 206.91H94.4716C94.4716 207.229 94.5582 207.48 94.7313 207.662C94.9045 207.84 95.1574 207.929 95.4901 207.929C95.8091 207.929 96.0575 207.84 96.2352 207.662C96.4175 207.484 96.5087 207.234 96.5087 206.91H97.5341ZM111.048 213.384C111.048 214.509 110.79 215.416 110.275 216.104C109.76 216.793 109.063 217.137 108.184 217.137C107.286 217.137 106.579 216.852 106.064 216.282V219.844H104.8V209.604H105.955L106.017 210.424C106.532 209.786 107.247 209.467 108.163 209.467C109.052 209.467 109.754 209.802 110.269 210.472C110.788 211.142 111.048 212.074 111.048 213.268V213.384ZM109.783 213.24C109.783 212.406 109.606 211.748 109.25 211.265C108.895 210.782 108.407 210.54 107.787 210.54C107.022 210.54 106.447 210.88 106.064 211.559V215.093C106.443 215.767 107.022 216.104 107.801 216.104C108.407 216.104 108.888 215.865 109.243 215.387C109.603 214.904 109.783 214.188 109.783 213.24ZM117.648 217C117.575 216.854 117.515 216.594 117.47 216.221C116.882 216.831 116.18 217.137 115.364 217.137C114.635 217.137 114.036 216.932 113.567 216.521C113.102 216.107 112.869 215.583 112.869 214.949C112.869 214.179 113.161 213.582 113.744 213.158C114.332 212.73 115.157 212.516 116.219 212.516H117.449V211.935C117.449 211.493 117.317 211.142 117.053 210.882C116.789 210.618 116.399 210.485 115.884 210.485C115.433 210.485 115.054 210.599 114.749 210.827C114.444 211.055 114.291 211.331 114.291 211.654H113.02C113.02 211.285 113.15 210.93 113.409 210.588C113.674 210.242 114.029 209.968 114.476 209.768C114.927 209.567 115.421 209.467 115.959 209.467C116.811 209.467 117.479 209.681 117.962 210.109C118.445 210.533 118.696 211.119 118.714 211.866V215.271C118.714 215.95 118.801 216.49 118.974 216.891V217H117.648ZM115.549 216.036C115.945 216.036 116.321 215.934 116.677 215.729C117.032 215.523 117.29 215.257 117.449 214.929V213.411H116.458C114.909 213.411 114.134 213.865 114.134 214.771C114.134 215.168 114.266 215.478 114.53 215.701C114.795 215.924 115.134 216.036 115.549 216.036ZM124.363 210.027C125.293 210.027 126.036 210.34 126.592 210.964C127.153 211.584 127.433 212.402 127.433 213.418V213.534C127.433 214.231 127.298 214.856 127.029 215.407C126.761 215.954 126.373 216.38 125.867 216.686C125.366 216.986 124.787 217.137 124.131 217.137C123.138 217.137 122.338 216.806 121.732 216.146C121.126 215.48 120.822 214.589 120.822 213.473V212.857C120.822 211.303 121.11 210.068 121.684 209.152C122.263 208.236 123.115 207.678 124.24 207.478C124.878 207.364 125.309 207.225 125.532 207.061C125.756 206.896 125.867 206.671 125.867 206.384H126.906C126.906 206.953 126.777 207.398 126.517 207.717C126.262 208.036 125.851 208.261 125.286 208.394L124.343 208.605C123.591 208.783 123.026 209.084 122.648 209.508C122.274 209.927 122.03 210.488 121.916 211.189C122.586 210.415 123.402 210.027 124.363 210.027ZM124.117 211.066C123.498 211.066 123.005 211.276 122.641 211.695C122.276 212.11 122.094 212.687 122.094 213.425V213.534C122.094 214.327 122.276 214.956 122.641 215.421C123.01 215.881 123.507 216.111 124.131 216.111C124.76 216.111 125.257 215.879 125.621 215.414C125.986 214.949 126.168 214.27 126.168 213.377C126.168 212.68 125.984 212.121 125.614 211.702C125.25 211.278 124.751 211.066 124.117 211.066ZM128.94 213.233C128.94 212.509 129.081 211.857 129.364 211.278C129.651 210.7 130.047 210.253 130.553 209.938C131.063 209.624 131.644 209.467 132.296 209.467C133.303 209.467 134.117 209.815 134.737 210.513C135.361 211.21 135.673 212.137 135.673 213.295V213.384C135.673 214.104 135.534 214.751 135.256 215.325C134.983 215.895 134.588 216.339 134.074 216.658C133.563 216.977 132.975 217.137 132.31 217.137C131.307 217.137 130.494 216.788 129.869 216.091C129.25 215.394 128.94 214.471 128.94 213.322V213.233ZM130.211 213.384C130.211 214.204 130.4 214.863 130.779 215.359C131.161 215.856 131.672 216.104 132.31 216.104C132.952 216.104 133.463 215.854 133.841 215.353C134.219 214.847 134.408 214.14 134.408 213.233C134.408 212.422 134.215 211.766 133.827 211.265C133.445 210.759 132.934 210.506 132.296 210.506C131.672 210.506 131.168 210.754 130.785 211.251C130.403 211.748 130.211 212.459 130.211 213.384ZM143.025 210.629H140.543V217H139.279V210.629H136.845V209.604H143.025V210.629ZM146.056 212.153H147.977C148.816 212.162 149.479 212.381 149.966 212.81C150.454 213.238 150.698 213.819 150.698 214.553C150.698 215.291 150.447 215.883 149.946 216.33C149.444 216.777 148.77 217 147.922 217H144.791V209.604H146.056V212.153ZM153.336 217H152.065V209.604H153.336V217ZM146.056 213.186V215.968H147.936C148.41 215.968 148.777 215.847 149.037 215.605C149.296 215.359 149.426 215.024 149.426 214.601C149.426 214.19 149.299 213.855 149.043 213.596C148.793 213.331 148.44 213.195 147.984 213.186H146.056ZM165.907 217H164.642V210.649H161.238V217H159.966V209.604H165.907V217ZM168.022 213.233C168.022 212.509 168.163 211.857 168.446 211.278C168.733 210.7 169.13 210.253 169.635 209.938C170.146 209.624 170.727 209.467 171.379 209.467C172.386 209.467 173.199 209.815 173.819 210.513C174.443 211.21 174.756 212.137 174.756 213.295V213.384C174.756 214.104 174.617 214.751 174.339 215.325C174.065 215.895 173.671 216.339 173.156 216.658C172.646 216.977 172.058 217.137 171.392 217.137C170.39 217.137 169.576 216.788 168.952 216.091C168.332 215.394 168.022 214.471 168.022 213.322V213.233ZM169.294 213.384C169.294 214.204 169.483 214.863 169.861 215.359C170.244 215.856 170.754 216.104 171.392 216.104C172.035 216.104 172.545 215.854 172.924 215.353C173.302 214.847 173.491 214.14 173.491 213.233C173.491 212.422 173.297 211.766 172.91 211.265C172.527 210.759 172.017 210.506 171.379 210.506C170.754 210.506 170.251 210.754 169.868 211.251C169.485 211.748 169.294 212.459 169.294 213.384ZM0.683594 237.438C0.683594 236.203 0.922852 235.233 1.40137 234.526C1.87988 233.82 2.53613 233.467 3.37012 233.467C3.75749 233.467 4.09701 233.533 4.38867 233.665V230.5H5.65332V233.706C5.97233 233.547 6.34603 233.467 6.77441 233.467C7.61296 233.467 8.27148 233.82 8.75 234.526C9.22852 235.233 9.46777 236.251 9.46777 237.582C9.46777 238.671 9.22852 239.537 8.75 240.18C8.27604 240.822 7.62207 241.144 6.78809 241.144C6.34603 241.144 5.96777 241.071 5.65332 240.925V243.844H4.38867V240.945C4.08789 241.077 3.74382 241.144 3.35645 241.144C2.52702 241.144 1.87305 240.822 1.39453 240.18C0.920573 239.537 0.683594 238.658 0.683594 237.541V237.438ZM8.20312 237.438C8.20312 236.509 8.04362 235.789 7.72461 235.278C7.4056 234.763 6.96582 234.506 6.40527 234.506C6.11816 234.506 5.86751 234.551 5.65332 234.643V239.995C5.8584 240.073 6.11361 240.111 6.41895 240.111C6.98405 240.111 7.42155 239.893 7.73145 239.455C8.0459 239.018 8.20312 238.345 8.20312 237.438ZM1.94824 237.582C1.94824 238.411 2.09635 239.04 2.39258 239.469C2.6888 239.897 3.11491 240.111 3.6709 240.111C3.93522 240.111 4.17448 240.07 4.38867 239.988V234.622C4.19727 234.545 3.96257 234.506 3.68457 234.506C3.12858 234.506 2.7002 234.754 2.39941 235.251C2.09863 235.748 1.94824 236.525 1.94824 237.582ZM11.2003 237.233C11.2003 236.509 11.3415 235.857 11.6241 235.278C11.9112 234.7 12.3077 234.253 12.8136 233.938C13.324 233.624 13.905 233.467 14.5567 233.467C15.5639 233.467 16.3774 233.815 16.9971 234.513C17.6215 235.21 17.9337 236.137 17.9337 237.295V237.384C17.9337 238.104 17.7947 238.751 17.5167 239.325C17.2432 239.895 16.849 240.339 16.3341 240.658C15.8236 240.977 15.2358 241.137 14.5704 241.137C13.5678 241.137 12.7543 240.788 12.13 240.091C11.5102 239.394 11.2003 238.471 11.2003 237.322V237.233ZM12.4718 237.384C12.4718 238.204 12.6609 238.863 13.0391 239.359C13.422 239.856 13.9324 240.104 14.5704 240.104C15.213 240.104 15.7234 239.854 16.1016 239.353C16.4799 238.847 16.669 238.14 16.669 237.233C16.669 236.422 16.4753 235.766 16.088 235.265C15.7052 234.759 15.1947 234.506 14.5567 234.506C13.9324 234.506 13.4288 234.754 13.046 235.251C12.6632 235.748 12.4718 236.459 12.4718 237.384ZM26.1877 237.384C26.1877 238.509 25.9302 239.416 25.4152 240.104C24.9002 240.793 24.203 241.137 23.3234 241.137C22.4256 241.137 21.7192 240.852 21.2043 240.282V243.844H19.9396V233.604H21.0949L21.1564 234.424C21.6714 233.786 22.3869 233.467 23.3029 233.467C24.1916 233.467 24.8934 233.802 25.4084 234.472C25.9279 235.142 26.1877 236.074 26.1877 237.268V237.384ZM24.923 237.24C24.923 236.406 24.7453 235.748 24.3898 235.265C24.0343 234.782 23.5467 234.54 22.9269 234.54C22.1613 234.54 21.5871 234.88 21.2043 235.559V239.093C21.5825 239.767 22.1613 240.104 22.9406 240.104C23.5467 240.104 24.0275 239.865 24.383 239.387C24.743 238.904 24.923 238.188 24.923 237.24ZM32.4797 239.325L34.9954 233.604H36.5745V241H35.3098V235.62L32.9172 241H32.0422L29.6018 235.504V241H28.3371V233.604H29.9778L32.4797 239.325ZM43.8167 233.604H45.0814V241H43.8167V235.606L40.4056 241H39.1409V233.604H40.4056V239.004L43.8167 233.604ZM53.7797 237.384C53.7797 238.509 53.5222 239.416 53.0072 240.104C52.4923 240.793 51.795 241.137 50.9154 241.137C50.0176 241.137 49.3113 240.852 48.7963 240.282V243.844H47.5316V233.604H48.6869L48.7484 234.424C49.2634 233.786 49.9789 233.467 50.8949 233.467C51.7836 233.467 52.4854 233.802 53.0004 234.472C53.5199 235.142 53.7797 236.074 53.7797 237.268V237.384ZM52.515 237.24C52.515 236.406 52.3373 235.748 51.9818 235.265C51.6264 234.782 51.1387 234.54 50.5189 234.54C49.7533 234.54 49.1791 234.88 48.7963 235.559V239.093C49.1745 239.767 49.7533 240.104 50.5326 240.104C51.1387 240.104 51.6195 239.865 51.975 239.387C52.335 238.904 52.515 238.188 52.515 237.24ZM55.478 237.233C55.478 236.509 55.6193 235.857 55.9018 235.278C56.1889 234.7 56.5854 234.253 57.0913 233.938C57.6017 233.624 58.1828 233.467 58.8345 233.467C59.8416 233.467 60.6551 233.815 61.2749 234.513C61.8992 235.21 62.2114 236.137 62.2114 237.295V237.384C62.2114 238.104 62.0724 238.751 61.7944 239.325C61.521 239.895 61.1268 240.339 60.6118 240.658C60.1014 240.977 59.5135 241.137 58.8481 241.137C57.8455 241.137 57.032 240.788 56.4077 240.091C55.7879 239.394 55.478 238.471 55.478 237.322V237.233ZM56.7495 237.384C56.7495 238.204 56.9386 238.863 57.3169 239.359C57.6997 239.856 58.2101 240.104 58.8481 240.104C59.4907 240.104 60.0011 239.854 60.3794 239.353C60.7576 238.847 60.9468 238.14 60.9468 237.233C60.9468 236.422 60.7531 235.766 60.3657 235.265C59.9829 234.759 59.4725 234.506 58.8345 234.506C58.2101 234.506 57.7065 234.754 57.3237 235.251C56.9409 235.748 56.7495 236.459 56.7495 237.384ZM64.3336 241V233.604H67.2183C68.2027 233.604 68.9569 233.777 69.481 234.123C70.0097 234.465 70.274 234.968 70.274 235.634C70.274 235.976 70.1714 236.285 69.9664 236.563C69.7613 236.837 69.4582 237.047 69.0572 237.192C69.5038 237.297 69.8615 237.502 70.1304 237.808C70.4039 238.113 70.5406 238.478 70.5406 238.901C70.5406 239.58 70.2899 240.1 69.7886 240.46C69.2919 240.82 68.5878 241 67.6763 241H64.3336ZM65.5982 237.753V239.981H67.69C68.2186 239.981 68.6129 239.883 68.8726 239.688C69.1369 239.492 69.2691 239.216 69.2691 238.86C69.2691 238.122 68.7268 237.753 67.6421 237.753H65.5982ZM65.5982 236.741H67.232C68.4169 236.741 69.0093 236.395 69.0093 235.702C69.0093 235.009 68.4488 234.652 67.3277 234.629H65.5982V236.741ZM77.2018 241C77.1289 240.854 77.0696 240.594 77.0241 240.221C76.4362 240.831 75.7343 241.137 74.9186 241.137C74.1894 241.137 73.5901 240.932 73.1207 240.521C72.6559 240.107 72.4235 239.583 72.4235 238.949C72.4235 238.179 72.7151 237.582 73.2985 237.158C73.8864 236.73 74.7112 236.516 75.7731 236.516H77.0036V235.935C77.0036 235.493 76.8714 235.142 76.6071 234.882C76.3427 234.618 75.9531 234.485 75.4381 234.485C74.987 234.485 74.6087 234.599 74.3034 234.827C73.998 235.055 73.8454 235.331 73.8454 235.654H72.5739C72.5739 235.285 72.7038 234.93 72.9635 234.588C73.2278 234.242 73.5833 233.968 74.0299 233.768C74.4811 233.567 74.9756 233.467 75.5133 233.467C76.3655 233.467 77.0332 233.681 77.5163 234.109C77.9993 234.533 78.25 235.119 78.2682 235.866V239.271C78.2682 239.95 78.3548 240.49 78.528 240.891V241H77.2018ZM75.1032 240.036C75.4996 240.036 75.8756 239.934 76.2311 239.729C76.5866 239.523 76.8441 239.257 77.0036 238.929V237.411H76.0123C74.4629 237.411 73.6881 237.865 73.6881 238.771C73.6881 239.168 73.8203 239.478 74.0846 239.701C74.3489 239.924 74.6885 240.036 75.1032 240.036ZM86.7136 241H85.4489V237.842H82.0515V241H80.78V233.604H82.0515V236.81H85.4489V233.604H86.7136V241ZM93.9559 233.604H95.2205V241H93.9559V235.606L90.5447 241H89.2801V233.604H90.5447V239.004L93.9559 233.604ZM99.0516 236.741H100.829C100.925 235.757 101.273 234.966 101.875 234.369C102.481 233.768 103.244 233.467 104.165 233.467C105.131 233.467 105.922 233.793 106.537 234.444C107.152 235.096 107.485 235.944 107.535 236.987L107.542 237.384C107.542 238.104 107.401 238.753 107.118 239.332C106.835 239.911 106.439 240.357 105.929 240.672C105.418 240.982 104.835 241.137 104.179 241.137C103.226 241.137 102.447 240.827 101.841 240.207C101.235 239.583 100.895 238.774 100.822 237.78H99.0516V241H97.787V233.604H99.0516V236.741ZM102.073 237.384C102.073 238.204 102.262 238.863 102.641 239.359C103.023 239.856 103.536 240.104 104.179 240.104C104.821 240.104 105.329 239.852 105.703 239.346C106.081 238.84 106.27 238.136 106.27 237.233C106.27 236.427 106.079 235.771 105.696 235.265C105.313 234.759 104.803 234.506 104.165 234.506C103.536 234.506 103.03 234.754 102.647 235.251C102.265 235.748 102.073 236.459 102.073 237.384ZM119.463 241H118.198V234.649H114.794V241H113.522V233.604H119.463V241ZM121.578 237.233C121.578 236.509 121.72 235.857 122.002 235.278C122.289 234.7 122.686 234.253 123.192 233.938C123.702 233.624 124.283 233.467 124.935 233.467C125.942 233.467 126.755 233.815 127.375 234.513C127.999 235.21 128.312 236.137 128.312 237.295V237.384C128.312 238.104 128.173 238.751 127.895 239.325C127.621 239.895 127.227 240.339 126.712 240.658C126.202 240.977 125.614 241.137 124.948 241.137C123.946 241.137 123.132 240.788 122.508 240.091C121.888 239.394 121.578 238.471 121.578 237.322V237.233ZM122.85 237.384C122.85 238.204 123.039 238.863 123.417 239.359C123.8 239.856 124.31 240.104 124.948 240.104C125.591 240.104 126.101 239.854 126.48 239.353C126.858 238.847 127.047 238.14 127.047 237.233C127.047 236.422 126.853 235.766 126.466 235.265C126.083 234.759 125.573 234.506 124.935 234.506C124.31 234.506 123.807 234.754 123.424 235.251C123.041 235.748 122.85 236.459 122.85 237.384ZM134.385 235.627C134.385 235.281 134.253 235.007 133.988 234.807C133.724 234.602 133.362 234.499 132.902 234.499C132.455 234.499 132.081 234.615 131.78 234.848C131.484 235.08 131.336 235.354 131.336 235.668H130.078C130.078 235.025 130.347 234.499 130.885 234.089C131.423 233.679 132.095 233.474 132.902 233.474C133.767 233.474 134.442 233.66 134.925 234.034C135.408 234.403 135.65 234.932 135.65 235.62C135.65 235.953 135.549 236.258 135.349 236.536C135.148 236.814 134.863 237.035 134.494 237.199C135.356 237.491 135.786 238.065 135.786 238.922C135.786 239.601 135.524 240.139 135 240.535C134.476 240.932 133.777 241.13 132.902 241.13C132.049 241.13 131.345 240.923 130.789 240.508C130.238 240.089 129.962 239.523 129.962 238.812H131.22C131.22 239.173 131.379 239.482 131.698 239.742C132.022 239.997 132.423 240.125 132.902 240.125C133.385 240.125 133.774 240.013 134.071 239.79C134.367 239.567 134.515 239.277 134.515 238.922C134.515 238.507 134.39 238.211 134.139 238.033C133.893 237.851 133.508 237.76 132.984 237.76H131.719V236.693H133.093C133.954 236.671 134.385 236.315 134.385 235.627ZM142.632 233.604H143.897V241H142.632V235.606L139.221 241H137.956V233.604H139.221V239.004L142.632 233.604ZM146.456 233.604H147.728V239.968H151.132V233.604H152.397V239.968H153.279L153.156 243.194H152.021V241H146.456V233.604ZM159.851 233.604H161.116V241H159.851V235.606L156.44 241H155.175V233.604H156.44V239.004L159.851 233.604ZM168.351 233.604H169.616V241H168.351V235.606L164.94 241H163.675V233.604H164.94V239.004L168.351 233.604ZM172.093 240.337C172.093 240.118 172.157 239.936 172.285 239.79C172.417 239.644 172.613 239.571 172.873 239.571C173.132 239.571 173.328 239.644 173.461 239.79C173.597 239.936 173.666 240.118 173.666 240.337C173.666 240.547 173.597 240.722 173.461 240.863C173.328 241.005 173.132 241.075 172.873 241.075C172.613 241.075 172.417 241.005 172.285 240.863C172.157 240.722 172.093 240.547 172.093 240.337Z" fill="#757575"/>
</svg>
