<svg width="278" height="251" viewBox="0 0 278 251" fill="none" xmlns="http://www.w3.org/2000/svg">
<rect width="278" height="120" rx="4" fill="#F5F4FA"/>
<g clip-path="url(#clip0)">
<path d="M172.461 58.4715C172.458 39.9819 157.466 24.9963 138.975 25C120.486 25.0037 105.5 39.9963 105.504 58.4859C105.507 73.0502 114.925 85.9413 128.8 90.3713C128.932 90.413 129.07 90.4343 129.208 90.4338C129.472 90.4333 129.73 90.3628 129.957 90.2287C130.253 90.0541 130.473 89.7764 130.577 89.449L139.032 62.6521C141.343 62.6404 143.207 60.7568 143.194 58.4459C143.183 56.1345 141.3 54.2706 138.988 54.2824C138.367 54.285 137.753 54.4282 137.194 54.7011L126.025 43.5302C125.471 42.9951 124.588 43.0106 124.053 43.5644C123.53 44.1054 123.53 44.962 124.053 45.503L135.216 56.6792C134.36 58.4277 134.849 60.5383 136.39 61.7303L128.334 87.2647C112.414 81.4002 104.262 63.7405 110.126 47.8203C115.991 31.9 133.65 23.7482 149.571 29.6127C165.491 35.4771 173.643 53.1374 167.778 69.0571C164.913 76.8351 159.026 83.1252 151.455 86.4989L150.584 82.3989C150.425 81.6454 149.684 81.1636 148.931 81.3233C148.693 81.3741 148.473 81.4857 148.291 81.6475L139.898 89.1409C139.322 89.653 139.271 90.5347 139.783 91.1105C139.95 91.2974 140.164 91.4362 140.403 91.5126L151.119 94.9327C151.852 95.1682 152.638 94.765 152.873 94.0312C152.948 93.7994 152.96 93.5527 152.91 93.3145L152.055 89.2915C164.445 84.0678 172.49 71.918 172.461 58.4715ZM138.983 57.0766C139.753 57.0766 140.378 57.7014 140.378 58.4715C140.378 59.2422 139.753 59.8665 138.983 59.8665C138.212 59.8665 137.588 59.2422 137.588 58.4715C137.588 57.7014 138.212 57.0766 138.983 57.0766ZM143.577 89.5916L148.355 85.3298L149.674 91.543L143.577 89.5916Z" fill="#212121"/>
<path d="M137.588 31.9673V34.7572C137.588 35.5279 138.212 36.1522 138.983 36.1522C139.753 36.1522 140.378 35.5279 140.378 34.7572V31.9673C140.378 31.1972 139.753 30.5724 138.983 30.5724C138.212 30.5724 137.588 31.1972 137.588 31.9673Z" fill="#2196F3"/>
<path d="M112.479 57.0765C111.708 57.0765 111.084 57.7014 111.084 58.4715C111.084 59.2421 111.708 59.8665 112.479 59.8665H115.269C116.039 59.8665 116.664 59.2421 116.664 58.4715C116.664 57.7014 116.039 57.0765 115.269 57.0765H112.479Z" fill="#2196F3"/>
<path d="M165.487 59.8665C166.257 59.8665 166.882 59.2421 166.882 58.4715C166.882 57.7014 166.257 57.0765 165.487 57.0765H162.697C161.927 57.0765 161.302 57.7014 161.302 58.4715C161.302 59.2421 161.927 59.8665 162.697 59.8665H165.487Z" fill="#2196F3"/>
</g>
<path d="M8.99609 163H6.93848V154.708H2.95312V163H0.902344V153.047H8.99609V163ZM14.9532 157.75L16.7647 153.047H18.9796L15.5001 161.257L15.2198 161.797C14.7048 162.695 13.9164 163.144 12.8546 163.144L12.1368 163.116L12.1163 161.469C12.2257 161.487 12.4034 161.496 12.6495 161.496C12.9366 161.496 13.1667 161.446 13.3399 161.346C13.5177 161.245 13.6658 161.061 13.7843 160.792L14.0372 160.143L10.544 153.047H12.752L14.9532 157.75ZM28.5871 163H26.5363V158.734H22.5373V163H20.4865V153.047H22.5373V157.08H26.5363V153.047H28.5871V163ZM34.052 158.933H32.8694V163H30.8186V153.047H32.8694V157.032H33.8059L36.2395 153.047H38.7414L35.6721 157.757L39.0627 163H36.6155L34.052 158.933ZM47.7679 154.708H44.7191V163H42.6683V154.708H39.6605V153.047H47.7679V154.708ZM53.0961 157.75L54.9076 153.047H57.1225L53.643 161.257L53.3627 161.797C52.8477 162.695 52.0593 163.144 50.9975 163.144L50.2797 163.116L50.2592 161.469C50.3686 161.487 50.5463 161.496 50.7924 161.496C51.0795 161.496 51.3096 161.446 51.4828 161.346C51.6605 161.245 51.8087 161.061 51.9271 160.792L52.1801 160.143L48.6869 153.047H50.8949L53.0961 157.75ZM63.6196 160.949H60.0239L59.3403 163H57.1596L60.8647 153.047H62.7651L66.4907 163H64.31L63.6196 160.949ZM60.5776 159.288H63.0659L61.8149 155.562L60.5776 159.288ZM76.0572 153.047V163H73.9996V154.708H71.3472L71.1832 158.222C71.1148 159.407 70.9644 160.341 70.732 161.024C70.4996 161.703 70.1601 162.202 69.7134 162.521C69.2668 162.836 68.6561 162.995 67.8814 163H67.3482V161.353L67.69 161.318C68.205 161.25 68.5718 160.954 68.7906 160.43C69.0139 159.901 69.1552 158.962 69.2144 157.613L69.3853 153.047H76.0572ZM80.319 156.636H81.9186C83.0898 156.636 84.0172 156.921 84.7008 157.49C85.389 158.055 85.733 158.819 85.733 159.78C85.733 160.746 85.3913 161.523 84.7077 162.111C84.0286 162.695 83.124 162.991 81.9938 163H78.2545V153.047H80.319V156.636ZM80.319 158.29V161.353H81.9528C82.4769 161.353 82.8939 161.209 83.2038 160.922C83.5182 160.635 83.6754 160.25 83.6754 159.767C83.6754 159.315 83.525 158.96 83.2243 158.7C82.928 158.436 82.5202 158.299 82.0006 158.29H80.319ZM95.5525 163H93.5017V158.734H89.5027V163H87.4519V153.047H89.5027V157.08H93.5017V153.047H95.5525V163ZM105.946 158.249C105.946 159.229 105.773 160.088 105.427 160.826C105.08 161.564 104.583 162.134 103.936 162.535C103.294 162.936 102.555 163.137 101.721 163.137C100.897 163.137 100.161 162.938 99.5135 162.542C98.8663 162.146 98.365 161.58 98.0096 160.847C97.6541 160.108 97.4741 159.261 97.4695 158.304V157.812C97.4695 156.832 97.645 155.97 97.9959 155.228C98.3514 154.48 98.8504 153.908 99.493 153.512C100.14 153.111 100.878 152.91 101.708 152.91C102.537 152.91 103.273 153.111 103.916 153.512C104.563 153.908 105.062 154.48 105.413 155.228C105.768 155.97 105.946 156.829 105.946 157.805V158.249ZM103.868 157.798C103.868 156.754 103.681 155.961 103.307 155.419C102.934 154.877 102.401 154.605 101.708 154.605C101.02 154.605 100.489 154.874 100.115 155.412C99.7413 155.945 99.5522 156.729 99.5477 157.764V158.249C99.5477 159.265 99.7345 160.054 100.108 160.614C100.482 161.175 101.02 161.455 101.721 161.455C102.41 161.455 102.938 161.186 103.307 160.648C103.677 160.106 103.863 159.318 103.868 158.283V157.798ZM115.67 159.685C115.592 160.756 115.196 161.599 114.48 162.214C113.769 162.829 112.831 163.137 111.664 163.137C110.388 163.137 109.383 162.708 108.649 161.852C107.92 160.99 107.556 159.81 107.556 158.311V157.702C107.556 156.745 107.724 155.902 108.061 155.173C108.399 154.444 108.879 153.885 109.504 153.498C110.133 153.106 110.862 152.91 111.691 152.91C112.84 152.91 113.765 153.218 114.467 153.833C115.169 154.448 115.574 155.312 115.683 156.424H113.633C113.583 155.781 113.403 155.316 113.093 155.029C112.787 154.738 112.32 154.592 111.691 154.592C111.008 154.592 110.495 154.838 110.153 155.33C109.816 155.818 109.643 156.576 109.634 157.606V158.358C109.634 159.434 109.795 160.22 110.119 160.717C110.447 161.214 110.962 161.462 111.664 161.462C112.297 161.462 112.769 161.318 113.079 161.031C113.393 160.74 113.573 160.291 113.619 159.685H115.67ZM124.724 154.708H121.675V163H119.624V154.708H116.616V153.047H124.724V154.708ZM128.48 156.636H130.079C131.25 156.636 132.178 156.921 132.861 157.49C133.55 158.055 133.894 158.819 133.894 159.78C133.894 160.746 133.552 161.523 132.868 162.111C132.189 162.695 131.285 162.991 130.154 163H126.415V153.047H128.48V156.636ZM128.48 158.29V161.353H130.113C130.637 161.353 131.054 161.209 131.364 160.922C131.679 160.635 131.836 160.25 131.836 159.767C131.836 159.315 131.686 158.96 131.385 158.7C131.089 158.436 130.681 158.299 130.161 158.29H128.48Z" fill="#212121"/>
<path d="M6.26172 185.72C6.26172 185.191 6.06803 184.772 5.68066 184.462C5.29785 184.147 4.75781 183.99 4.06055 183.99C3.47721 183.99 2.9873 184.152 2.59082 184.476C2.19889 184.795 2.00293 185.191 2.00293 185.665H0.69043C0.69043 185.136 0.833984 184.662 1.12109 184.243C1.41276 183.824 1.81836 183.498 2.33789 183.266C2.85742 183.029 3.43164 182.91 4.06055 182.91C5.17253 182.91 6.03613 183.161 6.65137 183.662C7.2666 184.159 7.57422 184.852 7.57422 185.74C7.57422 186.201 7.43294 186.62 7.15039 186.998C6.86784 187.376 6.47363 187.675 5.96777 187.894C7.139 188.285 7.72461 189.062 7.72461 190.225C7.72461 191.118 7.39193 191.826 6.72656 192.351C6.0612 192.875 5.17253 193.137 4.06055 193.137C3.39974 193.137 2.79818 193.021 2.25586 192.788C1.7181 192.551 1.29883 192.216 0.998047 191.783C0.697266 191.35 0.546875 190.835 0.546875 190.238H1.85938C1.85938 190.762 2.06673 191.2 2.48145 191.551C2.89616 191.897 3.42253 192.07 4.06055 192.07C4.77604 192.07 5.3457 191.904 5.76953 191.571C6.19792 191.239 6.41211 190.799 6.41211 190.252C6.41211 189.085 5.68978 188.491 4.24512 188.468H3.01465V187.388H4.23828C4.90365 187.374 5.40723 187.224 5.74902 186.937C6.09082 186.649 6.26172 186.244 6.26172 185.72ZM14.2559 193C14.183 192.854 14.1238 192.594 14.0782 192.221C13.4903 192.831 12.7885 193.137 11.9727 193.137C11.2436 193.137 10.6443 192.932 10.1749 192.521C9.71004 192.107 9.47762 191.583 9.47762 190.949C9.47762 190.179 9.76928 189.582 10.3526 189.158C10.9405 188.73 11.7654 188.516 12.8272 188.516H14.0577V187.935C14.0577 187.493 13.9255 187.142 13.6612 186.882C13.3969 186.618 13.0072 186.485 12.4923 186.485C12.0411 186.485 11.6628 186.599 11.3575 186.827C11.0522 187.055 10.8995 187.331 10.8995 187.654H9.62801C9.62801 187.285 9.75789 186.93 10.0177 186.588C10.282 186.242 10.6374 185.968 11.0841 185.768C11.5352 185.567 12.0297 185.467 12.5675 185.467C13.4197 185.467 14.0873 185.681 14.5704 186.109C15.0535 186.533 15.3041 187.119 15.3223 187.866V191.271C15.3223 191.95 15.4089 192.49 15.5821 192.891V193H14.2559ZM12.1573 192.036C12.5538 192.036 12.9298 191.934 13.2852 191.729C13.6407 191.523 13.8982 191.257 14.0577 190.929V189.411H13.0665C11.517 189.411 10.7423 189.865 10.7423 190.771C10.7423 191.168 10.8744 191.478 11.1388 191.701C11.4031 191.924 11.7426 192.036 12.1573 192.036ZM17.6632 191.968L18.1007 191.428C18.5929 190.79 18.8732 189.833 18.9416 188.557L19.0578 185.604H23.8224V191.968H24.7726V195.174H23.508V193H18.3468V195.174H17.0822L17.089 191.968H17.6632ZM19.1603 191.968H22.5578V186.772H20.2814L20.2062 188.536C20.1287 190.008 19.7801 191.152 19.1603 191.968ZM31.1604 193C31.0875 192.854 31.0282 192.594 30.9827 192.221C30.3948 192.831 29.6929 193.137 28.8772 193.137C28.148 193.137 27.5487 192.932 27.0793 192.521C26.6145 192.107 26.3821 191.583 26.3821 190.949C26.3821 190.179 26.6737 189.582 27.2571 189.158C27.845 188.73 28.6698 188.516 29.7317 188.516H30.9621V187.935C30.9621 187.493 30.83 187.142 30.5657 186.882C30.3013 186.618 29.9117 186.485 29.3967 186.485C28.9455 186.485 28.5673 186.599 28.262 186.827C27.9566 187.055 27.8039 187.331 27.8039 187.654H26.5325C26.5325 187.285 26.6623 186.93 26.9221 186.588C27.1864 186.242 27.5419 185.968 27.9885 185.768C28.4397 185.567 28.9342 185.467 29.4719 185.467C30.3241 185.467 30.9918 185.681 31.4748 186.109C31.9579 186.533 32.2086 187.119 32.2268 187.866V191.271C32.2268 191.95 32.3134 192.49 32.4866 192.891V193H31.1604ZM29.0618 192.036C29.4582 192.036 29.8342 191.934 30.1897 191.729C30.5452 191.523 30.8026 191.257 30.9621 190.929V189.411H29.9709C28.4215 189.411 27.6467 189.865 27.6467 190.771C27.6467 191.168 27.7789 191.478 28.0432 191.701C28.3075 191.924 28.647 192.036 29.0618 192.036ZM40.2142 193H38.9427V190.32C38.3867 190.466 37.817 190.539 37.2337 190.539C36.3086 190.539 35.6022 190.302 35.1146 189.828C34.6315 189.354 34.3854 188.68 34.3763 187.805V185.597H35.6409V187.846C35.6637 188.949 36.1946 189.5 37.2337 189.5C37.817 189.5 38.3867 189.427 38.9427 189.281V185.604H40.2142V193ZM47.2309 193C47.1579 192.854 47.0987 192.594 47.0531 192.221C46.4652 192.831 45.7634 193.137 44.9477 193.137C44.2185 193.137 43.6192 192.932 43.1498 192.521C42.685 192.107 42.4525 191.583 42.4525 190.949C42.4525 190.179 42.7442 189.582 43.3275 189.158C43.9154 188.73 44.7403 188.516 45.8021 188.516H47.0326V187.935C47.0326 187.493 46.9005 187.142 46.6361 186.882C46.3718 186.618 45.9822 186.485 45.4672 186.485C45.016 186.485 44.6378 186.599 44.3324 186.827C44.0271 187.055 43.8744 187.331 43.8744 187.654H42.6029C42.6029 187.285 42.7328 186.93 42.9926 186.588C43.2569 186.242 43.6124 185.968 44.059 185.768C44.5102 185.567 45.0046 185.467 45.5424 185.467C46.3946 185.467 47.0622 185.681 47.5453 186.109C48.0284 186.533 48.279 187.119 48.2973 187.866V191.271C48.2973 191.95 48.3839 192.49 48.557 192.891V193H47.2309ZM45.1322 192.036C45.5287 192.036 45.9047 191.934 46.2602 191.729C46.6156 191.523 46.8731 191.257 47.0326 190.929V189.411H46.0414C44.4919 189.411 43.7172 189.865 43.7172 190.771C43.7172 191.168 43.8493 191.478 44.1137 191.701C44.378 191.924 44.7175 192.036 45.1322 192.036ZM54.2574 189.233C54.2574 188.509 54.3987 187.857 54.6812 187.278C54.9683 186.7 55.3648 186.253 55.8707 185.938C56.3811 185.624 56.9621 185.467 57.6138 185.467C58.621 185.467 59.4345 185.815 60.0543 186.513C60.6786 187.21 60.9908 188.137 60.9908 189.295V189.384C60.9908 190.104 60.8518 190.751 60.5738 191.325C60.3004 191.895 59.9061 192.339 59.3912 192.658C58.8808 192.977 58.2929 193.137 57.6275 193.137C56.6249 193.137 55.8114 192.788 55.1871 192.091C54.5673 191.394 54.2574 190.471 54.2574 189.322V189.233ZM55.5289 189.384C55.5289 190.204 55.718 190.863 56.0962 191.359C56.4791 191.856 56.9895 192.104 57.6275 192.104C58.2701 192.104 58.7805 191.854 59.1587 191.353C59.537 190.847 59.7261 190.14 59.7261 189.233C59.7261 188.422 59.5324 187.766 59.1451 187.265C58.7623 186.759 58.2518 186.506 57.6138 186.506C56.9895 186.506 56.4859 186.754 56.1031 187.251C55.7203 187.748 55.5289 188.459 55.5289 189.384ZM69.2448 189.384C69.2448 190.509 68.9873 191.416 68.4723 192.104C67.9573 192.793 67.2601 193.137 66.3805 193.137C65.4827 193.137 64.7763 192.852 64.2614 192.282V195.844H62.9967V185.604H64.152L64.2135 186.424C64.7285 185.786 65.444 185.467 66.36 185.467C67.2487 185.467 67.9505 185.802 68.4655 186.472C68.985 187.142 69.2448 188.074 69.2448 189.268V189.384ZM67.9801 189.24C67.9801 188.406 67.8024 187.748 67.4469 187.265C67.0914 186.782 66.6038 186.54 65.984 186.54C65.2184 186.54 64.6442 186.88 64.2614 187.559V191.093C64.6396 191.767 65.2184 192.104 65.9977 192.104C66.6038 192.104 67.0846 191.865 67.4401 191.387C67.8001 190.904 67.9801 190.188 67.9801 189.24ZM76.0564 186.649H72.6452V193H71.3737V185.604H76.0564V186.649ZM82.1434 193C82.0704 192.854 82.0112 192.594 81.9656 192.221C81.3777 192.831 80.6759 193.137 79.8602 193.137C79.131 193.137 78.5317 192.932 78.0623 192.521C77.5975 192.107 77.365 191.583 77.365 190.949C77.365 190.179 77.6567 189.582 78.24 189.158C78.8279 188.73 79.6528 188.516 80.7146 188.516H81.9451V187.935C81.9451 187.493 81.813 187.142 81.5486 186.882C81.2843 186.618 80.8947 186.485 80.3797 186.485C79.9285 186.485 79.5503 186.599 79.2449 186.827C78.9396 187.055 78.7869 187.331 78.7869 187.654H77.5154C77.5154 187.285 77.6453 186.93 77.9051 186.588C78.1694 186.242 78.5249 185.968 78.9715 185.768C79.4227 185.567 79.9171 185.467 80.4549 185.467C81.3071 185.467 81.9747 185.681 82.4578 186.109C82.9409 186.533 83.1915 187.119 83.2098 187.866V191.271C83.2098 191.95 83.2964 192.49 83.4695 192.891V193H82.1434ZM80.0447 192.036C80.4412 192.036 80.8172 191.934 81.1727 191.729C81.5281 191.523 81.7856 191.257 81.9451 190.929V189.411H80.9539C79.4044 189.411 78.6297 189.865 78.6297 190.771C78.6297 191.168 78.7618 191.478 79.0262 191.701C79.2905 191.924 79.63 192.036 80.0447 192.036ZM91.6552 193H90.3905V189.842H86.993V193H85.7216V185.604H86.993V188.81H90.3905V185.604H91.6552V193ZM98.8974 185.604H100.162V193H98.8974V187.606L95.4863 193H94.2216V185.604H95.4863V191.004L98.8974 185.604ZM106.68 187.627C106.68 187.281 106.548 187.007 106.283 186.807C106.019 186.602 105.657 186.499 105.196 186.499C104.75 186.499 104.376 186.615 104.075 186.848C103.779 187.08 103.631 187.354 103.631 187.668H102.373C102.373 187.025 102.642 186.499 103.18 186.089C103.717 185.679 104.39 185.474 105.196 185.474C106.062 185.474 106.737 185.66 107.22 186.034C107.703 186.403 107.944 186.932 107.944 187.62C107.944 187.953 107.844 188.258 107.644 188.536C107.443 188.814 107.158 189.035 106.789 189.199C107.65 189.491 108.081 190.065 108.081 190.922C108.081 191.601 107.819 192.139 107.295 192.535C106.771 192.932 106.071 193.13 105.196 193.13C104.344 193.13 103.64 192.923 103.084 192.508C102.533 192.089 102.257 191.523 102.257 190.812H103.515C103.515 191.173 103.674 191.482 103.993 191.742C104.317 191.997 104.718 192.125 105.196 192.125C105.679 192.125 106.069 192.013 106.365 191.79C106.661 191.567 106.81 191.277 106.81 190.922C106.81 190.507 106.684 190.211 106.434 190.033C106.188 189.851 105.802 189.76 105.278 189.76H104.014V188.693H105.388C106.249 188.671 106.68 188.315 106.68 187.627ZM114.708 193C114.635 192.854 114.576 192.594 114.53 192.221C113.942 192.831 113.241 193.137 112.425 193.137C111.696 193.137 111.096 192.932 110.627 192.521C110.162 192.107 109.93 191.583 109.93 190.949C109.93 190.179 110.221 189.582 110.805 189.158C111.393 188.73 112.218 188.516 113.279 188.516H114.51V187.935C114.51 187.493 114.378 187.142 114.113 186.882C113.849 186.618 113.459 186.485 112.944 186.485C112.493 186.485 112.115 186.599 111.81 186.827C111.504 187.055 111.352 187.331 111.352 187.654H110.08C110.08 187.285 110.21 186.93 110.47 186.588C110.734 186.242 111.09 185.968 111.536 185.768C111.987 185.567 112.482 185.467 113.02 185.467C113.872 185.467 114.54 185.681 115.023 186.109C115.506 186.533 115.756 187.119 115.775 187.866V191.271C115.775 191.95 115.861 192.49 116.034 192.891V193H114.708ZM112.609 192.036C113.006 192.036 113.382 191.934 113.737 191.729C114.093 191.523 114.35 191.257 114.51 190.929V189.411H113.519C111.969 189.411 111.194 189.865 111.194 190.771C111.194 191.168 111.327 191.478 111.591 191.701C111.855 191.924 112.195 192.036 112.609 192.036ZM118.286 185.604H119.558V191.968H122.962V185.604H124.227V191.968H125.109L124.986 195.194H123.851V193H118.286V185.604ZM131.681 185.604H132.946V193H131.681V187.606L128.27 193H127.005V185.604H128.27V191.004L131.681 185.604ZM140.181 185.604H141.446V193H140.181V187.606L136.77 193H135.505V185.604H136.77V191.004L140.181 185.604ZM143.855 194.982L143.137 194.49C143.566 193.893 143.789 193.278 143.807 192.645V191.503H145.044V192.494C145.044 192.954 144.93 193.415 144.703 193.875C144.479 194.335 144.197 194.704 143.855 194.982ZM151.073 193V185.604H153.958C154.942 185.604 155.696 185.777 156.22 186.123C156.749 186.465 157.013 186.968 157.013 187.634C157.013 187.976 156.911 188.285 156.706 188.563C156.501 188.837 156.198 189.047 155.796 189.192C156.243 189.297 156.601 189.502 156.87 189.808C157.143 190.113 157.28 190.478 157.28 190.901C157.28 191.58 157.029 192.1 156.528 192.46C156.031 192.82 155.327 193 154.416 193H151.073ZM152.337 189.753V191.981H154.429C154.958 191.981 155.352 191.883 155.612 191.688C155.876 191.492 156.008 191.216 156.008 190.86C156.008 190.122 155.466 189.753 154.381 189.753H152.337ZM152.337 188.741H153.971C155.156 188.741 155.749 188.395 155.749 187.702C155.749 187.009 155.188 186.652 154.067 186.629H152.337V188.741ZM162.932 189.233C162.932 188.509 163.074 187.857 163.356 187.278C163.643 186.7 164.04 186.253 164.546 185.938C165.056 185.624 165.637 185.467 166.289 185.467C167.296 185.467 168.109 185.815 168.729 186.513C169.354 187.21 169.666 188.137 169.666 189.295V189.384C169.666 190.104 169.527 190.751 169.249 191.325C168.975 191.895 168.581 192.339 168.066 192.658C167.556 192.977 166.968 193.137 166.303 193.137C165.3 193.137 164.486 192.788 163.862 192.091C163.242 191.394 162.932 190.471 162.932 189.322V189.233ZM164.204 189.384C164.204 190.204 164.393 190.863 164.771 191.359C165.154 191.856 165.664 192.104 166.303 192.104C166.945 192.104 167.456 191.854 167.834 191.353C168.212 190.847 168.401 190.14 168.401 189.233C168.401 188.422 168.207 187.766 167.82 187.265C167.437 186.759 166.927 186.506 166.289 186.506C165.664 186.506 165.161 186.754 164.778 187.251C164.395 187.748 164.204 188.459 164.204 189.384ZM174.639 192.104C175.09 192.104 175.484 191.968 175.821 191.694C176.158 191.421 176.345 191.079 176.382 190.669H177.578C177.555 191.093 177.409 191.496 177.14 191.879C176.872 192.262 176.512 192.567 176.06 192.795C175.614 193.023 175.14 193.137 174.639 193.137C173.631 193.137 172.829 192.802 172.232 192.132C171.64 191.457 171.344 190.537 171.344 189.37V189.158C171.344 188.438 171.476 187.798 171.74 187.237C172.004 186.677 172.383 186.242 172.875 185.932C173.372 185.622 173.957 185.467 174.632 185.467C175.461 185.467 176.149 185.715 176.696 186.212C177.248 186.709 177.542 187.354 177.578 188.146H176.382C176.345 187.668 176.163 187.276 175.835 186.971C175.511 186.661 175.11 186.506 174.632 186.506C173.989 186.506 173.49 186.738 173.135 187.203C172.784 187.663 172.608 188.331 172.608 189.206V189.445C172.608 190.298 172.784 190.954 173.135 191.414C173.486 191.874 173.987 192.104 174.639 192.104ZM179.085 189.233C179.085 188.509 179.226 187.857 179.509 187.278C179.796 186.7 180.192 186.253 180.698 185.938C181.209 185.624 181.79 185.467 182.441 185.467C183.448 185.467 184.262 185.815 184.882 186.513C185.506 187.21 185.818 188.137 185.818 189.295V189.384C185.818 190.104 185.679 190.751 185.401 191.325C185.128 191.895 184.734 192.339 184.219 192.658C183.708 192.977 183.12 193.137 182.455 193.137C181.452 193.137 180.639 192.788 180.015 192.091C179.395 191.394 179.085 190.471 179.085 189.322V189.233ZM180.356 189.384C180.356 190.204 180.545 190.863 180.924 191.359C181.307 191.856 181.817 192.104 182.455 192.104C183.098 192.104 183.608 191.854 183.986 191.353C184.365 190.847 184.554 190.14 184.554 189.233C184.554 188.422 184.36 187.766 183.973 187.265C183.59 186.759 183.079 186.506 182.441 186.506C181.817 186.506 181.313 186.754 180.931 187.251C180.548 187.748 180.356 188.459 180.356 189.384ZM191.071 186.027C192.001 186.027 192.744 186.34 193.3 186.964C193.86 187.584 194.141 188.402 194.141 189.418V189.534C194.141 190.231 194.006 190.856 193.737 191.407C193.468 191.954 193.081 192.38 192.575 192.686C192.074 192.986 191.495 193.137 190.839 193.137C189.845 193.137 189.046 192.806 188.439 192.146C187.833 191.48 187.53 190.589 187.53 189.473V188.857C187.53 187.303 187.817 186.068 188.392 185.152C188.97 184.236 189.823 183.678 190.948 183.478C191.586 183.364 192.017 183.225 192.24 183.061C192.464 182.896 192.575 182.671 192.575 182.384H193.614C193.614 182.953 193.484 183.398 193.225 183.717C192.969 184.036 192.559 184.261 191.994 184.394L191.051 184.605C190.299 184.783 189.734 185.084 189.355 185.508C188.982 185.927 188.738 186.488 188.624 187.189C189.294 186.415 190.11 186.027 191.071 186.027ZM190.825 187.066C190.205 187.066 189.713 187.276 189.349 187.695C188.984 188.11 188.802 188.687 188.802 189.425V189.534C188.802 190.327 188.984 190.956 189.349 191.421C189.718 191.881 190.215 192.111 190.839 192.111C191.468 192.111 191.965 191.879 192.329 191.414C192.694 190.949 192.876 190.27 192.876 189.377C192.876 188.68 192.691 188.121 192.322 187.702C191.958 187.278 191.459 187.066 190.825 187.066ZM199.052 193.137C198.049 193.137 197.233 192.809 196.605 192.152C195.976 191.492 195.661 190.61 195.661 189.507V189.274C195.661 188.541 195.8 187.887 196.078 187.312C196.361 186.734 196.753 186.283 197.254 185.959C197.76 185.631 198.307 185.467 198.895 185.467C199.856 185.467 200.604 185.784 201.137 186.417C201.67 187.05 201.937 187.957 201.937 189.138V189.664H196.926C196.944 190.393 197.156 190.983 197.562 191.435C197.972 191.881 198.491 192.104 199.12 192.104C199.567 192.104 199.945 192.013 200.255 191.831C200.565 191.649 200.836 191.407 201.068 191.106L201.841 191.708C201.221 192.66 200.291 193.137 199.052 193.137ZM198.895 186.506C198.384 186.506 197.956 186.693 197.609 187.066C197.263 187.436 197.049 187.955 196.967 188.625H200.672V188.529C200.635 187.887 200.462 187.39 200.152 187.039C199.843 186.684 199.423 186.506 198.895 186.506ZM209.869 193H208.605V189.842H205.207V193H203.936V185.604H205.207V188.81H208.605V185.604H209.869V193ZM218.369 193H217.105V189.842H213.707V193H212.436V185.604H213.707V188.81H217.105V185.604H218.369V193ZM220.492 189.233C220.492 188.509 220.633 187.857 220.915 187.278C221.202 186.7 221.599 186.253 222.105 185.938C222.615 185.624 223.196 185.467 223.848 185.467C224.855 185.467 225.669 185.815 226.288 186.513C226.913 187.21 227.225 188.137 227.225 189.295V189.384C227.225 190.104 227.086 190.751 226.808 191.325C226.534 191.895 226.14 192.339 225.625 192.658C225.115 192.977 224.527 193.137 223.862 193.137C222.859 193.137 222.046 192.788 221.421 192.091C220.801 191.394 220.492 190.471 220.492 189.322V189.233ZM221.763 189.384C221.763 190.204 221.952 190.863 222.33 191.359C222.713 191.856 223.224 192.104 223.862 192.104C224.504 192.104 225.015 191.854 225.393 191.353C225.771 190.847 225.96 190.14 225.96 189.233C225.96 188.422 225.767 187.766 225.379 187.265C224.996 186.759 224.486 186.506 223.848 186.506C223.224 186.506 222.72 186.754 222.337 187.251C221.954 187.748 221.763 188.459 221.763 189.384ZM232.198 192.104C232.649 192.104 233.043 191.968 233.38 191.694C233.718 191.421 233.904 191.079 233.941 190.669H235.137C235.114 191.093 234.968 191.496 234.7 191.879C234.431 192.262 234.071 192.567 233.62 192.795C233.173 193.023 232.699 193.137 232.198 193.137C231.191 193.137 230.388 192.802 229.791 192.132C229.199 191.457 228.903 190.537 228.903 189.37V189.158C228.903 188.438 229.035 187.798 229.299 187.237C229.564 186.677 229.942 186.242 230.434 185.932C230.931 185.622 231.516 185.467 232.191 185.467C233.02 185.467 233.708 185.715 234.255 186.212C234.807 186.709 235.101 187.354 235.137 188.146H233.941C233.904 187.668 233.722 187.276 233.394 186.971C233.07 186.661 232.669 186.506 232.191 186.506C231.548 186.506 231.049 186.738 230.694 187.203C230.343 187.663 230.167 188.331 230.167 189.206V189.445C230.167 190.298 230.343 190.954 230.694 191.414C231.045 191.874 231.546 192.104 232.198 192.104ZM242.475 186.629H239.994V193H238.729V186.629H236.295V185.604H242.475V186.629ZM248.911 185.604H250.175V193H248.911V187.606L245.5 193H244.235V185.604H245.5V191.004L248.911 185.604ZM262.418 189.787H261.529V193H260.264V189.787H259.376L257.304 193H255.705L258.35 189.172L255.958 185.604H257.489L259.396 188.666H260.264V185.604H261.529V188.666H262.39L264.311 185.604H265.842L263.443 189.179L266.089 193H264.489L262.418 189.787ZM270.59 193.137C269.587 193.137 268.771 192.809 268.142 192.152C267.513 191.492 267.199 190.61 267.199 189.507V189.274C267.199 188.541 267.338 187.887 267.616 187.312C267.899 186.734 268.291 186.283 268.792 185.959C269.298 185.631 269.845 185.467 270.432 185.467C271.394 185.467 272.141 185.784 272.675 186.417C273.208 187.05 273.474 187.957 273.474 189.138V189.664H268.464C268.482 190.393 268.694 190.983 269.099 191.435C269.51 191.881 270.029 192.104 270.658 192.104C271.105 192.104 271.483 192.013 271.793 191.831C272.103 191.649 272.374 191.407 272.606 191.106L273.379 191.708C272.759 192.66 271.829 193.137 270.59 193.137ZM270.432 186.506C269.922 186.506 269.494 186.693 269.147 187.066C268.801 187.436 268.587 187.955 268.505 188.625H272.21V188.529C272.173 187.887 272 187.39 271.69 187.039C271.38 186.684 270.961 186.506 270.432 186.506ZM7.20508 213.384C7.20508 214.509 6.94759 215.416 6.43262 216.104C5.91764 216.793 5.22038 217.137 4.34082 217.137C3.44303 217.137 2.73665 216.852 2.22168 216.282V219.844H0.957031V209.604H2.1123L2.17383 210.424C2.6888 209.786 3.4043 209.467 4.32031 209.467C5.20898 209.467 5.91081 209.802 6.42578 210.472C6.94531 211.142 7.20508 212.074 7.20508 213.268V213.384ZM5.94043 213.24C5.94043 212.406 5.7627 211.748 5.40723 211.265C5.05176 210.782 4.56413 210.54 3.94434 210.54C3.17871 210.54 2.60449 210.88 2.22168 211.559V215.093C2.59993 215.767 3.17871 216.104 3.95801 216.104C4.56413 216.104 5.04492 215.865 5.40039 215.387C5.76042 214.904 5.94043 214.188 5.94043 213.24ZM13.8048 217C13.7318 216.854 13.6726 216.594 13.627 216.221C13.0391 216.831 12.3373 217.137 11.5216 217.137C10.7924 217.137 10.1931 216.932 9.72371 216.521C9.25887 216.107 9.02645 215.583 9.02645 214.949C9.02645 214.179 9.31811 213.582 9.90145 213.158C10.4893 212.73 11.3142 212.516 12.3761 212.516H13.6065V211.935C13.6065 211.493 13.4744 211.142 13.21 210.882C12.9457 210.618 12.5561 210.485 12.0411 210.485C11.5899 210.485 11.2117 210.599 10.9063 210.827C10.601 211.055 10.4483 211.331 10.4483 211.654H9.17684C9.17684 211.285 9.30672 210.93 9.56648 210.588C9.83081 210.242 10.1863 209.968 10.6329 209.768C11.0841 209.567 11.5785 209.467 12.1163 209.467C12.9685 209.467 13.6361 209.681 14.1192 210.109C14.6023 210.533 14.8529 211.119 14.8712 211.866V215.271C14.8712 215.95 14.9578 216.49 15.1309 216.891V217H13.8048ZM11.7061 216.036C12.1026 216.036 12.4786 215.934 12.8341 215.729C13.1895 215.523 13.447 215.257 13.6065 214.929V213.411H12.6153C11.0658 213.411 10.2911 213.865 10.2911 214.771C10.2911 215.168 10.4233 215.478 10.6876 215.701C10.9519 215.924 11.2914 216.036 11.7061 216.036ZM21.5324 215.325L24.048 209.604H25.6271V217H24.3625V211.62L21.9699 217H21.0949L18.6545 211.504V217H17.3898V209.604H19.0304L21.5324 215.325ZM30.3879 213.849H29.4651V217H28.1936V209.604H29.4651V212.734H30.2922L32.7805 209.604H34.3118L31.386 213.158L34.5579 217H32.9514L30.3879 213.849ZM40.8499 209.604H42.1146V217H40.8499V211.606L37.4388 217H36.1741V209.604H37.4388V215.004L40.8499 209.604ZM53.2427 209.604H54.5073V217H53.2427V211.606L49.8315 217H48.5669V209.604H49.8315V215.004L53.2427 209.604ZM65.109 215.325L67.6246 209.604H69.2038V217H67.9391V211.62L65.5465 217H64.6715L62.2311 211.504V217H60.9664V209.604H62.6071L65.109 215.325ZM74.7302 217.137C73.7276 217.137 72.9118 216.809 72.2829 216.152C71.654 215.492 71.3396 214.61 71.3396 213.507V213.274C71.3396 212.541 71.4786 211.887 71.7566 211.312C72.0391 210.734 72.431 210.283 72.9323 209.959C73.4382 209.631 73.9851 209.467 74.573 209.467C75.5346 209.467 76.282 209.784 76.8152 210.417C77.3484 211.05 77.615 211.957 77.615 213.138V213.664H72.6042C72.6224 214.393 72.8344 214.983 73.24 215.435C73.6501 215.881 74.1696 216.104 74.7986 216.104C75.2452 216.104 75.6234 216.013 75.9333 215.831C76.2432 215.649 76.5144 215.407 76.7468 215.106L77.5193 215.708C76.8995 216.66 75.9698 217.137 74.7302 217.137ZM74.573 210.506C74.0626 210.506 73.6342 210.693 73.2878 211.066C72.9415 211.436 72.7273 211.955 72.6452 212.625H76.3503V212.529C76.3139 211.887 76.1407 211.39 75.8308 211.039C75.5209 210.684 75.1016 210.506 74.573 210.506ZM82.4715 216.104C82.9227 216.104 83.3169 215.968 83.6541 215.694C83.9913 215.421 84.1782 215.079 84.2146 214.669H85.4109C85.3881 215.093 85.2423 215.496 84.9734 215.879C84.7046 216.262 84.3445 216.567 83.8934 216.795C83.4467 217.023 82.9728 217.137 82.4715 217.137C81.4643 217.137 80.6622 216.802 80.0652 216.132C79.4728 215.457 79.1766 214.537 79.1766 213.37V213.158C79.1766 212.438 79.3087 211.798 79.573 211.237C79.8374 210.677 80.2156 210.242 80.7078 209.932C81.2046 209.622 81.7902 209.467 82.4646 209.467C83.2941 209.467 83.9822 209.715 84.5291 210.212C85.0805 210.709 85.3745 211.354 85.4109 212.146H84.2146C84.1782 211.668 83.9959 211.276 83.6678 210.971C83.3442 210.661 82.9432 210.506 82.4646 210.506C81.8221 210.506 81.323 210.738 80.9676 211.203C80.6167 211.663 80.4412 212.331 80.4412 213.206V213.445C80.4412 214.298 80.6167 214.954 80.9676 215.414C81.3185 215.874 81.8198 216.104 82.4715 216.104ZM92.7489 210.629H90.2675V217H89.0028V210.629H86.5692V209.604H92.7489V210.629ZM93.7773 213.233C93.7773 212.509 93.9186 211.857 94.2011 211.278C94.4882 210.7 94.8847 210.253 95.3906 209.938C95.901 209.624 96.4821 209.467 97.1338 209.467C98.1409 209.467 98.9544 209.815 99.5742 210.513C100.199 211.21 100.511 212.137 100.511 213.295V213.384C100.511 214.104 100.372 214.751 100.094 215.325C99.8203 215.895 99.4261 216.339 98.9111 216.658C98.4007 216.977 97.8128 217.137 97.1474 217.137C96.1448 217.137 95.3313 216.788 94.707 216.091C94.0872 215.394 93.7773 214.471 93.7773 213.322V213.233ZM95.0488 213.384C95.0488 214.204 95.2379 214.863 95.6162 215.359C95.999 215.856 96.5094 216.104 97.1474 216.104C97.79 216.104 98.3004 215.854 98.6787 215.353C99.0569 214.847 99.2461 214.14 99.2461 213.233C99.2461 212.422 99.0524 211.766 98.665 211.265C98.2822 210.759 97.7718 210.506 97.1338 210.506C96.5094 210.506 96.0058 210.754 95.623 211.251C95.2402 211.748 95.0488 212.459 95.0488 213.384ZM106.074 213.233C106.074 212.509 106.216 211.857 106.498 211.278C106.785 210.7 107.182 210.253 107.688 209.938C108.198 209.624 108.779 209.467 109.431 209.467C110.438 209.467 111.251 209.815 111.871 210.513C112.496 211.21 112.808 212.137 112.808 213.295V213.384C112.808 214.104 112.669 214.751 112.391 215.325C112.117 215.895 111.723 216.339 111.208 216.658C110.698 216.977 110.11 217.137 109.444 217.137C108.442 217.137 107.628 216.788 107.004 216.091C106.384 215.394 106.074 214.471 106.074 213.322V213.233ZM107.346 213.384C107.346 214.204 107.535 214.863 107.913 215.359C108.296 215.856 108.806 216.104 109.444 216.104C110.087 216.104 110.597 215.854 110.976 215.353C111.354 214.847 111.543 214.14 111.543 213.233C111.543 212.422 111.349 211.766 110.962 211.265C110.579 210.759 110.069 210.506 109.431 210.506C108.806 210.506 108.303 210.754 107.92 211.251C107.537 211.748 107.346 212.459 107.346 213.384ZM118.061 210.027C118.99 210.027 119.733 210.34 120.289 210.964C120.85 211.584 121.13 212.402 121.13 213.418V213.534C121.13 214.231 120.996 214.856 120.727 215.407C120.458 215.954 120.071 216.38 119.565 216.686C119.063 216.986 118.485 217.137 117.828 217.137C116.835 217.137 116.035 216.806 115.429 216.146C114.823 215.48 114.52 214.589 114.52 213.473V212.857C114.52 211.303 114.807 210.068 115.381 209.152C115.96 208.236 116.812 207.678 117.938 207.478C118.576 207.364 119.006 207.225 119.23 207.061C119.453 206.896 119.565 206.671 119.565 206.384H120.604C120.604 206.953 120.474 207.398 120.214 207.717C119.959 208.036 119.549 208.261 118.984 208.394L118.04 208.605C117.288 208.783 116.723 209.084 116.345 209.508C115.971 209.927 115.727 210.488 115.613 211.189C116.283 210.415 117.099 210.027 118.061 210.027ZM117.815 211.066C117.195 211.066 116.703 211.276 116.338 211.695C115.974 212.11 115.791 212.687 115.791 213.425V213.534C115.791 214.327 115.974 214.956 116.338 215.421C116.707 215.881 117.204 216.111 117.828 216.111C118.457 216.111 118.954 215.879 119.319 215.414C119.683 214.949 119.865 214.27 119.865 213.377C119.865 212.68 119.681 212.121 119.312 211.702C118.947 211.278 118.448 211.066 117.815 211.066ZM125.392 215.147L127.115 209.604H128.468L125.494 218.142C125.034 219.372 124.303 219.987 123.3 219.987L123.061 219.967L122.589 219.878V218.853L122.931 218.88C123.359 218.88 123.692 218.793 123.929 218.62C124.171 218.447 124.369 218.13 124.524 217.67L124.804 216.918L122.165 209.604H123.546L125.392 215.147ZM135.608 217H134.336V214.32C133.78 214.466 133.211 214.539 132.627 214.539C131.702 214.539 130.996 214.302 130.508 213.828C130.025 213.354 129.779 212.68 129.77 211.805V209.597H131.035V211.846C131.057 212.949 131.588 213.5 132.627 213.5C133.211 213.5 133.78 213.427 134.336 213.281V209.604H135.608V217ZM141.127 217.137C140.125 217.137 139.309 216.809 138.68 216.152C138.051 215.492 137.737 214.61 137.737 213.507V213.274C137.737 212.541 137.876 211.887 138.154 211.312C138.436 210.734 138.828 210.283 139.33 209.959C139.835 209.631 140.382 209.467 140.97 209.467C141.932 209.467 142.679 209.784 143.212 210.417C143.746 211.05 144.012 211.957 144.012 213.138V213.664H139.001C139.02 214.393 139.232 214.983 139.637 215.435C140.047 215.881 140.567 216.104 141.196 216.104C141.642 216.104 142.021 216.013 142.331 215.831C142.64 215.649 142.912 215.407 143.144 215.106L143.916 215.708C143.297 216.66 142.367 217.137 141.127 217.137ZM140.97 210.506C140.46 210.506 140.031 210.693 139.685 211.066C139.339 211.436 139.124 211.955 139.042 212.625H142.747V212.529C142.711 211.887 142.538 211.39 142.228 211.039C141.918 210.684 141.499 210.506 140.97 210.506ZM151.945 217H150.68V213.842H147.283V217H146.011V209.604H147.283V212.81H150.68V209.604H151.945V217ZM159.187 209.604H160.452V217H159.187V211.606L155.776 217H154.511V209.604H155.776V215.004L159.187 209.604ZM168.555 209.604V217H167.284V214.122H165.377L163.633 217H162.266L164.126 213.931C163.652 213.757 163.287 213.491 163.032 213.131C162.781 212.766 162.656 212.342 162.656 211.859C162.656 211.185 162.909 210.643 163.415 210.232C163.921 209.818 164.597 209.608 165.445 209.604H168.555ZM163.927 211.873C163.927 212.233 164.05 212.525 164.297 212.748C164.543 212.967 164.869 213.078 165.274 213.083H167.284V210.629H165.466C164.996 210.629 164.622 210.745 164.344 210.978C164.066 211.205 163.927 211.504 163.927 211.873ZM177.202 213.849H176.279V217H175.008V209.604H176.279V212.734H177.106L179.595 209.604H181.126L178.2 213.158L181.372 217H179.765L177.202 213.849ZM187.445 217C187.372 216.854 187.313 216.594 187.268 216.221C186.68 216.831 185.978 217.137 185.162 217.137C184.433 217.137 183.834 216.932 183.364 216.521C182.899 216.107 182.667 215.583 182.667 214.949C182.667 214.179 182.959 213.582 183.542 213.158C184.13 212.73 184.955 212.516 186.017 212.516H187.247V211.935C187.247 211.493 187.115 211.142 186.851 210.882C186.586 210.618 186.197 210.485 185.682 210.485C185.23 210.485 184.852 210.599 184.547 210.827C184.241 211.055 184.089 211.331 184.089 211.654H182.817C182.817 211.285 182.947 210.93 183.207 210.588C183.471 210.242 183.827 209.968 184.273 209.768C184.725 209.567 185.219 209.467 185.757 209.467C186.609 209.467 187.277 209.681 187.76 210.109C188.243 210.533 188.493 211.119 188.512 211.866V215.271C188.512 215.95 188.598 216.49 188.771 216.891V217H187.445ZM185.347 216.036C185.743 216.036 186.119 215.934 186.475 215.729C186.83 215.523 187.087 215.257 187.247 214.929V213.411H186.256C184.706 213.411 183.932 213.865 183.932 214.771C183.932 215.168 184.064 215.478 184.328 215.701C184.592 215.924 184.932 216.036 185.347 216.036ZM190.853 215.968L191.29 215.428C191.782 214.79 192.062 213.833 192.131 212.557L192.247 209.604H197.012V215.968H197.962V219.174H196.697V217H191.536V219.174H190.271L190.278 215.968H190.853ZM192.35 215.968H195.747V210.772H193.471L193.396 212.536C193.318 214.008 192.969 215.152 192.35 215.968ZM206.031 213.384C206.031 214.509 205.774 215.416 205.259 216.104C204.744 216.793 204.047 217.137 203.167 217.137C202.269 217.137 201.563 216.852 201.048 216.282V219.844H199.783V209.604H200.939L201 210.424C201.515 209.786 202.231 209.467 203.147 209.467C204.035 209.467 204.737 209.802 205.252 210.472C205.772 211.142 206.031 212.074 206.031 213.268V213.384ZM204.767 213.24C204.767 212.406 204.589 211.748 204.233 211.265C203.878 210.782 203.39 210.54 202.771 210.54C202.005 210.54 201.431 210.88 201.048 211.559V215.093C201.426 215.767 202.005 216.104 202.784 216.104C203.39 216.104 203.871 215.865 204.227 215.387C204.587 214.904 204.767 214.188 204.767 213.24ZM207.73 213.233C207.73 212.509 207.871 211.857 208.153 211.278C208.441 210.7 208.837 210.253 209.343 209.938C209.853 209.624 210.434 209.467 211.086 209.467C212.093 209.467 212.907 209.815 213.527 210.513C214.151 211.21 214.463 212.137 214.463 213.295V213.384C214.463 214.104 214.324 214.751 214.046 215.325C213.773 215.895 213.378 216.339 212.863 216.658C212.353 216.977 211.765 217.137 211.1 217.137C210.097 217.137 209.284 216.788 208.659 216.091C208.04 215.394 207.73 214.471 207.73 213.322V213.233ZM209.001 213.384C209.001 214.204 209.19 214.863 209.569 215.359C209.951 215.856 210.462 216.104 211.1 216.104C211.742 216.104 212.253 215.854 212.631 215.353C213.009 214.847 213.198 214.14 213.198 213.233C213.198 212.422 213.005 211.766 212.617 211.265C212.235 210.759 211.724 210.506 211.086 210.506C210.462 210.506 209.958 210.754 209.575 211.251C209.193 211.748 209.001 212.459 209.001 213.384ZM216.585 217V209.604H219.47C220.454 209.604 221.209 209.777 221.733 210.123C222.261 210.465 222.526 210.968 222.526 211.634C222.526 211.976 222.423 212.285 222.218 212.563C222.013 212.837 221.71 213.047 221.309 213.192C221.755 213.297 222.113 213.502 222.382 213.808C222.656 214.113 222.792 214.478 222.792 214.901C222.792 215.58 222.542 216.1 222.04 216.46C221.544 216.82 220.839 217 219.928 217H216.585ZM217.85 213.753V215.981H219.942C220.47 215.981 220.864 215.883 221.124 215.688C221.389 215.492 221.521 215.216 221.521 214.86C221.521 214.122 220.978 213.753 219.894 213.753H217.85ZM217.85 212.741H219.484C220.669 212.741 221.261 212.395 221.261 211.702C221.261 211.009 220.7 210.652 219.579 210.629H217.85V212.741ZM228.896 217V209.604H231.781C232.765 209.604 233.519 209.777 234.043 210.123C234.572 210.465 234.836 210.968 234.836 211.634C234.836 211.976 234.734 212.285 234.529 212.563C234.324 212.837 234.021 213.047 233.62 213.192C234.066 213.297 234.424 213.502 234.693 213.808C234.966 214.113 235.103 214.478 235.103 214.901C235.103 215.58 234.852 216.1 234.351 216.46C233.854 216.82 233.15 217 232.239 217H228.896ZM230.161 213.753V215.981H232.252C232.781 215.981 233.175 215.883 233.435 215.688C233.699 215.492 233.831 215.216 233.831 214.86C233.831 214.122 233.289 213.753 232.204 213.753H230.161ZM230.161 212.741H231.794C232.979 212.741 233.572 212.395 233.572 211.702C233.572 211.009 233.011 210.652 231.89 210.629H230.161V212.741ZM243.261 209.604V217H241.99V210.649H239.474L239.324 213.418C239.242 214.689 239.027 215.599 238.681 216.146C238.339 216.692 237.795 216.977 237.047 217H236.541V215.886L236.904 215.858C237.314 215.813 237.608 215.576 237.786 215.147C237.963 214.719 238.077 213.926 238.127 212.769L238.264 209.604H243.261ZM248.781 217.137C247.778 217.137 246.962 216.809 246.334 216.152C245.705 215.492 245.39 214.61 245.39 213.507V213.274C245.39 212.541 245.529 211.887 245.807 211.312C246.09 210.734 246.482 210.283 246.983 209.959C247.489 209.631 248.036 209.467 248.624 209.467C249.585 209.467 250.333 209.784 250.866 210.417C251.399 211.05 251.666 211.957 251.666 213.138V213.664H246.655C246.673 214.393 246.885 214.983 247.291 215.435C247.701 215.881 248.22 216.104 248.849 216.104C249.296 216.104 249.674 216.013 249.984 215.831C250.294 215.649 250.565 215.407 250.797 215.106L251.57 215.708C250.95 216.66 250.02 217.137 248.781 217.137ZM248.624 210.506C248.113 210.506 247.685 210.693 247.338 211.066C246.992 211.436 246.778 211.955 246.696 212.625H250.401V212.529C250.364 211.887 250.191 211.39 249.881 211.039C249.572 210.684 249.152 210.506 248.624 210.506ZM259.14 217H257.869V214.32C257.313 214.466 256.743 214.539 256.16 214.539C255.235 214.539 254.528 214.302 254.041 213.828C253.558 213.354 253.311 212.68 253.302 211.805V209.597H254.567V211.846C254.59 212.949 255.121 213.5 256.16 213.5C256.743 213.5 257.313 213.427 257.869 213.281V209.604H259.14V217ZM264.66 217.137C263.657 217.137 262.842 216.809 262.213 216.152C261.584 215.492 261.269 214.61 261.269 213.507V213.274C261.269 212.541 261.408 211.887 261.686 211.312C261.969 210.734 262.361 210.283 262.862 209.959C263.368 209.631 263.915 209.467 264.503 209.467C265.464 209.467 266.212 209.784 266.745 210.417C267.278 211.05 267.545 211.957 267.545 213.138V213.664H262.534C262.552 214.393 262.764 214.983 263.17 215.435C263.58 215.881 264.099 216.104 264.728 216.104C265.175 216.104 265.553 216.013 265.863 215.831C266.173 215.649 266.444 215.407 266.676 215.106L267.449 215.708C266.829 216.66 265.899 217.137 264.66 217.137ZM264.503 210.506C263.992 210.506 263.564 210.693 263.217 211.066C262.871 211.436 262.657 211.955 262.575 212.625H266.28V212.529C266.244 211.887 266.07 211.39 265.76 211.039C265.451 210.684 265.031 210.506 264.503 210.506ZM274.848 210.629H272.367V217H271.102V210.629H268.669V209.604H274.848V210.629ZM5.02441 235.627C5.02441 235.281 4.89225 235.007 4.62793 234.807C4.36361 234.602 4.0013 234.499 3.54102 234.499C3.0944 234.499 2.7207 234.615 2.41992 234.848C2.1237 235.08 1.97559 235.354 1.97559 235.668H0.717773C0.717773 235.025 0.986654 234.499 1.52441 234.089C2.06217 233.679 2.73438 233.474 3.54102 233.474C4.4069 233.474 5.08138 233.66 5.56445 234.034C6.04753 234.403 6.28906 234.932 6.28906 235.62C6.28906 235.953 6.1888 236.258 5.98828 236.536C5.78776 236.814 5.50293 237.035 5.13379 237.199C5.99512 237.491 6.42578 238.065 6.42578 238.922C6.42578 239.601 6.16374 240.139 5.63965 240.535C5.11556 240.932 4.41602 241.13 3.54102 241.13C2.6888 241.13 1.9847 240.923 1.42871 240.508C0.877279 240.089 0.601562 239.523 0.601562 238.812H1.85938C1.85938 239.173 2.01888 239.482 2.33789 239.742C2.66146 239.997 3.0625 240.125 3.54102 240.125C4.02409 240.125 4.41374 240.013 4.70996 239.79C5.00618 239.567 5.1543 239.277 5.1543 238.922C5.1543 238.507 5.02897 238.211 4.77832 238.033C4.53223 237.851 4.14714 237.76 3.62305 237.76H2.3584V236.693H3.73242C4.59375 236.671 5.02441 236.315 5.02441 235.627ZM13.0528 241C12.9799 240.854 12.9207 240.594 12.8751 240.221C12.2872 240.831 11.5854 241.137 10.7696 241.137C10.0404 241.137 9.44116 240.932 8.97176 240.521C8.50691 240.107 8.27449 239.583 8.27449 238.949C8.27449 238.179 8.56616 237.582 9.14949 237.158C9.73738 236.73 10.5623 236.516 11.6241 236.516H12.8546V235.935C12.8546 235.493 12.7224 235.142 12.4581 234.882C12.1938 234.618 11.8041 234.485 11.2891 234.485C10.838 234.485 10.4597 234.599 10.1544 234.827C9.84904 235.055 9.69637 235.331 9.69637 235.654H8.42488C8.42488 235.285 8.55477 234.93 8.81453 234.588C9.07885 234.242 9.43432 233.968 9.88094 233.768C10.3321 233.567 10.8266 233.467 11.3643 233.467C12.2165 233.467 12.8842 233.681 13.3673 234.109C13.8503 234.533 14.101 235.119 14.1192 235.866V239.271C14.1192 239.95 14.2058 240.49 14.379 240.891V241H13.0528ZM10.9542 240.036C11.3507 240.036 11.7266 239.934 12.0821 239.729C12.4376 239.523 12.6951 239.257 12.8546 238.929V237.411H11.8634C10.3139 237.411 9.53914 237.865 9.53914 238.771C9.53914 239.168 9.6713 239.478 9.93563 239.701C10.1999 239.924 10.5395 240.036 10.9542 240.036ZM23.3811 240.104C23.8323 240.104 24.2265 239.968 24.5637 239.694C24.901 239.421 25.0878 239.079 25.1243 238.669H26.3205C26.2978 239.093 26.1519 239.496 25.883 239.879C25.6142 240.262 25.2541 240.567 24.803 240.795C24.3564 241.023 23.8824 241.137 23.3811 241.137C22.3739 241.137 21.5718 240.802 20.9748 240.132C20.3824 239.457 20.0862 238.537 20.0862 237.37V237.158C20.0862 236.438 20.2183 235.798 20.4827 235.237C20.747 234.677 21.1252 234.242 21.6174 233.932C22.1142 233.622 22.6998 233.467 23.3743 233.467C24.2037 233.467 24.8918 233.715 25.4387 234.212C25.9901 234.709 26.2841 235.354 26.3205 236.146H25.1243C25.0878 235.668 24.9055 235.276 24.5774 234.971C24.2538 234.661 23.8528 234.506 23.3743 234.506C22.7317 234.506 22.2327 234.738 21.8772 235.203C21.5263 235.663 21.3508 236.331 21.3508 237.206V237.445C21.3508 238.298 21.5263 238.954 21.8772 239.414C22.2281 239.874 22.7294 240.104 23.3811 240.104ZM27.8275 237.233C27.8275 236.509 27.9687 235.857 28.2513 235.278C28.5384 234.7 28.9349 234.253 29.4407 233.938C29.9512 233.624 30.5322 233.467 31.1839 233.467C32.1911 233.467 33.0045 233.815 33.6243 234.513C34.2487 235.21 34.5609 236.137 34.5609 237.295V237.384C34.5609 238.104 34.4219 238.751 34.1439 239.325C33.8704 239.895 33.4762 240.339 32.9613 240.658C32.4508 240.977 31.8629 241.137 31.1976 241.137C30.195 241.137 29.3815 240.788 28.7571 240.091C28.1374 239.394 27.8275 238.471 27.8275 237.322V237.233ZM29.0989 237.384C29.0989 238.204 29.2881 238.863 29.6663 239.359C30.0491 239.856 30.5596 240.104 31.1976 240.104C31.8402 240.104 32.3506 239.854 32.7288 239.353C33.1071 238.847 33.2962 238.14 33.2962 237.233C33.2962 236.422 33.1025 235.766 32.7152 235.265C32.3323 234.759 31.8219 234.506 31.1839 234.506C30.5596 234.506 30.056 234.754 29.6732 235.251C29.2904 235.748 29.0989 236.459 29.0989 237.384ZM39.8139 234.027C40.7436 234.027 41.4864 234.34 42.0424 234.964C42.6029 235.584 42.8832 236.402 42.8832 237.418V237.534C42.8832 238.231 42.7488 238.856 42.4799 239.407C42.211 239.954 41.8236 240.38 41.3178 240.686C40.8165 240.986 40.2377 241.137 39.5814 241.137C38.588 241.137 37.7881 240.806 37.182 240.146C36.5759 239.48 36.2729 238.589 36.2729 237.473V236.857C36.2729 235.303 36.56 234.068 37.1342 233.152C37.713 232.236 38.5652 231.678 39.6908 231.478C40.3288 231.364 40.7595 231.225 40.9828 231.061C41.2061 230.896 41.3178 230.671 41.3178 230.384H42.3568C42.3568 230.953 42.227 231.398 41.9672 231.717C41.712 232.036 41.3018 232.261 40.7367 232.394L39.7934 232.605C39.0414 232.783 38.4763 233.084 38.098 233.508C37.7243 233.927 37.4805 234.488 37.3666 235.189C38.0365 234.415 38.8523 234.027 39.8139 234.027ZM39.5678 235.066C38.948 235.066 38.4558 235.276 38.0912 235.695C37.7266 236.11 37.5443 236.687 37.5443 237.425V237.534C37.5443 238.327 37.7266 238.956 38.0912 239.421C38.4604 239.881 38.9571 240.111 39.5814 240.111C40.2104 240.111 40.7071 239.879 41.0717 239.414C41.4363 238.949 41.6186 238.27 41.6186 237.377C41.6186 236.68 41.434 236.121 41.0648 235.702C40.7003 235.278 40.2012 235.066 39.5678 235.066ZM44.3901 237.233C44.3901 236.509 44.5314 235.857 44.8139 235.278C45.1011 234.7 45.4975 234.253 46.0034 233.938C46.5138 233.624 47.0949 233.467 47.7466 233.467C48.7537 233.467 49.5672 233.815 50.187 234.513C50.8113 235.21 51.1235 236.137 51.1235 237.295V237.384C51.1235 238.104 50.9845 238.751 50.7065 239.325C50.4331 239.895 50.0389 240.339 49.5239 240.658C49.0135 240.977 48.4256 241.137 47.7602 241.137C46.7576 241.137 45.9442 240.788 45.3198 240.091C44.7 239.394 44.3901 238.471 44.3901 237.322V237.233ZM45.6616 237.384C45.6616 238.204 45.8507 238.863 46.229 239.359C46.6118 239.856 47.1222 240.104 47.7602 240.104C48.4028 240.104 48.9132 239.854 49.2915 239.353C49.6697 238.847 49.8589 238.14 49.8589 237.233C49.8589 236.422 49.6652 235.766 49.2778 235.265C48.895 234.759 48.3846 234.506 47.7466 234.506C47.1222 234.506 46.6186 234.754 46.2358 235.251C45.853 235.748 45.6616 236.459 45.6616 237.384ZM57.9146 233.604H59.1793V241H57.9146V235.606L54.5035 241H53.2388V233.604H54.5035V239.004L57.9146 233.604ZM58.2564 230.91C58.2564 231.462 58.0673 231.906 57.689 232.243C57.3153 232.576 56.8231 232.742 56.2125 232.742C55.6018 232.742 55.1073 232.574 54.7291 232.236C54.3508 231.899 54.1617 231.457 54.1617 230.91H55.1939C55.1939 231.229 55.2805 231.48 55.4537 231.662C55.6268 231.84 55.8798 231.929 56.2125 231.929C56.5315 231.929 56.7798 231.84 56.9576 231.662C57.1399 231.484 57.231 231.234 57.231 230.91H58.2564ZM61.6569 240.337C61.6569 240.118 61.7207 239.936 61.8483 239.79C61.9804 239.644 62.1764 239.571 62.4362 239.571C62.6959 239.571 62.8919 239.644 63.0241 239.79C63.1608 239.936 63.2291 240.118 63.2291 240.337C63.2291 240.547 63.1608 240.722 63.0241 240.863C62.8919 241.005 62.6959 241.075 62.4362 241.075C62.1764 241.075 61.9804 241.005 61.8483 240.863C61.7207 240.722 61.6569 240.547 61.6569 240.337Z" fill="#757575"/>
<defs>
<clipPath id="clip0">
<rect x="104" y="25" width="70" height="70" fill="white"/>
</clipPath>
</defs>
</svg>
